{"glyphs":{"0":{"ha":844,"x_min":82,"x_max":760,"o":"m 82 399 q 176 696 82 588 q 422 804 271 804 q 667 699 574 804 q 760 400 760 594 q 664 97 760 211 q 422 -18 568 -18 q 178 93 274 -18 q 82 399 82 204 m 192 403 q 257 163 192 249 q 422 76 322 76 q 585 163 518 76 q 651 396 651 249 q 587 630 651 549 q 422 711 522 711 q 258 630 324 711 q 192 403 192 549 z "},"1":{"ha":550,"x_min":88,"x_max":476,"o":"m 476 0 l 100 0 l 88 83 l 236 83 l 236 654 q 188 622 213 638 q 140 590 164 606 q 114 628 126 608 q 89 665 101 647 l 274 786 l 347 786 l 347 83 l 465 83 q 472 41 468 61 q 476 0 475 21 z "},"2":{"ha":686,"x_min":43,"x_max":615,"o":"m 315 804 q 527 726 467 804 q 588 567 588 649 q 536 420 588 488 q 385 265 485 353 l 181 86 l 601 86 l 615 0 l 43 0 l 43 82 l 325 338 q 446 465 413 417 q 479 567 479 513 q 438 672 479 631 q 313 714 396 714 q 188 681 247 714 q 128 646 129 647 l 79 725 q 155 768 90 732 q 315 804 219 804 z "},"3":{"ha":718,"x_min":39,"x_max":631,"o":"m 333 804 q 544 735 474 804 q 614 575 614 665 q 570 448 614 503 q 467 374 526 393 q 583 297 535 357 q 631 153 631 238 q 544 -31 631 44 q 313 -106 458 -106 q 163 -81 236 -106 q 39 -29 90 -57 l 97 46 q 196 -1 147 15 q 317 -17 244 -17 q 458 27 394 -17 q 521 150 521 71 q 460 282 521 233 q 264 331 400 331 l 231 331 l 214 413 l 272 413 q 442 456 381 413 q 504 574 504 500 q 457 672 504 629 q 329 714 410 714 q 201 691 257 714 q 111 646 146 668 l 57 718 q 183 780 115 756 q 333 804 250 804 z "},"4":{"ha":772,"x_min":43,"x_max":729,"o":"m 717 97 l 585 97 l 585 -96 l 474 -96 l 474 97 l 58 97 l 43 188 l 508 793 l 585 793 l 585 188 l 729 188 l 717 97 m 161 188 l 474 188 l 474 601 l 161 188 z "},"5":{"ha":747,"x_min":68,"x_max":667,"o":"m 118 311 l 140 786 l 614 786 l 600 696 l 240 696 l 228 424 q 299 456 261 444 q 372 468 336 468 q 596 384 526 468 q 667 186 665 300 q 582 -20 667 65 q 340 -106 497 -106 q 192 -81 264 -106 q 68 -31 119 -57 l 125 47 q 225 1 176 18 q 346 -15 274 -15 q 499 39 440 -15 q 557 186 557 93 q 507 328 557 278 q 378 378 457 378 q 283 354 324 378 q 224 311 242 331 l 118 311 z "},"6":{"ha":757,"x_min":82,"x_max":690,"o":"m 690 268 q 613 69 690 157 q 410 -18 535 -18 q 174 79 265 -18 q 82 363 82 176 q 194 680 82 515 q 486 881 307 844 l 532 813 q 319 683 408 783 q 204 461 231 582 q 295 519 242 494 q 407 544 349 544 q 614 460 538 544 q 690 268 690 376 m 586 261 q 538 399 586 338 q 406 460 489 460 q 274 422 331 460 q 192 336 218 383 q 249 146 196 218 q 406 74 301 74 q 537 131 488 74 q 586 261 586 189 z "},"7":{"ha":678,"x_min":68,"x_max":639,"o":"m 81 -62 l 504 696 l 82 696 l 68 786 l 603 786 l 639 738 l 185 -96 l 81 -62 z "},"8":{"ha":772,"x_min":72,"x_max":699,"o":"m 699 240 q 618 59 699 136 q 386 -18 538 -18 q 153 58 233 -18 q 72 240 72 135 q 126 383 72 314 q 254 471 181 453 q 151 546 193 496 q 110 664 110 596 q 181 824 110 754 q 386 893 253 893 q 590 824 519 893 q 661 664 661 754 q 617 546 661 596 q 518 471 574 496 q 643 388 588 453 q 699 240 699 324 m 217 661 q 260 563 215 606 q 386 508 304 521 q 511 564 467 521 q 556 661 556 607 q 513 761 556 718 q 382 804 469 804 q 258 760 300 804 q 217 661 217 717 m 179 238 q 240 117 179 163 q 386 71 300 71 q 531 117 469 71 q 592 238 592 163 q 540 362 592 308 q 386 429 488 415 q 231 362 282 415 q 179 238 179 308 z "},"9":{"ha":757,"x_min":65,"x_max":672,"o":"m 65 517 q 144 716 65 628 q 347 804 222 804 q 582 707 492 804 q 672 422 672 610 q 560 106 672 269 q 271 -96 449 -58 l 222 -25 q 435 103 347 1 q 550 324 524 204 q 459 267 513 292 q 350 242 406 242 q 142 325 218 242 q 65 517 65 408 m 171 525 q 219 388 171 449 q 350 326 267 326 q 481 364 425 326 q 564 449 538 401 q 507 640 558 567 q 351 713 456 713 q 219 655 268 713 q 171 525 171 597 z "},"\u0000":{"ha":0,"x_min":0,"x_max":0,"o":""},"\r":{"ha":0,"x_min":0,"x_max":0,"o":""}," ":{"ha":328,"x_min":0,"x_max":0,"o":""}," ":{"ha":328,"x_min":0,"x_max":0,"o":""},"‌":{"ha":0,"x_min":-42,"x_max":42,"o":"m -42 1718 l 42 1718 l 42 -94 l -42 -94 l -42 1718 z "},"‍":{"ha":0,"x_min":-157,"x_max":158,"o":"m 103 1833 l 158 1778 l 56 1675 l 158 1572 l 104 1518 l 42 1579 l 42 -94 l -42 -94 l -42 1578 l -103 1518 l -157 1572 l -54 1675 l -157 1778 l -101 1833 l 0 1731 l 103 1833 z "},"◌":{"ha":933,"x_min":69,"x_max":864,"o":"m 465 708 q 433 721 446 708 q 421 753 421 733 q 433 785 421 772 q 465 799 446 799 q 498 785 485 799 q 511 753 511 772 q 498 721 511 733 q 465 708 485 708 m 604 685 q 572 697 585 685 q 560 729 560 710 q 572 762 560 749 q 604 775 585 775 q 637 762 624 775 q 650 729 650 749 q 637 697 650 710 q 604 685 624 685 m 329 775 q 361 762 349 775 q 374 729 374 749 q 361 697 374 710 q 329 685 349 685 q 297 697 310 685 q 283 729 283 710 q 297 762 283 749 q 329 775 310 775 m 722 607 q 690 619 703 607 q 678 651 678 632 q 690 684 678 671 q 722 697 703 697 q 755 684 742 697 q 768 651 768 671 q 755 619 768 632 q 722 607 742 607 m 211 697 q 243 684 231 697 q 256 651 256 671 q 243 619 256 632 q 211 607 231 607 q 178 619 192 607 q 165 651 165 632 q 178 684 165 671 q 211 697 192 697 m 796 485 q 764 497 776 485 q 751 529 751 510 q 764 562 751 549 q 796 575 776 575 q 828 562 815 575 q 842 529 842 549 q 828 497 842 510 q 796 485 815 485 m 138 575 q 169 562 157 575 q 182 529 182 549 q 169 497 182 510 q 138 485 157 485 q 105 497 118 485 q 92 529 92 510 q 105 562 92 549 q 138 575 118 575 m 818 353 q 786 365 799 353 q 774 397 774 378 q 786 430 774 417 q 818 443 799 443 q 851 430 838 443 q 864 397 864 417 q 851 365 864 378 q 818 353 838 353 m 115 443 q 147 430 135 443 q 160 397 160 417 q 147 365 160 378 q 115 353 135 353 q 83 365 96 353 q 69 397 69 378 q 83 430 69 417 q 115 443 96 443 m 796 224 q 764 236 776 224 q 751 268 751 249 q 764 301 751 288 q 796 314 776 314 q 828 301 815 314 q 842 268 842 288 q 828 236 842 249 q 796 224 815 224 m 138 314 q 169 301 157 314 q 182 268 182 288 q 169 236 182 249 q 138 224 157 224 q 105 236 118 224 q 92 268 92 249 q 105 301 92 288 q 138 314 118 314 m 724 100 q 692 113 704 100 q 679 144 679 125 q 692 177 679 164 q 724 190 704 190 q 756 177 743 190 q 769 144 769 164 q 756 113 769 125 q 724 100 743 100 m 210 190 q 242 177 229 190 q 254 144 254 164 q 242 113 254 125 q 210 100 229 100 q 177 113 190 100 q 164 144 164 125 q 177 177 164 164 q 210 190 190 190 m 329 114 q 361 101 349 114 q 374 68 374 88 q 361 36 374 49 q 329 24 349 24 q 297 36 310 24 q 283 68 283 49 q 297 101 283 88 q 329 114 310 114 m 604 24 q 572 36 585 24 q 560 68 560 49 q 572 101 560 88 q 604 114 585 114 q 637 101 624 114 q 650 68 650 88 q 637 36 650 49 q 604 24 624 24 m 465 0 q 433 13 446 0 q 421 44 421 25 q 433 77 421 64 q 465 90 446 90 q 498 77 485 90 q 511 44 511 64 q 498 13 511 25 q 465 0 485 0 z "},"A":{"ha":835,"x_min":8,"x_max":826,"o":"m 410 799 l 244 357 l 581 357 l 410 799 m 464 944 l 826 17 l 717 0 l 613 268 l 214 268 l 115 0 l 8 0 l 357 944 l 464 944 z "},"B":{"ha":856,"x_min":139,"x_max":785,"o":"m 388 944 q 626 890 533 944 q 719 694 719 836 q 688 581 719 628 q 603 506 656 533 q 734 419 683 478 q 785 265 785 361 q 683 60 785 121 q 435 0 582 0 l 139 0 l 139 944 l 388 944 m 382 851 l 247 851 l 247 533 l 376 533 q 542 568 476 535 q 607 692 607 601 q 546 821 607 790 q 382 851 485 851 m 447 444 l 247 444 l 247 92 l 433 92 q 603 128 533 92 q 672 263 672 165 q 611 401 672 358 q 447 444 550 444 z "},"C":{"ha":831,"x_min":96,"x_max":750,"o":"m 714 829 q 625 858 667 847 q 513 869 583 869 q 292 757 374 868 q 211 468 211 646 q 280 191 211 307 q 500 75 349 75 q 620 88 571 75 q 708 118 669 100 l 750 35 q 635 -3 707 13 q 506 -19 564 -19 q 192 126 288 -19 q 96 467 96 271 q 202 820 96 676 q 513 964 308 964 q 630 951 556 964 q 749 910 704 939 l 714 829 z "},"D":{"ha":965,"x_min":138,"x_max":868,"o":"m 138 0 l 138 944 l 456 944 q 771 808 674 944 q 868 478 868 672 q 760 138 868 275 q 446 0 653 0 l 138 0 m 460 850 l 247 850 l 247 92 l 447 92 q 674 193 588 92 q 760 476 760 294 q 686 744 760 639 q 460 850 613 850 z "},"E":{"ha":747,"x_min":138,"x_max":707,"o":"m 138 0 l 138 944 l 654 944 q 660 903 657 924 q 667 861 663 882 l 247 861 l 247 524 l 519 524 q 525 482 522 503 q 532 440 528 461 l 247 440 l 247 86 l 694 86 l 707 0 l 138 0 z "},"F":{"ha":675,"x_min":139,"x_max":650,"o":"m 518 435 l 247 435 l 247 0 l 139 0 l 139 944 l 636 944 l 650 863 l 247 863 l 247 517 l 504 517 l 518 435 z "},"G":{"ha":913,"x_min":96,"x_max":807,"o":"m 503 485 l 807 485 l 807 68 q 806 57 807 63 q 806 46 806 51 l 807 44 q 686 -1 764 18 q 542 -19 608 -19 q 210 120 325 -19 q 96 467 96 260 q 222 826 96 689 q 554 964 347 964 q 672 951 597 964 q 792 910 747 938 l 757 829 q 669 858 710 847 q 557 869 628 869 q 313 765 414 869 q 211 468 211 661 q 299 181 211 286 q 540 75 388 75 q 629 84 589 75 q 701 103 669 93 l 701 403 l 493 403 q 497 444 494 424 q 503 485 500 465 z "},"H":{"ha":940,"x_min":138,"x_max":801,"o":"m 692 0 l 692 432 l 247 432 l 247 0 l 138 0 l 138 944 l 247 951 l 247 519 l 692 519 l 692 944 l 801 944 l 801 0 l 692 0 z "},"I":{"ha":386,"x_min":138,"x_max":247,"o":"m 138 0 l 138 944 l 247 944 l 247 0 l 138 0 z "},"J":{"ha":392,"x_min":26,"x_max":253,"o":"m 143 203 l 143 944 l 253 944 l 253 178 q 215 47 253 90 q 69 -31 176 3 q 49 8 60 -11 q 26 46 38 28 q 120 99 97 72 q 143 203 143 125 z "},"K":{"ha":849,"x_min":133,"x_max":838,"o":"m 704 0 l 346 460 l 243 342 l 243 0 l 133 0 l 133 944 l 243 944 l 243 486 q 447 726 344 606 q 650 965 550 846 q 688 933 668 949 q 725 900 707 917 q 571 720 649 810 q 415 542 493 631 l 838 0 l 704 0 z "},"L":{"ha":717,"x_min":139,"x_max":692,"o":"m 692 0 l 139 0 l 139 944 l 247 944 l 247 88 l 679 88 l 692 0 z "},"M":{"ha":1079,"x_min":139,"x_max":940,"o":"m 528 311 l 247 714 l 247 0 l 139 0 l 139 944 l 203 944 l 543 463 l 871 944 l 940 944 l 940 0 l 829 0 l 829 711 l 565 318 l 528 311 z "},"N":{"ha":990,"x_min":138,"x_max":853,"o":"m 138 0 l 138 944 l 225 944 l 685 306 l 742 213 l 742 944 l 853 944 l 853 0 l 765 0 l 283 679 l 247 740 l 247 0 l 138 0 z "},"O":{"ha":1024,"x_min":96,"x_max":929,"o":"m 96 468 q 203 820 96 678 q 515 967 310 963 q 831 820 733 967 q 929 479 929 674 q 822 130 929 276 q 508 -19 714 -17 q 193 127 290 -19 q 96 468 96 274 m 211 469 q 282 190 211 306 q 506 75 353 75 q 728 185 646 75 q 811 478 811 296 q 740 756 811 642 q 517 869 669 869 q 294 758 378 869 q 211 469 211 646 z "},"P":{"ha":811,"x_min":139,"x_max":744,"o":"m 139 0 l 139 944 l 396 944 q 644 878 544 944 q 744 656 744 813 q 636 428 743 500 q 381 357 529 357 l 247 357 l 247 0 l 139 0 m 396 851 l 247 851 l 247 450 l 386 450 q 559 497 489 450 q 631 651 629 543 q 567 808 631 765 q 396 851 504 851 z "},"Q":{"ha":1024,"x_min":96,"x_max":929,"o":"m 842 -28 l 749 60 q 640 2 701 22 q 508 -19 579 -18 q 193 127 290 -19 q 96 468 96 274 q 203 820 96 678 q 515 967 310 963 q 831 820 733 967 q 929 479 929 674 q 899 281 929 375 q 813 119 869 188 l 907 29 l 842 -28 m 211 469 q 282 190 211 306 q 506 75 353 75 q 596 90 554 75 q 672 131 638 104 l 536 258 l 613 317 l 735 196 q 791 319 771 247 q 811 478 811 392 q 740 756 811 642 q 517 869 669 869 q 294 758 378 869 q 211 469 211 646 z "},"R":{"ha":876,"x_min":139,"x_max":818,"o":"m 396 851 l 247 851 l 247 478 l 386 478 q 558 518 486 478 q 631 665 631 558 q 565 814 631 776 q 396 851 500 851 m 697 0 l 479 393 q 431 389 456 390 q 381 388 407 388 l 247 388 l 247 0 l 139 0 l 139 944 l 396 944 q 644 881 544 944 q 744 669 744 818 q 697 513 743 574 q 576 422 650 453 l 818 0 l 697 0 z "},"S":{"ha":747,"x_min":69,"x_max":678,"o":"m 111 132 q 212 94 149 114 q 343 75 275 75 q 511 117 453 75 q 569 228 569 160 q 319 446 569 378 q 69 728 69 514 q 150 897 69 828 q 371 967 231 967 q 505 949 442 967 q 613 908 568 931 q 594 865 604 886 q 575 822 585 844 q 493 856 539 840 q 378 871 447 871 q 233 835 290 871 q 176 731 176 799 q 427 507 176 576 q 678 231 678 438 q 591 52 678 122 q 344 -18 504 -18 q 198 3 285 -18 q 85 46 111 24 q 97 88 90 67 q 111 132 104 110 z "},"T":{"ha":738,"x_min":13,"x_max":724,"o":"m 724 857 l 419 857 l 419 0 l 308 0 l 308 857 l 13 857 l 13 944 l 711 944 l 724 857 z "},"U":{"ha":961,"x_min":125,"x_max":835,"o":"m 235 347 q 301 151 235 226 q 479 75 367 75 q 660 151 596 75 q 724 347 724 228 l 724 944 l 835 944 l 835 335 q 740 83 835 182 q 479 -15 644 -15 q 220 83 315 -15 q 125 335 125 182 l 125 944 l 235 944 l 235 347 z "},"V":{"ha":835,"x_min":8,"x_max":826,"o":"m 369 0 l 8 926 l 115 944 l 422 143 l 719 944 l 826 944 l 476 0 l 369 0 z "},"W":{"ha":1347,"x_min":8,"x_max":1340,"o":"m 931 0 l 671 772 l 426 0 l 317 0 l 8 926 l 115 944 l 371 153 l 622 944 l 726 944 l 986 153 l 1233 944 l 1340 944 l 1039 0 l 931 0 z "},"X":{"ha":890,"x_min":24,"x_max":868,"o":"m 24 3 l 375 478 l 44 926 l 156 944 l 451 542 l 750 944 l 868 944 l 508 463 l 849 0 l 729 0 l 433 399 q 282 192 417 375 q 131 -14 147 8 l 24 3 z "},"Y":{"ha":779,"x_min":8,"x_max":772,"o":"m 331 0 l 332 379 l 8 926 l 122 944 l 386 488 l 656 944 l 772 944 l 443 385 l 442 0 l 331 0 z "},"Z":{"ha":790,"x_min":31,"x_max":749,"o":"m 736 0 l 43 0 l 31 86 q 328 472 179 279 q 626 857 478 665 l 85 857 q 77 901 82 879 q 69 944 72 922 l 738 944 l 749 857 q 450 472 600 665 q 151 86 300 279 l 725 86 l 736 0 z "},"a":{"ha":700,"x_min":71,"x_max":599,"o":"m 172 192 q 202 110 172 149 q 299 71 232 71 q 406 100 357 71 q 489 169 454 129 l 489 324 l 311 324 q 208 284 243 324 q 172 192 172 244 m 114 632 q 224 675 153 658 q 336 692 294 692 q 526 628 453 692 q 599 464 599 565 l 599 0 l 532 0 l 503 68 q 413 10 468 36 q 301 -17 357 -17 q 128 42 185 -17 q 71 192 71 101 q 138 344 71 292 q 314 396 206 396 l 488 396 q 461 538 488 479 q 340 596 435 596 q 228 581 272 596 q 146 549 183 565 q 131 590 139 569 q 114 632 122 611 z "},"b":{"ha":767,"x_min":111,"x_max":696,"o":"m 111 0 l 111 965 l 221 981 l 221 625 q 310 674 261 656 q 403 693 358 693 q 624 592 551 693 q 696 338 696 490 q 623 83 696 183 q 403 -17 550 -17 q 300 3 353 -17 q 203 58 247 24 q 190 29 197 44 q 176 0 183 14 l 111 0 m 221 146 q 303 93 260 111 q 386 75 347 75 q 540 151 494 75 q 586 336 586 228 q 542 524 586 449 q 386 600 497 600 q 303 581 347 600 q 221 528 260 563 l 221 146 z "},"c":{"ha":651,"x_min":68,"x_max":592,"o":"m 382 599 q 231 524 279 599 q 181 340 182 450 q 226 151 181 226 q 376 75 272 75 q 479 89 444 75 q 553 122 514 103 l 586 42 q 482 -2 543 14 q 378 -18 421 -18 q 147 82 225 -18 q 68 339 68 182 q 151 592 69 493 q 385 692 232 692 q 487 676 425 692 q 592 631 549 660 l 558 551 q 484 584 519 569 q 382 599 449 599 z "},"d":{"ha":769,"x_min":68,"x_max":658,"o":"m 381 600 q 226 523 271 600 q 181 338 181 446 q 225 151 181 225 q 381 76 269 76 q 464 95 419 76 q 547 149 508 114 l 547 526 q 464 581 508 561 q 381 600 419 600 m 658 979 l 658 0 l 593 0 l 564 61 q 466 4 521 26 q 361 -18 411 -18 q 141 83 214 -18 q 68 336 68 183 q 142 592 68 492 q 364 693 217 693 q 457 674 407 693 q 547 625 507 656 l 547 967 l 658 979 z "},"e":{"ha":733,"x_min":68,"x_max":671,"o":"m 671 319 l 182 319 q 239 142 186 213 q 406 72 292 72 q 516 87 474 72 q 597 119 558 101 l 632 39 q 519 -3 589 10 q 408 -17 450 -17 q 154 83 240 -17 q 68 339 68 182 q 151 592 69 492 q 382 692 232 692 q 605 581 539 692 q 671 319 671 471 m 563 394 q 508 542 551 485 q 378 599 465 599 q 242 542 290 599 q 185 394 194 485 l 563 394 z "},"f":{"ha":429,"x_min":24,"x_max":417,"o":"m 126 767 q 176 919 126 863 q 314 975 226 975 q 372 967 343 975 q 417 950 401 958 l 392 863 q 363 872 381 868 q 331 876 344 876 q 258 844 279 876 q 236 761 236 813 l 236 660 l 360 660 l 396 575 l 236 575 l 236 0 l 126 0 l 126 575 l 25 575 l 24 660 l 126 660 l 126 767 z "},"g":{"ha":769,"x_min":68,"x_max":658,"o":"m 547 526 q 463 581 508 561 q 379 600 418 600 q 226 523 271 600 q 181 338 181 446 q 224 150 181 225 q 379 75 268 75 q 463 94 418 75 q 547 149 508 114 l 547 526 m 658 -54 q 585 -231 658 -160 q 368 -301 513 -301 q 256 -285 326 -301 q 142 -239 185 -269 l 175 -160 q 258 -194 217 -178 q 365 -211 299 -211 q 498 -172 449 -211 q 547 -53 547 -132 l 547 50 q 456 1 507 19 q 361 -17 406 -17 q 141 83 214 -17 q 68 336 68 182 q 142 592 68 490 q 364 693 217 693 q 467 670 413 693 q 564 613 521 647 q 578 642 571 626 q 592 674 585 658 l 658 674 l 658 -54 z "},"h":{"ha":778,"x_min":111,"x_max":676,"o":"m 221 585 q 328 662 264 631 q 450 693 392 693 q 622 626 567 693 q 676 457 676 558 l 676 1 l 567 1 l 567 442 q 534 554 567 510 q 431 600 501 599 q 326 571 388 600 q 221 490 265 542 l 221 0 l 111 0 l 111 967 l 221 981 l 221 585 z "},"i":{"ha":331,"x_min":89,"x_max":240,"o":"m 164 807 q 111 828 132 807 q 90 882 90 850 q 110 934 89 913 q 164 956 132 956 q 217 934 194 956 q 240 882 240 913 q 217 828 240 850 q 164 807 194 807 m 110 0 l 110 674 l 221 674 l 221 0 l 110 0 z "},"j":{"ha":338,"x_min":-15,"x_max":246,"o":"m 171 807 q 117 828 139 807 q 96 882 96 850 q 117 934 96 913 q 171 956 139 956 q 224 934 201 956 q 246 882 246 913 q 224 828 246 850 q 171 807 201 807 m 115 -42 l 115 674 l 226 674 l 226 13 q 193 -187 226 -121 q 26 -294 160 -253 l -15 -215 q 85 -153 54 -189 q 115 -42 115 -118 z "},"k":{"ha":685,"x_min":111,"x_max":665,"o":"m 221 253 l 221 0 l 111 0 l 111 965 l 221 981 l 221 383 l 526 692 l 593 621 l 388 417 q 526 208 456 313 q 665 0 597 104 l 536 0 q 425 173 481 86 q 314 346 369 260 l 221 253 z "},"l":{"ha":332,"x_min":111,"x_max":221,"o":"m 111 0 l 111 965 l 221 981 l 221 0 l 111 0 z "},"m":{"ha":1188,"x_min":108,"x_max":1088,"o":"m 626 583 q 735 661 669 629 q 860 693 800 693 q 1032 626 976 693 q 1088 457 1088 558 l 1088 1 l 976 1 l 976 442 q 943 554 976 510 q 840 600 910 599 q 745 575 796 600 q 650 504 694 550 q 652 480 651 492 q 653 457 653 468 l 653 1 l 542 1 l 542 442 q 509 554 542 510 q 408 600 476 599 q 313 576 363 600 q 218 504 263 551 l 218 0 l 108 0 l 108 674 l 175 674 l 207 597 q 311 666 251 639 q 426 693 371 693 q 552 663 501 693 q 626 583 603 633 z "},"n":{"ha":776,"x_min":108,"x_max":675,"o":"m 210 576 q 321 659 253 625 q 449 693 389 693 q 619 626 564 693 q 675 457 675 558 l 675 1 l 565 1 l 565 442 q 532 554 565 510 q 429 600 499 599 q 324 571 386 600 q 218 490 263 542 l 218 0 l 108 0 l 108 674 l 175 674 l 210 576 z "},"o":{"ha":754,"x_min":68,"x_max":685,"o":"m 367 -18 q 143 83 218 -17 q 68 340 68 183 q 150 592 69 493 q 381 692 231 690 q 609 590 533 692 q 685 332 685 489 q 600 80 683 178 q 367 -18 517 -18 m 575 332 q 531 522 575 447 q 383 597 488 597 q 231 526 281 597 q 181 342 182 454 q 222 150 181 224 q 368 76 264 76 q 523 146 472 76 q 575 332 574 215 z "},"p":{"ha":767,"x_min":111,"x_max":696,"o":"m 221 146 q 303 93 260 111 q 386 75 347 75 q 540 151 494 75 q 586 336 586 228 q 542 524 586 449 q 386 600 497 600 q 303 581 347 600 q 221 528 260 563 l 221 146 m 111 -304 l 111 674 l 176 674 l 201 614 q 299 670 244 647 q 403 693 354 693 q 624 592 551 693 q 696 338 696 490 q 623 83 696 183 q 403 -17 550 -17 q 310 1 358 -17 q 221 49 261 18 l 221 -289 l 111 -304 z "},"q":{"ha":769,"x_min":68,"x_max":658,"o":"m 658 674 l 658 -289 l 547 -304 l 547 51 q 456 1 507 21 q 361 -18 406 -18 q 141 83 214 -18 q 68 336 68 183 q 142 592 68 492 q 364 693 217 693 q 467 670 413 693 q 565 613 522 647 l 593 674 l 658 674 m 381 600 q 226 523 271 600 q 181 338 181 446 q 225 151 181 225 q 381 76 269 76 q 464 95 419 76 q 547 149 508 114 l 547 526 q 464 581 508 561 q 381 600 419 600 z "},"r":{"ha":458,"x_min":108,"x_max":444,"o":"m 108 0 l 108 674 l 175 674 l 208 579 q 305 642 246 611 q 418 674 364 674 q 431 630 424 651 q 444 586 438 608 q 324 553 385 586 q 218 476 263 521 l 218 0 l 108 0 z "},"s":{"ha":619,"x_min":65,"x_max":554,"o":"m 492 551 q 415 583 458 568 q 313 599 372 599 q 215 574 251 599 q 178 506 178 549 q 220 440 178 467 q 329 390 263 413 q 483 311 411 361 q 554 178 554 261 q 485 34 554 86 q 285 -18 417 -18 q 176 -3 242 -18 q 69 39 111 11 l 103 122 q 190 89 142 103 q 286 75 238 75 q 403 99 361 75 q 444 171 444 122 q 399 247 444 214 q 285 301 353 279 q 135 374 206 328 q 65 500 65 421 q 133 641 65 590 q 315 692 200 692 q 422 676 358 692 q 525 632 486 660 l 492 551 z "},"t":{"ha":451,"x_min":24,"x_max":414,"o":"m 414 3 q 370 -12 399 -4 q 311 -21 342 -21 q 173 29 225 -21 q 121 175 121 79 l 121 579 l 25 579 l 24 663 l 121 663 l 121 833 l 232 865 l 232 663 l 354 663 l 390 579 l 232 579 l 232 190 q 254 106 232 139 q 328 74 276 74 q 361 78 343 74 q 389 88 379 83 l 414 3 z "},"u":{"ha":753,"x_min":101,"x_max":644,"o":"m 544 74 q 442 7 500 33 q 329 -19 383 -19 q 156 48 211 -19 q 101 218 101 115 l 101 674 l 211 674 l 211 231 q 244 118 211 163 q 346 74 278 74 q 438 96 385 74 q 535 158 490 118 l 535 674 l 644 674 l 644 0 l 576 0 l 544 74 z "},"v":{"ha":663,"x_min":24,"x_max":639,"o":"m 281 0 l 24 657 l 135 674 l 336 149 l 529 674 l 639 674 l 389 0 l 281 0 z "},"w":{"ha":1046,"x_min":24,"x_max":1024,"o":"m 696 0 l 521 513 l 358 0 l 250 0 l 24 657 l 135 674 l 306 157 l 468 674 l 579 674 l 750 157 l 913 674 l 1024 674 l 804 0 l 696 0 z "},"x":{"ha":690,"x_min":19,"x_max":671,"o":"m 19 0 l 274 340 l 40 657 l 154 674 l 350 404 l 551 674 l 671 674 l 413 321 l 651 0 l 531 0 l 336 257 l 143 0 l 19 0 z "},"y":{"ha":663,"x_min":24,"x_max":639,"o":"m 243 -110 l 283 4 l 24 657 l 132 674 l 336 153 l 529 674 l 639 674 l 433 122 l 342 -139 q 262 -247 319 -203 q 133 -306 204 -290 l 100 -226 q 188 -181 150 -204 q 243 -110 225 -157 z "},"z":{"ha":647,"x_min":49,"x_max":593,"o":"m 593 614 l 193 86 l 576 86 l 590 0 l 64 0 l 49 56 l 443 585 l 108 585 l 83 674 l 588 674 l 593 614 z "},"ﬁ":{"ha":760,"x_min":24,"x_max":669,"o":"m 24 0 m 126 767 q 176 919 126 863 q 314 975 226 975 q 372 967 343 975 q 417 950 401 958 l 392 863 q 363 872 381 868 q 331 876 344 876 q 258 844 279 876 q 236 761 236 813 l 236 660 l 360 660 l 396 575 l 236 575 l 236 0 l 126 0 l 126 575 l 25 575 l 24 660 l 126 660 l 126 767 m 593 807 q 540 828 561 807 q 519 882 519 850 q 540 934 518 913 q 593 956 561 956 q 647 934 624 956 q 669 882 669 913 q 647 828 669 850 q 593 807 624 807 m 539 0 l 539 674 l 650 674 l 650 0 l 539 0 z "},"ﬂ":{"ha":763,"x_min":24,"x_max":650,"o":"m 24 0 m 126 767 q 176 919 126 863 q 314 975 226 975 q 372 967 343 975 q 417 950 401 958 l 392 863 q 363 872 381 868 q 331 876 344 876 q 258 844 279 876 q 236 761 236 813 l 236 660 l 360 660 l 396 575 l 236 575 l 236 0 l 126 0 l 126 575 l 25 575 l 24 660 l 126 660 l 126 767 m 540 0 l 540 965 l 650 981 l 650 0 l 540 0 z "},"`":{"ha":247,"x_min":22,"x_max":226,"o":"m 22 1035 l 143 1035 l 226 818 l 143 818 l 22 1035 z "},"¨":{"ha":410,"x_min":22,"x_max":386,"o":"m 90 988 q 138 967 118 988 q 157 921 157 947 q 138 872 157 892 q 90 853 118 853 q 42 872 63 853 q 22 921 22 892 q 42 967 22 947 q 90 988 63 988 m 319 988 q 367 967 349 988 q 386 921 386 947 q 367 872 386 892 q 319 853 349 853 q 272 872 292 853 q 251 921 251 892 q 272 967 251 947 q 319 988 292 988 z "},"¯":{"ha":385,"x_min":22,"x_max":364,"o":"m 22 967 l 364 967 l 364 879 l 22 879 l 22 967 z "},"´":{"ha":247,"x_min":22,"x_max":226,"o":"m 106 1035 l 226 1035 l 104 818 l 22 818 l 106 1035 z "},"ˆ":{"ha":456,"x_min":22,"x_max":435,"o":"m 128 818 l 22 818 l 185 1035 l 271 1035 l 435 818 l 329 818 l 229 954 l 128 818 z "},"ˇ":{"ha":456,"x_min":22,"x_max":435,"o":"m 22 1035 l 128 1035 l 229 899 l 329 1035 l 435 1035 l 271 818 l 185 818 l 22 1035 z "},"˘":{"ha":417,"x_min":22,"x_max":394,"o":"m 394 1022 q 351 890 394 949 q 208 831 307 832 q 66 890 110 832 q 22 1022 22 949 l 101 1022 q 127 949 101 985 q 208 913 153 913 q 288 949 261 913 q 315 1022 315 985 l 394 1022 z "},"˙":{"ha":194,"x_min":22,"x_max":172,"o":"m 97 1001 q 150 978 128 1001 q 172 925 172 956 q 150 872 172 893 q 97 850 128 850 q 44 872 67 850 q 22 925 22 893 q 44 978 22 956 q 97 1001 67 1001 z "},"˚":{"ha":303,"x_min":22,"x_max":281,"o":"m 151 1065 q 242 1030 204 1065 q 281 943 281 994 q 242 858 281 892 q 151 825 204 825 q 61 858 100 825 q 22 943 22 892 q 61 1030 22 994 q 151 1065 100 1065 m 151 886 q 194 903 176 886 q 211 943 211 919 q 194 985 211 968 q 151 1003 176 1003 q 110 985 128 1003 q 92 943 92 968 q 110 903 92 919 q 151 886 128 886 z "},"˜":{"ha":451,"x_min":24,"x_max":428,"o":"m 353 976 l 428 976 q 392 869 428 899 q 304 839 356 839 q 221 870 256 839 q 150 901 186 901 q 117 887 132 901 q 100 846 101 872 l 24 846 l 24 856 q 61 954 24 926 q 147 982 99 982 q 235 951 203 982 q 303 921 267 921 q 335 935 321 921 q 353 976 350 949 z "},"˝":{"ha":436,"x_min":22,"x_max":414,"o":"m 299 1035 l 414 1035 l 293 818 l 217 818 l 299 1035 m 106 1035 l 219 1035 l 97 818 l 22 818 l 106 1035 z "},"˛":{"ha":311,"x_min":22,"x_max":289,"o":"m 94 6 l 208 6 q 146 -62 175 -17 q 117 -140 117 -107 q 136 -190 117 -175 q 182 -206 156 -206 q 219 -199 201 -206 q 254 -178 238 -192 l 289 -244 q 238 -276 268 -265 q 171 -287 207 -287 q 64 -249 106 -287 q 22 -149 22 -210 q 42 -65 22 -110 q 94 6 63 -21 z "},"¸":{"ha":315,"x_min":22,"x_max":293,"o":"m 131 18 l 218 18 l 185 -67 q 262 -109 231 -75 q 293 -179 293 -143 q 244 -276 293 -244 q 132 -307 196 -307 q 74 -299 107 -307 q 22 -278 42 -290 l 49 -207 q 87 -222 63 -214 q 132 -229 111 -229 q 181 -217 158 -229 q 204 -182 204 -206 q 168 -136 204 -156 q 81 -111 132 -117 l 131 18 z "},"":{"ha":207,"x_min":21,"x_max":186,"o":"m 110 -29 q 164 -53 142 -29 q 186 -117 186 -76 q 146 -244 186 -183 q 50 -333 106 -306 l 21 -281 q 73 -238 51 -262 q 99 -179 94 -214 q 53 -155 72 -178 q 35 -106 35 -132 q 57 -52 35 -75 q 110 -29 79 -29 z "},"Þ":{"ha":824,"x_min":138,"x_max":744,"o":"m 138 0 l 138 944 l 247 944 l 247 786 l 396 786 q 644 720 544 786 q 744 497 744 654 q 635 270 744 342 q 381 199 526 199 l 247 199 l 247 0 l 138 0 m 396 694 l 247 694 l 247 290 l 385 290 q 559 338 489 290 q 631 493 629 385 q 567 651 631 607 q 396 694 504 694 z "},"Ð":{"ha":975,"x_min":28,"x_max":878,"o":"m 146 0 l 146 422 l 40 422 q 33 466 36 444 q 28 510 31 488 l 146 510 l 146 944 l 465 944 q 781 808 683 944 q 878 478 878 672 q 769 138 878 275 q 454 0 661 0 l 146 0 m 390 422 l 257 422 l 257 92 l 456 92 q 682 193 596 92 q 768 476 768 294 q 695 744 768 639 q 469 850 622 850 l 257 850 l 257 510 l 379 510 l 390 422 z "},"Æ":{"ha":1219,"x_min":6,"x_max":1179,"o":"m 610 0 l 610 268 l 278 268 l 108 0 q 57 8 82 3 q 6 17 32 13 q 301 481 153 247 q 596 944 449 714 l 1128 944 l 1140 861 l 721 861 l 721 524 l 992 524 q 998 482 994 503 q 1006 440 1001 461 l 721 440 l 721 86 l 1168 86 q 1173 43 1169 64 q 1179 0 1176 22 l 610 0 m 335 356 l 610 356 l 610 793 q 472 575 542 685 q 335 356 403 465 z "},"Đ":{"ha":975,"x_min":28,"x_max":878,"o":"m 146 0 l 146 422 l 40 422 q 33 466 36 444 q 28 510 31 488 l 146 510 l 146 944 l 465 944 q 781 808 683 944 q 878 478 878 672 q 769 138 878 275 q 454 0 661 0 l 146 0 m 390 422 l 257 422 l 257 92 l 456 92 q 682 193 596 92 q 768 476 768 294 q 695 744 768 639 q 469 850 622 850 l 257 850 l 257 510 l 379 510 l 390 422 z "},"Ł":{"ha":724,"x_min":28,"x_max":699,"o":"m 699 0 l 144 0 l 144 347 l 76 289 l 28 361 l 144 458 l 144 944 l 254 944 l 254 550 l 397 669 l 446 600 l 254 439 l 254 88 l 686 88 l 699 0 z "},"Œ":{"ha":1332,"x_min":96,"x_max":1292,"o":"m 724 831 q 638 859 678 849 q 531 869 599 869 q 301 757 390 868 q 211 468 211 646 q 289 191 211 307 q 517 75 367 75 q 636 88 588 75 q 724 118 685 100 l 724 831 m 1292 0 l 724 0 l 724 15 q 624 -10 679 0 q 522 -19 568 -19 q 200 126 304 -19 q 96 467 96 271 q 210 820 96 676 q 531 964 325 964 q 621 956 565 964 q 724 929 676 947 l 724 944 l 1239 944 l 1253 863 l 832 863 l 832 524 l 1104 524 l 1118 440 l 832 440 l 832 88 l 1281 88 l 1292 0 z "},"Ø":{"ha":1024,"x_min":96,"x_max":929,"o":"m 96 468 q 203 820 96 678 q 515 967 310 963 q 831 820 733 967 q 929 479 929 674 q 822 130 929 276 q 508 -19 714 -17 q 193 127 290 -19 q 96 468 96 274 m 517 869 q 294 758 378 869 q 211 469 211 646 q 237 289 211 372 q 314 153 263 206 l 617 853 q 569 865 594 861 q 517 869 543 869 m 400 97 q 449 81 422 88 q 506 75 475 75 q 728 185 646 75 q 811 478 811 296 q 785 662 811 578 q 703 797 758 746 l 400 97 z "},"ß":{"ha":824,"x_min":111,"x_max":756,"o":"m 111 657 q 194 874 111 797 q 415 951 278 951 q 617 890 532 951 q 703 700 703 828 q 672 578 703 631 q 586 500 642 526 q 707 414 658 474 q 756 264 756 354 q 655 60 756 121 q 406 0 554 0 l 319 0 l 319 92 l 404 92 q 574 129 504 92 q 643 263 643 167 q 581 401 643 357 q 418 444 518 444 l 339 444 l 339 533 l 379 533 q 541 575 492 533 q 590 696 590 617 q 538 819 590 779 q 415 858 486 858 q 271 802 321 858 q 221 656 221 746 l 221 0 l 111 0 l 111 657 z "},"ð":{"ha":757,"x_min":65,"x_max":672,"o":"m 551 904 l 461 826 q 612 622 551 742 q 672 364 672 501 q 582 80 672 178 q 347 -18 492 -18 q 144 69 222 -18 q 65 268 65 157 q 142 460 65 376 q 350 544 218 544 q 463 519 408 544 q 554 460 517 493 q 492 626 538 549 q 386 763 447 704 l 247 644 l 199 717 l 318 818 q 233 869 276 849 q 146 899 189 890 l 193 969 q 295 937 244 960 q 393 879 346 914 l 503 975 l 551 904 m 171 261 q 219 131 171 189 q 351 74 268 74 q 507 146 456 74 q 564 336 558 218 q 481 422 538 383 q 350 460 425 460 q 219 399 267 460 q 171 261 171 339 z "},"þ":{"ha":767,"x_min":111,"x_max":696,"o":"m 221 146 q 303 93 260 111 q 386 75 347 75 q 540 151 494 75 q 586 336 586 228 q 542 524 586 449 q 386 600 497 600 q 303 581 347 600 q 221 528 260 563 l 221 146 m 111 -304 l 111 965 l 221 981 l 221 625 q 310 674 261 656 q 403 693 358 693 q 624 592 551 693 q 696 338 696 490 q 623 83 696 183 q 403 -17 550 -17 q 310 1 358 -17 q 221 49 261 18 l 221 -289 l 111 -304 z "},"ƒ":{"ha":429,"x_min":-54,"x_max":417,"o":"m 236 96 q 186 -55 236 1 q 49 -111 136 -111 q -10 -103 19 -111 q -54 -87 -40 -96 l -31 0 q -1 -10 -19 -6 q 31 -14 17 -14 q 104 18 82 -14 q 126 101 126 50 l 126 575 l 25 575 l 24 660 l 126 660 l 126 767 q 176 919 126 863 q 314 975 226 975 q 372 967 343 975 q 417 950 401 958 l 392 863 q 363 872 381 868 q 331 876 344 876 q 258 844 279 876 q 236 761 236 813 l 236 660 l 360 660 l 396 575 l 236 575 l 236 96 z "},"æ":{"ha":1151,"x_min":71,"x_max":1089,"o":"m 1089 319 l 600 319 q 658 142 604 213 q 825 72 711 72 q 935 87 893 72 q 1017 119 978 101 q 1033 79 1024 100 q 1050 39 1042 58 q 938 -3 1008 10 q 825 -17 868 -17 q 661 17 731 -17 q 551 111 592 51 q 451 22 518 61 q 306 -17 383 -17 q 128 42 185 -17 q 71 190 71 100 q 138 342 71 290 q 314 393 206 393 l 489 393 l 489 444 q 452 553 489 511 q 340 596 415 596 q 228 581 272 596 q 146 549 183 565 q 131 590 139 569 q 114 632 122 611 q 224 675 153 658 q 336 692 294 692 q 472 660 414 692 q 561 578 531 629 q 660 661 600 631 q 800 692 721 692 q 1023 583 957 692 q 1089 319 1089 475 m 979 394 q 927 542 969 485 q 797 599 885 599 q 662 542 710 599 q 601 394 614 485 l 979 394 m 172 190 q 202 109 172 147 q 299 71 232 71 q 419 105 364 71 q 510 192 475 139 q 494 253 500 221 q 488 319 489 285 l 311 319 q 208 281 243 319 q 172 190 172 243 z "},"đ":{"ha":769,"x_min":68,"x_max":744,"o":"m 381 600 q 226 523 271 600 q 181 338 181 446 q 225 151 181 225 q 381 76 269 76 q 464 95 419 76 q 547 149 508 114 l 547 526 q 464 581 508 561 q 381 600 419 600 m 744 779 l 658 779 l 658 0 l 593 0 l 564 61 q 466 4 521 26 q 361 -18 411 -18 q 141 83 214 -18 q 68 336 68 183 q 142 592 68 492 q 364 693 217 693 q 457 674 407 693 q 547 625 507 656 l 547 779 l 394 779 l 383 858 l 547 858 l 547 967 l 658 979 l 658 858 l 733 858 l 744 779 z "},"œ":{"ha":1163,"x_min":68,"x_max":1101,"o":"m 1101 319 l 611 319 q 669 142 615 213 q 835 72 722 72 q 946 87 903 72 q 1028 119 989 101 q 1045 79 1036 100 q 1061 39 1054 58 q 950 -3 1019 10 q 838 -17 881 -17 q 722 -3 774 -17 q 631 38 671 11 q 531 -3 589 10 q 429 -17 472 -17 q 166 81 264 -17 q 68 335 68 179 q 165 590 68 490 q 429 690 263 690 q 527 677 469 690 q 628 636 585 664 q 710 677 664 663 q 811 692 756 692 q 1035 582 969 692 q 1101 319 1101 472 m 181 340 q 244 149 181 225 q 426 72 308 72 q 510 81 481 72 q 567 103 540 90 q 516 208 532 149 q 500 339 500 268 q 516 467 500 408 q 565 569 532 526 q 508 592 539 582 q 426 601 478 601 q 245 526 310 601 q 181 340 181 450 m 992 394 q 939 542 982 485 q 807 599 896 599 q 672 542 719 599 q 614 394 625 485 l 992 394 z "},"ĺ":{"ha":332,"x_min":111,"x_max":325,"o":"m 203 1154 l 325 1154 q 265 1071 294 1113 q 204 989 235 1029 l 121 989 q 162 1071 142 1029 q 203 1154 182 1113 m 111 0 l 111 935 l 221 951 l 221 0 l 111 0 z "},"ł":{"ha":332,"x_min":-42,"x_max":372,"o":"m 372 628 l 221 499 l 221 0 l 111 0 l 111 407 l 6 318 l -42 390 l 111 519 l 111 965 l 221 981 l 221 610 q 273 655 247 632 q 325 700 299 678 q 349 664 338 682 q 372 628 361 646 z "},"ı":{"ha":331,"x_min":110,"x_max":221,"o":"m 110 0 l 110 674 l 221 674 l 221 0 l 110 0 z "},"ø":{"ha":754,"x_min":68,"x_max":685,"o":"m 367 -18 q 143 83 218 -17 q 68 340 68 183 q 150 592 69 493 q 381 692 231 690 q 609 590 533 692 q 685 332 685 489 q 600 80 683 178 q 367 -18 517 -18 m 458 581 q 425 593 444 589 q 383 597 406 597 q 231 526 281 597 q 181 342 182 454 q 192 228 181 279 q 229 143 203 178 l 458 581 m 368 76 q 523 146 472 76 q 575 332 574 215 q 565 433 575 386 q 535 514 554 481 l 310 85 q 337 78 321 79 q 368 76 353 76 z "},"ģ":{"ha":769,"x_min":68,"x_max":658,"o":"m 364 776 q 311 801 333 776 q 289 867 289 825 q 329 992 289 932 q 424 1082 369 1053 l 454 1029 q 402 987 424 1011 q 375 928 381 963 q 421 903 401 926 q 440 854 440 881 q 417 800 440 824 q 364 776 394 776 m 547 526 q 463 581 508 561 q 379 600 418 600 q 226 523 271 600 q 181 338 181 446 q 224 150 181 225 q 379 75 268 75 q 463 94 418 75 q 547 149 508 114 l 547 526 m 658 -54 q 585 -231 658 -160 q 368 -301 513 -301 q 256 -285 326 -301 q 142 -239 185 -269 l 175 -160 q 258 -194 217 -178 q 365 -211 299 -211 q 498 -172 449 -211 q 547 -53 547 -132 l 547 50 q 456 1 507 19 q 361 -17 406 -17 q 141 83 214 -17 q 68 336 68 182 q 142 592 68 490 q 364 693 217 693 q 467 670 413 693 q 564 613 521 647 q 578 642 571 626 q 592 674 585 658 l 658 674 l 658 -54 z "},"À":{"ha":835,"x_min":8,"x_max":826,"o":"m 283 1243 l 404 1243 l 489 1026 l 406 1026 l 283 1243 m 410 799 l 244 357 l 581 357 l 410 799 m 464 944 l 826 17 l 717 0 l 613 268 l 214 268 l 115 0 l 8 0 l 357 944 l 464 944 z "},"Á":{"ha":835,"x_min":8,"x_max":826,"o":"m 414 1243 l 535 1243 l 413 1026 l 331 1026 l 414 1243 m 410 799 l 244 357 l 581 357 l 410 799 m 464 944 l 826 17 l 717 0 l 613 268 l 214 268 l 115 0 l 8 0 l 357 944 l 464 944 z "},"Â":{"ha":835,"x_min":8,"x_max":826,"o":"m 308 1026 l 203 1026 l 365 1243 l 453 1243 l 615 1026 l 510 1026 l 410 1163 l 308 1026 m 410 799 l 244 357 l 581 357 l 410 799 m 464 944 l 826 17 l 717 0 l 613 268 l 214 268 l 115 0 l 8 0 l 357 944 l 464 944 z "},"Ã":{"ha":835,"x_min":8,"x_max":825,"o":"m 533 1185 l 610 1185 q 573 1077 610 1107 q 485 1047 536 1047 q 401 1078 436 1047 q 331 1110 367 1110 q 298 1095 313 1110 q 281 1054 283 1081 l 204 1054 q 240 1161 204 1132 q 328 1190 276 1190 q 415 1160 383 1190 q 485 1129 447 1129 q 517 1143 503 1129 q 533 1185 531 1157 m 410 799 l 244 356 l 579 356 q 494 577 538 465 q 410 799 451 689 m 357 944 l 463 944 q 644 481 554 714 q 825 17 735 247 q 771 8 799 13 q 717 0 743 3 l 613 268 l 214 268 l 114 0 l 8 0 q 183 472 94 235 q 357 944 271 710 z "},"Ä":{"ha":835,"x_min":8,"x_max":826,"o":"m 296 1196 q 343 1176 324 1196 q 363 1129 363 1156 q 343 1081 363 1100 q 296 1061 324 1061 q 248 1081 268 1061 q 228 1129 228 1100 q 248 1176 228 1156 q 296 1196 268 1196 m 525 1196 q 573 1176 554 1196 q 592 1129 592 1156 q 573 1081 592 1100 q 525 1061 554 1061 q 477 1081 497 1061 q 457 1129 457 1100 q 477 1176 457 1156 q 525 1196 497 1196 m 410 799 l 244 357 l 581 357 l 410 799 m 464 944 l 826 17 l 717 0 l 613 268 l 214 268 l 115 0 l 8 0 l 357 944 l 464 944 z "},"Å":{"ha":835,"x_min":8,"x_max":826,"o":"m 410 1274 q 500 1238 461 1274 q 539 1151 539 1203 q 500 1067 539 1100 q 410 1033 461 1033 q 318 1067 357 1033 q 279 1151 279 1100 q 318 1238 279 1203 q 410 1274 357 1274 m 410 1094 q 451 1111 433 1094 q 469 1151 469 1128 q 451 1194 469 1176 q 410 1211 433 1211 q 367 1194 385 1211 q 350 1151 350 1176 q 367 1111 350 1128 q 410 1094 385 1094 m 410 799 l 244 357 l 581 357 l 410 799 m 464 944 l 826 17 l 717 0 l 613 268 l 214 268 l 115 0 l 8 0 l 357 944 l 464 944 z "},"Ă":{"ha":835,"x_min":8,"x_max":826,"o":"m 596 1231 q 552 1099 596 1157 q 410 1039 508 1040 q 267 1099 311 1040 q 224 1231 224 1157 l 303 1231 q 328 1157 303 1193 q 410 1121 354 1121 q 490 1157 463 1121 q 517 1231 517 1193 l 596 1231 m 410 799 l 244 357 l 581 357 l 410 799 m 464 944 l 826 17 l 717 0 l 613 268 l 214 268 l 115 0 l 8 0 l 357 944 l 464 944 z "},"Ą":{"ha":835,"x_min":8,"x_max":910,"o":"m 357 944 l 463 944 q 644 481 554 714 q 825 17 735 247 q 767 -56 797 -6 q 738 -140 738 -107 q 757 -190 738 -175 q 803 -204 776 -204 q 840 -197 821 -204 q 874 -176 858 -190 q 892 -210 883 -194 q 910 -244 901 -226 q 858 -276 888 -264 q 792 -287 828 -287 q 685 -248 726 -287 q 643 -147 643 -208 q 663 -65 643 -108 q 714 4 683 -21 q 663 135 689 69 q 613 268 638 201 l 214 268 l 114 0 l 8 0 q 183 472 94 235 q 357 944 271 710 m 410 799 l 244 356 l 579 356 q 494 577 538 465 q 410 799 451 689 z "},"Ā":{"ha":835,"x_min":8,"x_max":826,"o":"m 238 1175 l 581 1175 l 581 1088 l 238 1088 l 238 1175 m 410 799 l 244 357 l 581 357 l 410 799 m 464 944 l 826 17 l 717 0 l 613 268 l 214 268 l 115 0 l 8 0 l 357 944 l 464 944 z "},"Ç":{"ha":831,"x_min":96,"x_max":750,"o":"m 714 829 q 625 858 667 847 q 513 869 583 869 q 292 757 374 868 q 211 468 211 646 q 280 191 211 307 q 500 75 349 75 q 620 88 571 75 q 708 118 669 100 l 750 35 q 656 1 714 15 q 544 -18 599 -12 l 525 -67 q 601 -109 571 -75 q 632 -179 632 -143 q 583 -276 632 -244 q 472 -307 535 -307 q 414 -299 446 -307 q 363 -278 382 -290 l 388 -207 q 426 -222 401 -214 q 472 -229 451 -229 q 522 -217 499 -229 q 544 -182 544 -206 q 508 -136 544 -156 q 419 -111 472 -117 l 456 -17 q 181 141 265 0 q 96 467 96 282 q 202 820 96 676 q 513 964 308 964 q 630 951 556 964 q 749 910 704 939 l 714 829 z "},"Ć":{"ha":831,"x_min":96,"x_max":750,"o":"m 517 1243 l 639 1243 l 515 1026 l 433 1026 l 517 1243 m 714 829 q 625 858 667 847 q 513 869 583 869 q 292 757 374 868 q 211 468 211 646 q 280 191 211 307 q 500 75 349 75 q 620 88 571 75 q 708 118 669 100 l 750 35 q 635 -3 707 13 q 506 -19 564 -19 q 192 126 288 -19 q 96 467 96 271 q 202 820 96 676 q 513 964 308 964 q 630 951 556 964 q 749 910 704 939 l 714 829 z "},"Č":{"ha":831,"x_min":96,"x_max":750,"o":"m 304 1243 l 410 1243 l 511 1107 l 611 1243 l 717 1243 l 553 1026 l 467 1026 l 304 1243 m 714 829 q 625 858 667 847 q 513 869 583 869 q 292 757 374 868 q 211 468 211 646 q 280 191 211 307 q 500 75 349 75 q 620 88 571 75 q 708 118 669 100 l 750 35 q 635 -3 707 13 q 506 -19 564 -19 q 192 126 288 -19 q 96 467 96 271 q 202 820 96 676 q 513 964 308 964 q 630 951 556 964 q 749 910 704 939 l 714 829 z "},"Ď":{"ha":965,"x_min":138,"x_max":868,"o":"m 219 1242 l 325 1242 l 426 1106 l 526 1242 l 632 1242 l 469 1025 l 382 1025 l 219 1242 m 138 0 l 138 944 l 456 944 q 771 808 674 944 q 868 478 868 672 q 760 138 868 275 q 446 0 653 0 l 138 0 m 460 850 l 247 850 l 247 92 l 447 92 q 674 193 588 92 q 760 476 760 294 q 686 744 760 639 q 460 850 613 850 z "},"È":{"ha":747,"x_min":138,"x_max":707,"o":"m 269 1242 l 390 1242 l 474 1026 l 390 1026 l 269 1242 m 138 0 l 138 944 l 654 944 q 660 903 657 924 q 667 861 663 882 l 247 861 l 247 524 l 519 524 q 525 482 522 503 q 532 440 528 461 l 247 440 l 247 86 l 694 86 l 707 0 l 138 0 z "},"É":{"ha":747,"x_min":138,"x_max":707,"o":"m 399 1242 l 521 1242 l 399 1026 l 315 1026 l 399 1242 m 138 0 l 138 944 l 654 944 q 660 903 657 924 q 667 861 663 882 l 247 861 l 247 524 l 519 524 q 525 482 522 503 q 532 440 528 461 l 247 440 l 247 86 l 694 86 l 707 0 l 138 0 z "},"Ê":{"ha":747,"x_min":138,"x_max":707,"o":"m 293 1026 l 189 1026 l 350 1242 l 438 1242 l 601 1026 l 494 1026 q 445 1094 469 1060 q 394 1163 421 1128 q 344 1094 369 1128 q 293 1026 319 1060 m 138 0 l 138 944 l 654 944 q 660 903 657 924 q 667 861 663 882 l 247 861 l 247 524 l 519 524 q 525 482 522 503 q 532 440 528 461 l 247 440 l 247 86 l 694 86 l 707 0 l 138 0 z "},"Ë":{"ha":747,"x_min":138,"x_max":707,"o":"m 510 1196 q 558 1176 539 1196 q 578 1129 578 1156 q 558 1081 578 1100 q 510 1061 539 1061 q 463 1081 483 1061 q 443 1129 443 1100 q 463 1176 443 1156 q 510 1196 483 1196 m 281 1196 q 329 1176 310 1196 q 349 1129 349 1156 q 329 1081 349 1100 q 281 1061 310 1061 q 233 1081 254 1061 q 213 1129 213 1100 q 233 1176 213 1156 q 281 1196 254 1196 m 138 0 l 138 944 l 654 944 q 660 903 657 924 q 667 861 663 882 l 247 861 l 247 524 l 519 524 q 525 482 522 503 q 532 440 528 461 l 247 440 l 247 86 l 694 86 l 707 0 l 138 0 z "},"Ē":{"ha":747,"x_min":138,"x_max":707,"o":"m 224 1174 l 565 1174 l 565 1088 l 224 1088 l 224 1174 m 138 0 l 138 944 l 654 944 q 660 903 657 924 q 667 861 663 882 l 247 861 l 247 524 l 519 524 q 525 482 522 503 q 532 440 528 461 l 247 440 l 247 86 l 694 86 l 707 0 l 138 0 z "},"Ė":{"ha":747,"x_min":138,"x_max":707,"o":"m 394 1208 q 447 1186 425 1208 q 469 1133 469 1164 q 447 1080 469 1101 q 394 1058 425 1058 q 342 1080 364 1058 q 319 1133 319 1101 q 342 1186 319 1164 q 394 1208 364 1208 m 138 0 l 138 944 l 654 944 q 660 903 657 924 q 667 861 663 882 l 247 861 l 247 524 l 519 524 q 525 482 522 503 q 532 440 528 461 l 247 440 l 247 86 l 694 86 l 707 0 l 138 0 z "},"Ę":{"ha":747,"x_min":138,"x_max":710,"o":"m 138 0 l 138 944 l 654 944 q 660 903 657 924 q 667 861 663 882 l 247 861 l 247 524 l 519 524 q 525 482 522 503 q 532 440 528 461 l 247 440 l 247 86 l 694 86 l 707 0 l 621 0 q 564 -66 590 -24 q 538 -140 538 -108 q 557 -190 538 -175 q 603 -204 576 -204 q 639 -197 621 -204 q 674 -176 657 -190 q 692 -210 682 -194 q 710 -244 701 -226 q 657 -276 688 -264 q 590 -287 626 -287 q 484 -248 526 -287 q 442 -147 442 -208 q 460 -69 442 -111 q 508 0 479 -26 l 138 0 z "},"Ě":{"ha":747,"x_min":138,"x_max":707,"o":"m 186 1242 l 292 1242 q 342 1175 317 1208 q 393 1107 368 1142 l 493 1242 l 599 1242 l 436 1026 l 349 1026 l 186 1242 m 138 0 l 138 944 l 654 944 q 660 903 657 924 q 667 861 663 882 l 247 861 l 247 524 l 519 524 q 525 482 522 503 q 532 440 528 461 l 247 440 l 247 86 l 694 86 l 707 0 l 138 0 z "},"Ğ":{"ha":913,"x_min":96,"x_max":807,"o":"m 740 1231 q 697 1099 740 1157 q 554 1039 653 1040 q 412 1099 456 1040 q 368 1231 368 1157 l 447 1231 q 473 1157 447 1193 q 554 1121 499 1121 q 634 1157 607 1121 q 661 1231 661 1193 l 740 1231 m 503 485 l 807 485 l 807 68 q 806 57 807 63 q 806 46 806 51 l 807 44 q 686 -1 764 18 q 542 -19 608 -19 q 210 120 325 -19 q 96 467 96 260 q 222 826 96 689 q 554 964 347 964 q 672 951 597 964 q 792 910 747 938 l 757 829 q 669 858 710 847 q 557 869 628 869 q 313 765 414 869 q 211 468 211 661 q 299 181 211 286 q 540 75 388 75 q 629 84 589 75 q 701 103 669 93 l 701 403 l 493 403 q 497 444 494 424 q 503 485 500 465 z "},"Ì":{"ha":386,"x_min":67,"x_max":272,"o":"m 67 1242 l 188 1242 l 272 1026 l 189 1026 l 67 1242 m 138 0 l 138 944 l 247 944 l 247 0 l 138 0 z "},"Í":{"ha":386,"x_min":114,"x_max":318,"o":"m 197 1242 l 318 1242 l 196 1026 l 114 1026 l 197 1242 m 138 0 l 138 944 l 247 944 l 247 0 l 138 0 z "},"Î":{"ha":386,"x_min":-12,"x_max":399,"o":"m 92 1026 l -12 1026 q 67 1134 26 1081 q 149 1242 108 1188 l 235 1242 l 399 1026 l 293 1026 q 242 1094 267 1060 q 193 1163 218 1128 l 92 1026 m 138 0 l 138 944 l 247 944 l 247 0 l 138 0 z "},"Ï":{"ha":386,"x_min":11,"x_max":375,"o":"m 308 1196 q 356 1176 338 1196 q 375 1129 375 1156 q 356 1081 375 1100 q 308 1061 338 1061 q 260 1081 281 1061 q 240 1129 240 1100 q 260 1176 240 1156 q 308 1196 281 1196 m 78 1196 q 126 1176 107 1196 q 146 1129 146 1156 q 126 1081 146 1100 q 78 1061 107 1061 q 31 1081 51 1061 q 11 1129 11 1100 q 31 1176 11 1156 q 78 1196 51 1196 m 138 0 l 138 944 l 247 944 l 247 0 l 138 0 z "},"Ī":{"ha":386,"x_min":21,"x_max":363,"o":"m 21 1174 l 363 1174 l 363 1088 l 21 1088 l 21 1174 m 138 0 l 138 944 l 247 944 l 247 0 l 138 0 z "},"Į":{"ha":386,"x_min":69,"x_max":336,"o":"m 138 4 l 138 944 l 247 944 l 247 0 q 192 -64 221 -21 q 164 -140 164 -107 q 183 -190 164 -175 q 229 -204 203 -204 q 266 -197 247 -204 q 300 -176 285 -190 q 319 -210 310 -194 q 336 -244 328 -226 q 284 -276 314 -264 q 218 -287 254 -287 q 111 -248 153 -287 q 69 -147 69 -208 q 90 -66 69 -108 q 138 4 110 -24 z "},"İ":{"ha":386,"x_min":117,"x_max":267,"o":"m 193 1208 q 245 1186 224 1208 q 267 1133 267 1164 q 245 1080 267 1101 q 193 1058 224 1058 q 139 1080 161 1058 q 117 1133 117 1101 q 139 1186 117 1164 q 193 1208 161 1208 m 138 0 l 138 944 l 247 944 l 247 0 l 138 0 z "},"Ĺ":{"ha":717,"x_min":139,"x_max":692,"o":"m 260 1243 l 382 1243 l 258 1026 l 176 1026 l 260 1243 m 692 0 l 139 0 l 139 944 l 247 944 l 247 88 l 679 88 l 692 0 z "},"Ľ":{"ha":717,"x_min":139,"x_max":692,"o":"m 496 989 q 549 965 526 989 q 571 900 571 940 q 530 769 571 835 q 429 672 489 703 l 401 724 q 456 774 433 749 q 482 839 478 800 q 438 863 457 840 q 419 913 419 885 q 442 966 419 943 q 496 989 464 989 m 692 0 l 139 0 l 139 944 l 247 944 l 247 88 l 679 88 l 692 0 z "},"Ñ":{"ha":990,"x_min":138,"x_max":853,"o":"m 635 1185 l 711 1185 q 675 1077 711 1107 q 586 1047 639 1047 q 503 1078 539 1047 q 433 1110 468 1110 q 400 1095 415 1110 q 383 1054 385 1081 l 306 1054 q 342 1161 306 1132 q 429 1190 378 1190 q 518 1160 486 1190 q 586 1129 550 1129 q 619 1143 604 1129 q 635 1185 633 1157 m 138 0 l 138 944 l 225 944 l 685 306 l 742 213 l 742 944 l 853 944 l 853 0 l 765 0 l 283 679 l 247 740 l 247 0 l 138 0 z "},"Ń":{"ha":990,"x_min":138,"x_max":853,"o":"m 515 1242 l 638 1242 l 514 1026 l 432 1026 l 515 1242 m 138 0 l 138 944 l 225 944 l 685 306 l 742 213 l 742 944 l 853 944 l 853 0 l 765 0 l 283 679 l 247 740 l 247 0 l 138 0 z "},"Ň":{"ha":990,"x_min":138,"x_max":853,"o":"m 303 1242 l 408 1242 l 510 1107 q 559 1175 535 1142 q 610 1242 583 1208 l 715 1242 l 551 1026 l 465 1026 l 303 1242 m 138 0 l 138 944 l 225 944 l 685 306 l 742 213 l 742 944 l 853 944 l 853 0 l 765 0 l 283 679 l 247 740 l 247 0 l 138 0 z "},"Ò":{"ha":1024,"x_min":96,"x_max":929,"o":"m 389 1243 l 510 1243 l 594 1026 l 511 1026 l 389 1243 m 96 468 q 203 820 96 678 q 515 967 310 963 q 831 820 733 967 q 929 479 929 674 q 822 130 929 276 q 508 -19 714 -17 q 193 127 290 -19 q 96 468 96 274 m 211 469 q 282 190 211 306 q 506 75 353 75 q 728 185 646 75 q 811 478 811 296 q 740 756 811 642 q 517 869 669 869 q 294 758 378 869 q 211 469 211 646 z "},"Ó":{"ha":1024,"x_min":96,"x_max":929,"o":"m 519 1243 l 640 1243 l 518 1026 l 436 1026 l 519 1243 m 96 468 q 203 820 96 678 q 515 967 310 963 q 831 820 733 967 q 929 479 929 674 q 822 130 929 276 q 508 -19 714 -17 q 193 127 290 -19 q 96 468 96 274 m 211 469 q 282 190 211 306 q 506 75 353 75 q 728 185 646 75 q 811 478 811 296 q 740 756 811 642 q 517 869 669 869 q 294 758 378 869 q 211 469 211 646 z "},"Ô":{"ha":1024,"x_min":96,"x_max":929,"o":"m 414 1026 l 308 1026 l 471 1243 l 557 1243 l 721 1026 l 615 1026 l 515 1163 l 414 1026 m 96 468 q 203 820 96 678 q 515 967 310 963 q 831 820 733 967 q 929 479 929 674 q 822 130 929 276 q 508 -19 714 -17 q 193 127 290 -19 q 96 468 96 274 m 211 469 q 282 190 211 306 q 506 75 353 75 q 728 185 646 75 q 811 478 811 296 q 740 756 811 642 q 517 869 669 869 q 294 758 378 869 q 211 469 211 646 z "},"Õ":{"ha":1024,"x_min":96,"x_max":929,"o":"m 639 1185 l 714 1185 q 678 1077 714 1107 q 590 1047 642 1047 q 507 1078 542 1047 q 436 1110 472 1110 q 403 1095 418 1110 q 386 1054 388 1081 l 310 1054 l 310 1064 q 347 1163 310 1135 q 433 1190 385 1190 q 521 1160 489 1190 q 589 1129 553 1129 q 622 1143 607 1129 q 639 1185 636 1157 m 514 967 q 831 820 732 967 q 929 478 929 674 q 822 131 929 276 q 508 -19 714 -15 q 193 127 290 -19 q 96 468 96 274 q 203 820 96 678 q 514 967 310 963 m 211 469 q 282 190 211 306 q 506 75 353 75 q 728 185 646 75 q 811 478 811 296 q 740 755 811 640 q 517 869 669 869 q 294 758 378 869 q 211 469 211 646 z "},"Ö":{"ha":1024,"x_min":96,"x_max":929,"o":"m 400 1196 q 449 1176 429 1196 q 468 1129 468 1156 q 449 1081 468 1100 q 400 1061 429 1061 q 353 1081 374 1061 q 333 1129 333 1100 q 353 1176 333 1156 q 400 1196 374 1196 m 631 1196 q 678 1176 660 1196 q 697 1129 697 1156 q 678 1081 697 1100 q 631 1061 660 1061 q 583 1081 603 1061 q 563 1129 563 1100 q 583 1176 563 1156 q 631 1196 603 1196 m 96 468 q 203 820 96 678 q 515 967 310 963 q 831 820 733 967 q 929 479 929 674 q 822 130 929 276 q 508 -19 714 -17 q 193 127 290 -19 q 96 468 96 274 m 211 469 q 282 190 211 306 q 506 75 353 75 q 728 185 646 75 q 811 478 811 296 q 740 756 811 642 q 517 869 669 869 q 294 758 378 869 q 211 469 211 646 z "},"Ō":{"ha":1024,"x_min":96,"x_max":929,"o":"m 343 1175 l 685 1175 l 685 1088 l 343 1088 l 343 1175 m 96 468 q 203 820 96 678 q 515 967 310 963 q 831 820 733 967 q 929 479 929 674 q 822 130 929 276 q 508 -19 714 -17 q 193 127 290 -19 q 96 468 96 274 m 211 469 q 282 190 211 306 q 506 75 353 75 q 728 185 646 75 q 811 478 811 296 q 740 756 811 642 q 517 869 669 869 q 294 758 378 869 q 211 469 211 646 z "},"Ő":{"ha":1024,"x_min":96,"x_max":929,"o":"m 632 1243 l 749 1243 l 628 1026 l 550 1026 l 632 1243 m 439 1243 l 554 1243 l 431 1026 l 356 1026 l 439 1243 m 96 468 q 203 820 96 678 q 515 967 310 963 q 831 820 733 967 q 929 479 929 674 q 822 130 929 276 q 508 -19 714 -17 q 193 127 290 -19 q 96 468 96 274 m 211 469 q 282 190 211 306 q 506 75 353 75 q 728 185 646 75 q 811 478 811 296 q 740 756 811 642 q 517 869 669 869 q 294 758 378 869 q 211 469 211 646 z "},"Ŕ":{"ha":876,"x_min":139,"x_max":818,"o":"m 399 1243 l 521 1243 l 397 1026 l 315 1026 l 399 1243 m 396 851 l 247 851 l 247 478 l 386 478 q 558 518 486 478 q 631 665 631 558 q 565 814 631 776 q 396 851 500 851 m 697 0 l 479 393 q 431 389 456 390 q 381 388 407 388 l 247 388 l 247 0 l 139 0 l 139 944 l 396 944 q 644 881 544 944 q 744 669 744 818 q 697 513 743 574 q 576 422 650 453 l 818 0 l 697 0 z "},"Ř":{"ha":876,"x_min":139,"x_max":818,"o":"m 188 1243 l 293 1243 l 394 1107 l 494 1243 l 600 1243 l 436 1026 l 350 1026 l 188 1243 m 396 851 l 247 851 l 247 478 l 386 478 q 558 518 486 478 q 631 665 631 558 q 565 814 631 776 q 396 851 500 851 m 697 0 l 479 393 q 431 389 456 390 q 381 388 407 388 l 247 388 l 247 0 l 139 0 l 139 944 l 396 944 q 644 881 544 944 q 744 669 744 818 q 697 513 743 574 q 576 422 650 453 l 818 0 l 697 0 z "},"Ś":{"ha":747,"x_min":69,"x_max":678,"o":"m 369 1242 l 490 1242 l 368 1026 l 286 1026 l 369 1242 m 111 132 q 212 94 149 114 q 343 75 275 75 q 511 117 453 75 q 569 228 569 160 q 319 446 569 378 q 69 728 69 514 q 150 897 69 828 q 371 967 231 967 q 505 949 442 967 q 613 908 568 931 q 594 865 604 886 q 575 822 585 844 q 493 856 539 840 q 378 871 447 871 q 233 835 290 871 q 176 731 176 799 q 427 507 176 576 q 678 231 678 438 q 591 52 678 122 q 344 -18 504 -18 q 198 3 285 -18 q 85 46 111 24 q 97 88 90 67 q 111 132 104 110 z "},"Š":{"ha":747,"x_min":69,"x_max":678,"o":"m 171 1242 l 275 1242 q 326 1175 301 1208 q 376 1107 351 1142 l 476 1242 l 583 1242 l 419 1026 l 332 1026 l 171 1242 m 111 132 q 212 94 149 114 q 343 75 275 75 q 511 117 453 75 q 569 228 569 160 q 319 446 569 378 q 69 728 69 514 q 150 897 69 828 q 371 967 231 967 q 505 949 442 967 q 613 908 568 931 q 594 865 604 886 q 575 822 585 844 q 493 856 539 840 q 378 871 447 871 q 233 835 290 871 q 176 731 176 799 q 427 507 176 576 q 678 231 678 438 q 591 52 678 122 q 344 -18 504 -18 q 198 3 285 -18 q 85 46 111 24 q 97 88 90 67 q 111 132 104 110 z "},"Ť":{"ha":738,"x_min":13,"x_max":724,"o":"m 163 1242 l 267 1242 q 318 1175 293 1208 q 368 1107 343 1142 l 468 1242 l 575 1242 l 411 1026 l 324 1026 l 163 1242 m 724 857 l 419 857 l 419 0 l 308 0 l 308 857 l 13 857 l 13 944 l 711 944 l 724 857 z "},"Ù":{"ha":961,"x_min":125,"x_max":835,"o":"m 357 1242 l 478 1242 l 563 1026 l 479 1026 l 357 1242 m 235 347 q 301 151 235 226 q 479 75 367 75 q 660 151 596 75 q 724 347 724 228 l 724 944 l 835 944 l 835 335 q 740 83 835 182 q 479 -15 644 -15 q 220 83 315 -15 q 125 335 125 182 l 125 944 l 235 944 l 235 347 z "},"Ú":{"ha":961,"x_min":125,"x_max":835,"o":"m 476 1242 l 599 1242 l 476 1026 l 393 1026 l 476 1242 m 235 347 q 301 151 235 226 q 479 75 367 75 q 660 151 596 75 q 724 347 724 228 l 724 944 l 835 944 l 835 335 q 740 83 835 182 q 479 -15 644 -15 q 220 83 315 -15 q 125 335 125 182 l 125 944 l 235 944 l 235 347 z "},"Û":{"ha":961,"x_min":125,"x_max":835,"o":"m 379 1026 l 274 1026 l 436 1242 l 524 1242 l 686 1026 l 581 1026 l 481 1163 l 379 1026 m 235 347 q 301 151 235 226 q 479 75 367 75 q 660 151 596 75 q 724 347 724 228 l 724 944 l 835 944 l 835 335 q 740 83 835 182 q 479 -15 644 -15 q 220 83 315 -15 q 125 335 125 182 l 125 944 l 235 944 l 235 347 z "},"Ü":{"ha":961,"x_min":125,"x_max":835,"o":"m 594 1196 q 643 1176 624 1196 q 663 1129 663 1156 q 643 1081 663 1100 q 594 1061 624 1061 q 548 1081 568 1061 q 528 1129 528 1100 q 548 1176 528 1156 q 594 1196 568 1196 m 365 1196 q 414 1176 394 1196 q 433 1129 433 1156 q 414 1081 433 1100 q 365 1061 394 1061 q 318 1081 339 1061 q 297 1129 297 1100 q 318 1176 297 1156 q 365 1196 339 1196 m 235 347 q 301 151 235 226 q 479 75 367 75 q 660 151 596 75 q 724 347 724 228 l 724 944 l 835 944 l 835 335 q 740 83 835 182 q 479 -15 644 -15 q 220 83 315 -15 q 125 335 125 182 l 125 944 l 235 944 l 235 347 z "},"Ū":{"ha":961,"x_min":125,"x_max":835,"o":"m 308 1174 l 651 1174 l 651 1088 l 308 1088 l 308 1174 m 235 347 q 301 151 235 226 q 479 75 367 75 q 660 151 596 75 q 724 347 724 228 l 724 944 l 835 944 l 835 335 q 740 83 835 182 q 479 -15 644 -15 q 220 83 315 -15 q 125 335 125 182 l 125 944 l 235 944 l 235 347 z "},"Ů":{"ha":961,"x_min":125,"x_max":835,"o":"m 479 1274 q 569 1238 531 1274 q 608 1151 608 1203 q 569 1067 608 1100 q 479 1033 531 1033 q 388 1067 426 1033 q 349 1151 349 1100 q 388 1238 349 1203 q 479 1274 426 1274 m 479 1093 q 521 1110 503 1093 q 539 1151 539 1128 q 521 1194 539 1176 q 479 1211 503 1211 q 437 1194 454 1211 q 419 1151 419 1176 q 437 1110 419 1128 q 479 1093 454 1093 m 235 347 q 301 151 235 226 q 479 75 367 75 q 660 151 596 75 q 724 347 724 228 l 724 944 l 835 944 l 835 335 q 740 83 835 182 q 479 -15 644 -15 q 220 83 315 -15 q 125 335 125 182 l 125 944 l 235 944 l 235 347 z "},"Ű":{"ha":961,"x_min":125,"x_max":835,"o":"m 593 1242 l 710 1242 l 589 1026 l 511 1026 l 593 1242 m 400 1242 l 515 1242 l 392 1026 l 317 1026 l 400 1242 m 235 347 q 301 151 235 226 q 479 75 367 75 q 660 151 596 75 q 724 347 724 228 l 724 944 l 835 944 l 835 335 q 740 83 835 182 q 479 -15 644 -15 q 220 83 315 -15 q 125 335 125 182 l 125 944 l 235 944 l 235 347 z "},"Ų":{"ha":961,"x_min":125,"x_max":835,"o":"m 235 347 q 301 151 235 226 q 479 75 367 75 q 660 151 596 75 q 724 347 724 228 l 724 944 l 835 944 l 835 335 q 770 119 835 210 q 589 -1 706 28 q 533 -68 558 -26 q 508 -140 508 -110 q 528 -190 508 -175 q 574 -204 547 -204 q 611 -197 593 -204 q 646 -176 629 -190 q 663 -210 654 -194 q 681 -244 672 -226 q 629 -276 660 -264 q 563 -287 599 -287 q 456 -248 497 -287 q 414 -147 414 -208 q 428 -79 414 -115 q 464 -15 442 -43 q 216 88 307 -10 q 125 335 125 186 l 125 944 l 235 944 l 235 347 z "},"Ý":{"ha":779,"x_min":8,"x_max":772,"o":"m 386 1243 l 507 1243 l 385 1026 l 303 1026 l 386 1243 m 331 0 l 332 379 l 8 926 l 122 944 l 386 488 l 656 944 l 772 944 l 443 385 l 442 0 l 331 0 z "},"Ÿ":{"ha":779,"x_min":8,"x_max":772,"o":"m 274 1196 q 322 1176 303 1196 q 342 1129 342 1156 q 322 1081 342 1100 q 274 1061 303 1061 q 227 1081 247 1061 q 207 1129 207 1100 q 227 1176 207 1156 q 274 1196 247 1196 m 504 1196 q 552 1176 533 1196 q 571 1129 571 1156 q 552 1081 571 1100 q 504 1061 533 1061 q 456 1081 476 1061 q 436 1129 436 1100 q 456 1176 436 1156 q 504 1196 476 1196 m 331 0 l 332 379 l 8 926 l 122 944 l 386 488 l 656 944 l 772 944 l 443 385 l 442 0 l 331 0 z "},"Ź":{"ha":790,"x_min":31,"x_max":749,"o":"m 400 1242 l 521 1242 l 399 1026 l 317 1026 l 400 1242 m 736 0 l 43 0 l 31 86 q 328 472 179 279 q 626 857 478 665 l 85 857 q 77 901 82 879 q 69 944 72 922 l 738 944 l 749 857 q 450 472 600 665 q 151 86 300 279 l 725 86 l 736 0 z "},"Ż":{"ha":790,"x_min":31,"x_max":749,"o":"m 403 1208 q 455 1186 433 1208 q 476 1133 476 1164 q 455 1080 476 1101 q 403 1058 433 1058 q 349 1080 371 1058 q 326 1133 326 1101 q 349 1186 326 1164 q 403 1208 371 1208 m 736 0 l 43 0 l 31 86 q 328 472 179 279 q 626 857 478 665 l 85 857 q 77 901 82 879 q 69 944 72 922 l 738 944 l 749 857 q 450 472 600 665 q 151 86 300 279 l 725 86 l 736 0 z "},"Ž":{"ha":790,"x_min":31,"x_max":749,"o":"m 194 1242 l 300 1242 l 401 1107 q 451 1175 426 1142 q 501 1242 475 1208 l 607 1242 l 443 1026 l 357 1026 l 194 1242 m 736 0 l 43 0 l 31 86 q 328 472 179 279 q 626 857 478 665 l 85 857 q 77 901 82 879 q 69 944 72 922 l 738 944 l 749 857 q 450 472 600 665 q 151 86 300 279 l 725 86 l 736 0 z "},"Ş":{"ha":747,"x_min":69,"x_max":678,"o":"m 111 132 q 212 94 149 114 q 343 75 275 75 q 511 117 453 75 q 569 228 569 160 q 319 446 569 378 q 69 728 69 514 q 150 897 69 828 q 371 967 231 967 q 505 949 442 967 q 613 908 568 931 q 594 865 604 886 q 575 822 585 844 q 491 856 538 840 q 374 872 444 872 q 230 835 283 872 q 176 731 176 797 q 427 507 176 576 q 678 231 678 438 q 601 61 678 129 q 385 -15 525 -7 q 376 -40 381 -28 q 365 -65 371 -53 q 440 -108 408 -75 q 472 -178 472 -142 q 424 -276 472 -244 q 313 -307 375 -307 q 254 -299 286 -307 q 201 -276 222 -290 l 228 -207 q 267 -221 242 -214 q 313 -228 293 -228 q 360 -216 338 -228 q 382 -181 382 -204 q 347 -135 382 -154 q 260 -110 313 -115 q 279 -62 269 -86 q 297 -14 289 -37 q 172 10 238 -8 q 85 46 106 28 q 97 88 90 67 q 111 132 104 110 z "},"Ģ":{"ha":913,"x_min":96,"x_max":807,"o":"m 503 485 l 807 485 l 807 65 q 806 55 807 60 q 806 46 806 50 l 807 44 q 699 2 768 19 q 568 -18 629 -15 l 549 -65 q 625 -108 594 -75 q 656 -178 656 -142 q 607 -276 656 -244 q 496 -307 558 -307 q 438 -299 469 -307 q 385 -276 406 -290 q 399 -242 392 -260 q 411 -207 406 -225 q 451 -221 425 -214 q 496 -228 476 -228 q 544 -216 521 -228 q 567 -181 567 -204 q 532 -135 567 -154 q 443 -110 497 -115 q 463 -62 453 -87 q 481 -15 472 -37 q 194 140 293 4 q 96 467 96 275 q 222 826 96 689 q 554 964 347 964 q 672 951 597 964 q 792 910 747 938 l 757 829 q 669 858 710 847 q 557 869 628 869 q 313 765 414 869 q 211 468 211 661 q 299 181 211 286 q 540 75 388 75 q 629 84 589 75 q 701 103 669 93 l 701 403 l 493 403 q 497 444 494 424 q 503 485 500 465 z "},"Ķ":{"ha":849,"x_min":133,"x_max":838,"o":"m 704 0 l 346 460 l 243 342 l 243 0 l 133 0 l 133 944 l 243 944 l 243 486 q 447 726 344 606 q 650 965 550 846 q 688 933 668 949 q 725 900 707 917 q 571 720 649 810 q 415 542 493 631 l 838 0 l 704 0 m 469 -29 q 522 -53 500 -29 q 543 -117 543 -76 q 503 -244 543 -182 q 407 -332 463 -306 l 379 -281 q 430 -237 407 -262 q 457 -178 453 -212 q 410 -154 429 -176 q 392 -104 392 -132 q 415 -51 392 -74 q 469 -29 439 -29 z "},"Ļ":{"ha":717,"x_min":139,"x_max":692,"o":"m 692 0 l 139 0 l 139 944 l 247 944 l 247 88 l 679 88 l 692 0 m 432 -29 q 486 -53 464 -29 q 508 -117 508 -76 q 468 -244 508 -183 q 372 -333 428 -306 l 343 -281 q 394 -238 372 -262 q 421 -179 415 -214 q 376 -155 394 -178 q 357 -106 357 -132 q 379 -52 357 -75 q 432 -29 401 -29 z "},"Ņ":{"ha":990,"x_min":138,"x_max":853,"o":"m 138 0 l 138 944 l 225 944 l 685 306 l 742 213 l 742 944 l 853 944 l 853 0 l 765 0 l 283 679 l 247 740 l 247 0 l 138 0 m 501 -28 q 555 -52 533 -28 q 576 -115 576 -76 q 536 -242 576 -182 q 440 -331 496 -303 l 411 -279 q 463 -237 440 -261 q 490 -178 486 -212 q 445 -153 464 -175 q 426 -103 426 -131 q 449 -50 426 -72 q 501 -28 471 -28 z "},"Ŗ":{"ha":876,"x_min":139,"x_max":818,"o":"m 396 851 l 247 851 l 247 478 l 386 478 q 558 518 486 478 q 631 665 631 558 q 565 814 631 776 q 396 851 500 851 m 697 0 l 479 393 q 431 389 456 390 q 381 388 407 388 l 247 388 l 247 0 l 139 0 l 139 944 l 396 944 q 644 881 544 944 q 744 669 744 818 q 697 513 743 574 q 576 422 650 453 l 818 0 l 697 0 m 451 -29 q 506 -53 483 -29 q 528 -117 528 -76 q 487 -244 528 -183 q 390 -333 446 -306 l 361 -281 q 414 -238 392 -262 q 440 -179 436 -214 q 395 -155 414 -178 q 376 -106 376 -132 q 398 -52 376 -75 q 451 -29 419 -29 z "},"Ţ":{"ha":738,"x_min":13,"x_max":724,"o":"m 724 857 l 419 857 l 419 0 l 407 0 l 379 -65 q 456 -108 425 -75 q 486 -178 486 -142 q 438 -276 486 -244 q 328 -307 390 -307 q 269 -299 301 -307 q 217 -276 236 -290 q 231 -242 224 -260 q 243 -207 238 -225 q 281 -221 257 -214 q 328 -228 306 -228 q 376 -216 353 -228 q 399 -181 399 -204 q 363 -135 399 -154 q 275 -110 328 -115 l 319 0 l 308 0 l 308 857 l 13 857 l 13 944 l 711 944 l 724 857 z "},"Ș":{"ha":747,"x_min":69,"x_max":678,"o":"m 111 132 q 212 94 149 114 q 343 75 275 75 q 511 117 453 75 q 569 228 569 160 q 319 446 569 378 q 69 728 69 514 q 150 897 69 828 q 371 967 231 967 q 505 949 442 967 q 613 908 568 931 q 594 865 604 886 q 575 822 585 844 q 493 856 539 840 q 378 871 447 871 q 233 835 290 871 q 176 731 176 799 q 427 507 176 576 q 678 231 678 438 q 591 52 678 122 q 344 -18 504 -18 q 198 3 285 -18 q 85 46 111 24 q 97 88 90 67 q 111 132 104 110 m 343 -29 q 396 -53 374 -29 q 418 -117 418 -76 q 378 -244 418 -182 q 283 -332 339 -306 l 254 -281 q 306 -237 283 -262 q 332 -178 328 -212 q 287 -154 306 -176 q 268 -104 268 -132 q 290 -51 268 -74 q 343 -29 313 -29 z "},"Ț":{"ha":738,"x_min":13,"x_max":724,"o":"m 724 857 l 419 857 l 419 0 l 308 0 l 308 857 l 13 857 l 13 944 l 711 944 l 724 857 m 365 -29 q 418 -53 396 -29 q 440 -117 440 -76 q 400 -244 440 -182 q 304 -332 360 -306 q 290 -306 297 -319 q 274 -281 282 -293 q 326 -237 304 -262 q 354 -178 349 -212 q 307 -154 326 -176 q 288 -104 288 -132 q 311 -51 288 -74 q 365 -29 335 -29 z "},"à":{"ha":700,"x_min":71,"x_max":599,"o":"m 211 1033 l 333 1033 l 417 818 l 333 818 l 211 1033 m 172 192 q 202 110 172 149 q 299 71 232 71 q 406 100 357 71 q 489 169 454 129 l 489 324 l 311 324 q 208 284 243 324 q 172 192 172 244 m 114 632 q 224 675 153 658 q 336 692 294 692 q 526 628 453 692 q 599 464 599 565 l 599 0 l 532 0 l 503 68 q 413 10 468 36 q 301 -17 357 -17 q 128 42 185 -17 q 71 192 71 101 q 138 344 71 292 q 314 396 206 396 l 488 396 q 461 538 488 479 q 340 596 435 596 q 228 581 272 596 q 146 549 183 565 q 131 590 139 569 q 114 632 122 611 z "},"á":{"ha":700,"x_min":71,"x_max":599,"o":"m 343 1033 l 463 1033 l 342 818 l 258 818 l 343 1033 m 172 192 q 202 110 172 149 q 299 71 232 71 q 406 100 357 71 q 489 169 454 129 l 489 324 l 311 324 q 208 284 243 324 q 172 192 172 244 m 114 632 q 224 675 153 658 q 336 692 294 692 q 526 628 453 692 q 599 464 599 565 l 599 0 l 532 0 l 503 68 q 413 10 468 36 q 301 -17 357 -17 q 128 42 185 -17 q 71 192 71 101 q 138 344 71 292 q 314 396 206 396 l 488 396 q 461 538 488 479 q 340 596 435 596 q 228 581 272 596 q 146 549 183 565 q 131 590 139 569 q 114 632 122 611 z "},"â":{"ha":700,"x_min":71,"x_max":599,"o":"m 243 818 l 138 818 l 301 1033 l 386 1033 l 550 818 l 446 818 l 344 954 l 243 818 m 172 192 q 202 110 172 149 q 299 71 232 71 q 406 100 357 71 q 489 169 454 129 l 489 324 l 311 324 q 208 284 243 324 q 172 192 172 244 m 114 632 q 224 675 153 658 q 336 692 294 692 q 526 628 453 692 q 599 464 599 565 l 599 0 l 532 0 l 503 68 q 413 10 468 36 q 301 -17 357 -17 q 128 42 185 -17 q 71 192 71 101 q 138 344 71 292 q 314 396 206 396 l 488 396 q 461 538 488 479 q 340 596 435 596 q 228 581 272 596 q 146 549 183 565 q 131 590 139 569 q 114 632 122 611 z "},"ã":{"ha":700,"x_min":71,"x_max":599,"o":"m 465 976 l 542 976 q 504 869 542 899 q 415 839 467 839 q 333 870 368 839 q 263 901 299 901 q 230 887 244 901 q 214 846 215 872 l 135 846 q 172 953 135 924 q 260 982 208 982 q 348 951 317 982 q 415 921 379 921 q 448 935 433 921 q 465 976 463 949 m 172 192 q 202 110 172 149 q 299 71 232 71 q 406 100 357 71 q 489 169 454 129 l 489 324 l 311 324 q 208 284 243 324 q 172 192 172 244 m 114 632 q 224 675 153 658 q 336 692 294 692 q 526 628 453 692 q 599 464 599 565 l 599 0 l 532 0 l 503 68 q 413 10 468 36 q 301 -17 357 -17 q 128 42 185 -17 q 71 192 71 101 q 138 344 71 292 q 314 396 206 396 l 488 396 q 461 538 488 479 q 340 596 435 596 q 228 581 272 596 q 146 549 183 565 q 131 590 139 569 q 114 632 122 611 z "},"ä":{"ha":700,"x_min":71,"x_max":599,"o":"m 458 988 q 506 967 486 988 q 525 921 525 947 q 506 872 525 892 q 458 853 486 853 q 410 872 431 853 q 390 921 390 892 q 410 967 390 947 q 458 988 431 988 m 229 988 q 277 967 257 988 q 297 921 297 947 q 277 872 297 892 q 229 853 257 853 q 180 872 200 853 q 160 921 160 892 q 180 967 160 947 q 229 988 200 988 m 172 192 q 202 110 172 149 q 299 71 232 71 q 406 100 357 71 q 489 169 454 129 l 489 324 l 311 324 q 208 284 243 324 q 172 192 172 244 m 114 632 q 224 675 153 658 q 336 692 294 692 q 526 628 453 692 q 599 464 599 565 l 599 0 l 532 0 l 503 68 q 413 10 468 36 q 301 -17 357 -17 q 128 42 185 -17 q 71 192 71 101 q 138 344 71 292 q 314 396 206 396 l 488 396 q 461 538 488 479 q 340 596 435 596 q 228 581 272 596 q 146 549 183 565 q 131 590 139 569 q 114 632 122 611 z "},"å":{"ha":700,"x_min":71,"x_max":599,"o":"m 343 1065 q 433 1030 394 1065 q 472 943 472 994 q 433 858 472 892 q 343 825 394 825 q 251 858 290 825 q 213 943 213 892 q 251 1030 213 994 q 343 1065 290 1065 m 343 885 q 385 902 367 885 q 403 943 403 919 q 385 985 403 968 q 343 1003 367 1003 q 301 985 318 1003 q 283 943 283 968 q 301 902 283 919 q 343 885 318 885 m 172 192 q 202 110 172 149 q 299 71 232 71 q 406 100 357 71 q 489 169 454 129 l 489 324 l 311 324 q 208 284 243 324 q 172 192 172 244 m 114 632 q 224 675 153 658 q 336 692 294 692 q 526 628 453 692 q 599 464 599 565 l 599 0 l 532 0 l 503 68 q 413 10 468 36 q 301 -17 357 -17 q 128 42 185 -17 q 71 192 71 101 q 138 344 71 292 q 314 396 206 396 l 488 396 q 461 538 488 479 q 340 596 435 596 q 228 581 272 596 q 146 549 183 565 q 131 590 139 569 q 114 632 122 611 z "},"ā":{"ha":700,"x_min":71,"x_max":599,"o":"m 172 965 l 514 965 l 514 879 l 172 879 l 172 965 m 172 192 q 202 110 172 149 q 299 71 232 71 q 406 100 357 71 q 489 169 454 129 l 489 324 l 311 324 q 208 284 243 324 q 172 192 172 244 m 114 632 q 224 675 153 658 q 336 692 294 692 q 526 628 453 692 q 599 464 599 565 l 599 0 l 532 0 l 503 68 q 413 10 468 36 q 301 -17 357 -17 q 128 42 185 -17 q 71 192 71 101 q 138 344 71 292 q 314 396 206 396 l 488 396 q 461 538 488 479 q 340 596 435 596 q 228 581 272 596 q 146 549 183 565 q 131 590 139 569 q 114 632 122 611 z "},"ă":{"ha":700,"x_min":71,"x_max":599,"o":"m 528 1022 q 483 890 528 949 q 342 831 439 832 q 199 890 243 832 q 156 1022 156 949 l 235 1022 q 261 949 235 985 q 342 913 288 913 q 421 949 394 913 q 447 1022 447 985 l 528 1022 m 172 192 q 202 110 172 149 q 299 71 232 71 q 406 100 357 71 q 489 169 454 129 l 489 324 l 311 324 q 208 284 243 324 q 172 192 172 244 m 114 632 q 224 675 153 658 q 336 692 294 692 q 526 628 453 692 q 599 464 599 565 l 599 0 l 532 0 l 503 68 q 413 10 468 36 q 301 -17 357 -17 q 128 42 185 -17 q 71 192 71 101 q 138 344 71 292 q 314 396 206 396 l 488 396 q 461 538 488 479 q 340 596 435 596 q 228 581 272 596 q 146 549 183 565 q 131 590 139 569 q 114 632 122 611 z "},"ą":{"ha":700,"x_min":71,"x_max":688,"o":"m 114 632 q 224 675 153 658 q 336 692 294 692 q 526 628 453 692 q 599 464 599 565 l 599 0 q 544 -62 572 -22 q 515 -140 515 -103 q 535 -190 515 -175 q 581 -204 554 -204 q 617 -197 599 -204 q 651 -176 636 -190 l 688 -244 q 635 -276 667 -264 q 567 -287 603 -287 q 461 -248 503 -287 q 419 -147 419 -208 q 449 -48 419 -96 q 515 28 479 0 l 503 68 q 413 10 468 36 q 301 -17 357 -17 q 128 42 185 -17 q 71 192 71 101 q 138 344 71 292 q 314 396 206 396 l 488 396 q 461 538 488 479 q 340 596 435 596 q 228 581 272 596 q 146 549 183 565 q 131 590 139 569 q 114 632 122 611 m 172 192 q 202 110 172 149 q 299 71 232 71 q 406 100 357 71 q 489 169 454 129 l 489 324 l 311 324 q 208 284 243 324 q 172 192 172 244 z "},"ç":{"ha":651,"x_min":68,"x_max":592,"o":"m 382 599 q 231 524 279 599 q 181 340 182 450 q 226 151 181 226 q 376 75 272 75 q 479 89 444 75 q 553 122 514 103 l 586 42 q 507 6 553 19 q 419 -14 461 -8 l 400 -67 q 477 -109 446 -75 q 508 -179 508 -143 q 460 -276 508 -244 q 349 -307 411 -307 q 289 -299 322 -307 q 236 -278 256 -290 l 264 -207 q 303 -222 278 -214 q 349 -229 328 -229 q 395 -217 372 -229 q 418 -182 418 -206 q 383 -136 418 -156 q 296 -111 347 -117 l 332 -14 q 135 97 201 0 q 68 339 68 193 q 151 592 69 493 q 385 692 232 692 q 487 676 425 692 q 592 631 549 660 l 558 551 q 484 584 519 569 q 382 599 449 599 z "},"ć":{"ha":651,"x_min":68,"x_max":592,"o":"m 388 1035 l 508 1035 l 386 818 l 303 818 l 388 1035 m 382 599 q 231 524 279 599 q 181 340 182 450 q 226 151 181 226 q 376 75 272 75 q 479 89 444 75 q 553 122 514 103 l 586 42 q 482 -2 543 14 q 378 -18 421 -18 q 147 82 225 -18 q 68 339 68 182 q 151 592 69 493 q 385 692 232 692 q 487 676 425 692 q 592 631 549 660 l 558 551 q 484 584 519 569 q 382 599 449 599 z "},"č":{"ha":651,"x_min":68,"x_max":592,"o":"m 175 1035 l 279 1035 l 381 899 l 482 1035 l 585 1035 l 422 818 l 338 818 l 175 1035 m 382 599 q 231 524 279 599 q 181 340 182 450 q 226 151 181 226 q 376 75 272 75 q 479 89 444 75 q 553 122 514 103 l 586 42 q 482 -2 543 14 q 378 -18 421 -18 q 147 82 225 -18 q 68 339 68 182 q 151 592 69 493 q 385 692 232 692 q 487 676 425 692 q 592 631 549 660 l 558 551 q 484 584 519 569 q 382 599 449 599 z "},"ď":{"ha":957,"x_min":68,"x_max":947,"o":"m 872 989 q 925 965 903 989 q 947 900 947 940 q 906 769 947 835 q 806 672 865 703 l 776 724 q 833 774 811 749 q 861 839 856 800 q 815 863 833 840 q 796 913 796 885 q 818 966 796 943 q 872 989 840 989 m 381 600 q 226 523 271 600 q 181 338 181 446 q 225 151 181 225 q 381 76 269 76 q 464 95 419 76 q 547 149 508 114 l 547 526 q 464 581 508 561 q 381 600 419 600 m 658 979 l 658 0 l 593 0 l 564 61 q 466 4 521 26 q 361 -18 411 -18 q 141 83 214 -18 q 68 336 68 183 q 142 592 68 492 q 364 693 217 693 q 457 674 407 693 q 547 625 507 656 l 547 967 l 658 979 z "},"è":{"ha":733,"x_min":68,"x_max":671,"o":"m 254 1033 l 375 1033 l 460 818 l 376 818 l 254 1033 m 671 319 l 182 319 q 239 142 186 213 q 406 72 292 72 q 516 87 474 72 q 597 119 558 101 l 632 39 q 519 -3 589 10 q 408 -17 450 -17 q 154 83 240 -17 q 68 339 68 182 q 151 592 69 492 q 382 692 232 692 q 605 581 539 692 q 671 319 671 471 m 563 394 q 508 542 551 485 q 378 599 465 599 q 242 542 290 599 q 185 394 194 485 l 563 394 z "},"é":{"ha":733,"x_min":68,"x_max":671,"o":"m 385 1033 l 506 1033 l 383 818 l 300 818 l 385 1033 m 671 319 l 182 319 q 239 142 186 213 q 406 72 292 72 q 516 87 474 72 q 597 119 558 101 l 632 39 q 519 -3 589 10 q 408 -17 450 -17 q 154 83 240 -17 q 68 339 68 182 q 151 592 69 492 q 382 692 232 692 q 605 581 539 692 q 671 319 671 471 m 563 394 q 508 542 551 485 q 378 599 465 599 q 242 542 290 599 q 185 394 194 485 l 563 394 z "},"ê":{"ha":733,"x_min":68,"x_max":671,"o":"m 282 818 l 175 818 l 339 1033 l 425 1033 l 588 818 l 482 818 q 433 885 458 851 q 383 954 407 919 l 282 818 m 671 319 l 182 319 q 239 142 186 213 q 406 72 292 72 q 516 87 474 72 q 597 119 558 101 l 632 39 q 519 -3 589 10 q 408 -17 450 -17 q 154 83 240 -17 q 68 339 68 182 q 151 592 69 492 q 382 692 232 692 q 605 581 539 692 q 671 319 671 471 m 563 394 q 508 542 551 485 q 378 599 465 599 q 242 542 290 599 q 185 394 194 485 l 563 394 z "},"ë":{"ha":733,"x_min":68,"x_max":671,"o":"m 496 988 q 543 967 524 988 q 563 921 563 947 q 543 872 563 892 q 496 853 524 853 q 447 872 467 853 q 426 921 426 892 q 447 967 426 947 q 496 988 467 988 m 265 988 q 315 967 294 988 q 335 921 335 947 q 315 872 335 892 q 265 853 294 853 q 218 872 238 853 q 199 921 199 892 q 218 967 199 947 q 265 988 238 988 m 671 319 l 182 319 q 239 142 186 213 q 406 72 292 72 q 516 87 474 72 q 597 119 558 101 l 632 39 q 519 -3 589 10 q 408 -17 450 -17 q 154 83 240 -17 q 68 339 68 182 q 151 592 69 492 q 382 692 232 692 q 605 581 539 692 q 671 319 671 471 m 563 394 q 508 542 551 485 q 378 599 465 599 q 242 542 290 599 q 185 394 194 485 l 563 394 z "},"ē":{"ha":733,"x_min":68,"x_max":671,"o":"m 208 965 l 550 965 l 550 879 l 208 879 l 208 965 m 671 319 l 182 319 q 239 142 186 213 q 406 72 292 72 q 516 87 474 72 q 597 119 558 101 l 632 39 q 519 -3 589 10 q 408 -17 450 -17 q 154 83 240 -17 q 68 339 68 182 q 151 592 69 492 q 382 692 232 692 q 605 581 539 692 q 671 319 671 471 m 563 394 q 508 542 551 485 q 378 599 465 599 q 242 542 290 599 q 185 394 194 485 l 563 394 z "},"ė":{"ha":733,"x_min":68,"x_max":671,"o":"m 381 1000 q 433 978 411 1000 q 454 925 454 956 q 433 872 454 893 q 381 850 411 850 q 327 872 350 850 q 304 925 304 893 q 327 978 304 956 q 381 1000 350 1000 m 671 319 l 182 319 q 239 142 186 213 q 406 72 292 72 q 516 87 474 72 q 597 119 558 101 l 632 39 q 519 -3 589 10 q 408 -17 450 -17 q 154 83 240 -17 q 68 339 68 182 q 151 592 69 492 q 382 692 232 692 q 605 581 539 692 q 671 319 671 471 m 563 394 q 508 542 551 485 q 378 599 465 599 q 242 542 290 599 q 185 394 194 485 l 563 394 z "},"ę":{"ha":733,"x_min":68,"x_max":671,"o":"m 671 319 l 182 319 q 239 142 186 213 q 406 72 292 72 q 516 87 474 72 q 597 119 558 101 l 632 39 q 590 17 614 26 q 539 0 565 7 q 482 -66 508 -24 q 456 -140 456 -108 q 475 -190 456 -175 q 521 -204 494 -204 q 557 -197 539 -204 q 590 -176 575 -190 l 628 -244 q 575 -276 606 -264 q 508 -287 544 -287 q 402 -248 444 -287 q 360 -147 360 -208 q 374 -80 360 -117 q 411 -15 388 -43 q 155 82 242 -15 q 68 339 68 179 q 151 592 69 492 q 382 692 232 692 q 605 583 539 692 q 671 319 671 474 m 563 394 q 508 542 551 485 q 378 599 465 599 q 242 542 290 599 q 185 394 194 485 l 563 394 z "},"ě":{"ha":733,"x_min":68,"x_max":671,"o":"m 174 1033 l 279 1033 q 330 967 304 1000 q 381 899 356 933 q 431 967 406 933 q 482 1033 456 1000 l 585 1033 l 422 818 l 336 818 l 174 1033 m 671 319 l 182 319 q 239 142 186 213 q 406 72 292 72 q 516 87 474 72 q 597 119 558 101 l 632 39 q 519 -3 589 10 q 408 -17 450 -17 q 154 83 240 -17 q 68 339 68 182 q 151 592 69 492 q 382 692 232 692 q 605 581 539 692 q 671 319 671 471 m 563 394 q 508 542 551 485 q 378 599 465 599 q 242 542 290 599 q 185 394 194 485 l 563 394 z "},"ğ":{"ha":769,"x_min":68,"x_max":658,"o":"m 557 1022 q 514 890 557 949 q 372 831 471 832 q 229 890 274 832 q 185 1022 185 949 l 265 1022 q 292 949 265 985 q 372 913 318 913 q 453 949 426 913 q 479 1022 479 985 l 557 1022 m 547 526 q 463 581 508 561 q 379 600 418 600 q 226 523 271 600 q 181 338 181 446 q 224 150 181 225 q 379 75 268 75 q 463 94 418 75 q 547 149 508 114 l 547 526 m 658 -54 q 585 -231 658 -160 q 368 -301 513 -301 q 256 -285 326 -301 q 142 -239 185 -269 l 175 -160 q 258 -194 217 -178 q 365 -211 299 -211 q 498 -172 449 -211 q 547 -53 547 -132 l 547 50 q 456 1 507 19 q 361 -17 406 -17 q 141 83 214 -17 q 68 336 68 182 q 142 592 68 490 q 364 693 217 693 q 467 670 413 693 q 564 613 521 647 q 578 642 571 626 q 592 674 585 658 l 658 674 l 658 -54 z "},"ì":{"ha":331,"x_min":15,"x_max":221,"o":"m 15 1033 l 136 1033 l 219 818 l 136 818 l 15 1033 m 110 0 l 110 674 l 221 674 l 221 0 l 110 0 z "},"í":{"ha":331,"x_min":110,"x_max":315,"o":"m 194 1033 l 315 1033 l 193 818 l 110 818 l 194 1033 m 110 0 l 110 674 l 221 674 l 221 0 l 110 0 z "},"î":{"ha":331,"x_min":-40,"x_max":372,"o":"m 64 818 l -40 818 q 40 926 0 872 q 122 1033 81 979 l 208 1033 l 372 818 l 265 818 l 167 954 q 116 885 142 919 q 64 818 90 851 m 110 0 l 110 674 l 221 674 l 221 0 l 110 0 z "},"ï":{"ha":331,"x_min":-17,"x_max":349,"o":"m 281 988 q 328 967 308 988 q 349 921 349 947 q 328 872 349 892 q 281 853 308 853 q 232 872 253 853 q 211 921 211 892 q 232 967 211 947 q 281 988 253 988 m 50 988 q 99 967 78 988 q 119 921 119 947 q 99 872 119 892 q 50 853 78 853 q 3 872 22 853 q -17 921 -17 892 q 3 967 -17 947 q 50 988 22 988 m 110 0 l 110 674 l 221 674 l 221 0 l 110 0 z "},"ī":{"ha":331,"x_min":-6,"x_max":336,"o":"m -6 965 l 336 965 l 336 879 l -6 879 l -6 965 m 110 0 l 110 674 l 221 674 l 221 0 l 110 0 z "},"į":{"ha":331,"x_min":38,"x_max":307,"o":"m 164 807 q 111 828 132 807 q 90 882 90 850 q 111 934 90 913 q 164 956 132 956 q 217 934 194 956 q 240 882 240 913 q 217 828 240 850 q 164 807 194 807 m 221 674 l 221 0 l 218 0 q 163 -63 192 -22 q 135 -140 135 -104 q 154 -190 135 -175 q 201 -204 174 -204 q 237 -197 219 -204 q 271 -176 254 -190 q 288 -210 279 -194 q 307 -244 297 -226 q 253 -276 285 -264 q 185 -287 222 -287 q 80 -248 122 -287 q 38 -147 38 -208 q 41 -131 38 -142 q 49 -115 44 -121 q 67 -49 49 -82 q 110 6 86 -17 l 110 674 l 221 674 z "},"ľ":{"ha":519,"x_min":111,"x_max":508,"o":"m 432 989 q 486 965 464 989 q 508 900 508 940 q 467 768 508 833 q 367 672 426 703 l 339 724 q 395 774 372 749 q 421 838 418 799 q 376 863 394 840 q 358 913 358 885 q 381 965 358 942 q 432 989 403 989 m 111 0 l 111 965 l 221 981 l 221 0 l 111 0 z "},"ñ":{"ha":776,"x_min":108,"x_max":675,"o":"m 558 976 l 635 976 q 599 869 635 899 q 510 839 563 839 q 426 870 461 839 q 356 901 392 901 q 323 887 338 901 q 307 846 308 872 l 228 846 q 265 953 228 924 q 353 982 301 982 q 442 951 410 982 q 508 921 474 921 q 541 934 525 921 q 558 976 557 947 m 108 0 l 108 674 l 175 674 q 192 625 183 650 q 210 576 200 600 q 320 659 253 625 q 447 693 388 693 q 619 626 564 693 q 675 456 675 558 l 675 0 l 565 0 l 565 442 q 532 555 565 510 q 429 600 499 600 q 324 571 386 600 q 218 490 263 542 l 218 0 l 108 0 z "},"ń":{"ha":776,"x_min":108,"x_max":675,"o":"m 433 1035 l 556 1035 l 433 818 l 350 818 l 433 1035 m 210 576 q 321 659 253 625 q 449 693 389 693 q 619 626 564 693 q 675 457 675 558 l 675 1 l 565 1 l 565 442 q 532 554 565 510 q 429 600 499 599 q 324 571 386 600 q 218 490 263 542 l 218 0 l 108 0 l 108 674 l 175 674 l 210 576 z "},"ň":{"ha":776,"x_min":108,"x_max":675,"o":"m 226 1035 l 332 1035 l 435 899 l 533 1035 l 639 1035 l 475 818 l 390 818 l 226 1035 m 210 576 q 321 659 253 625 q 449 693 389 693 q 619 626 564 693 q 675 457 675 558 l 675 1 l 565 1 l 565 442 q 532 554 565 510 q 429 600 499 599 q 324 571 386 600 q 218 490 263 542 l 218 0 l 108 0 l 108 674 l 175 674 l 210 576 z "},"ò":{"ha":754,"x_min":68,"x_max":685,"o":"m 254 1035 l 375 1035 l 458 818 l 375 818 l 254 1035 m 367 -18 q 143 83 218 -17 q 68 340 68 183 q 150 592 69 493 q 381 692 231 690 q 609 590 533 692 q 685 332 685 489 q 600 80 683 178 q 367 -18 517 -18 m 575 332 q 531 522 575 447 q 383 597 488 597 q 231 526 281 597 q 181 342 182 454 q 222 150 181 224 q 368 76 264 76 q 523 146 472 76 q 575 332 574 215 z "},"ó":{"ha":754,"x_min":68,"x_max":685,"o":"m 383 1035 l 504 1035 l 382 818 l 300 818 l 383 1035 m 367 -18 q 143 83 218 -17 q 68 340 68 183 q 150 592 69 493 q 381 692 231 690 q 609 590 533 692 q 685 332 685 489 q 600 80 683 178 q 367 -18 517 -18 m 575 332 q 531 522 575 447 q 383 597 488 597 q 231 526 281 597 q 181 342 182 454 q 222 150 181 224 q 368 76 264 76 q 523 146 472 76 q 575 332 574 215 z "},"ô":{"ha":754,"x_min":68,"x_max":685,"o":"m 278 818 l 172 818 l 336 1035 l 421 1035 l 585 818 l 479 818 l 379 954 l 278 818 m 367 -18 q 143 83 218 -17 q 68 340 68 183 q 150 592 69 493 q 381 692 231 690 q 609 590 533 692 q 685 332 685 489 q 600 80 683 178 q 367 -18 517 -18 m 575 332 q 531 522 575 447 q 383 597 488 597 q 231 526 281 597 q 181 342 182 454 q 222 150 181 224 q 368 76 264 76 q 523 146 472 76 q 575 332 574 215 z "},"õ":{"ha":754,"x_min":68,"x_max":685,"o":"m 501 976 l 579 976 q 542 869 579 899 q 454 839 506 839 q 372 870 407 839 q 300 901 338 901 q 267 887 282 901 q 251 846 253 872 l 171 846 q 208 953 171 924 q 296 982 244 982 q 385 951 353 982 q 453 921 417 921 q 485 935 469 921 q 501 976 500 949 m 367 -17 q 143 84 218 -17 q 68 339 68 185 q 150 591 69 492 q 379 692 231 690 q 608 590 532 692 q 685 332 685 489 q 600 81 685 178 q 367 -17 515 -17 m 575 332 q 531 522 575 446 q 383 597 488 597 q 231 526 281 597 q 181 340 181 454 q 222 149 181 224 q 368 75 264 75 q 522 145 469 75 q 575 332 575 215 z "},"ö":{"ha":754,"x_min":68,"x_max":685,"o":"m 265 988 q 313 967 293 988 q 332 921 332 947 q 313 872 332 892 q 265 853 293 853 q 217 872 236 853 q 197 921 197 892 q 217 967 197 947 q 265 988 236 988 m 494 988 q 543 967 524 988 q 563 921 563 947 q 543 872 563 892 q 494 853 524 853 q 447 872 467 853 q 426 921 426 892 q 447 967 426 947 q 494 988 467 988 m 367 -18 q 143 83 218 -17 q 68 340 68 183 q 150 592 69 493 q 381 692 231 690 q 609 590 533 692 q 685 332 685 489 q 600 80 683 178 q 367 -18 517 -18 m 575 332 q 531 522 575 447 q 383 597 488 597 q 231 526 281 597 q 181 342 182 454 q 222 150 181 224 q 368 76 264 76 q 523 146 472 76 q 575 332 574 215 z "},"ō":{"ha":754,"x_min":68,"x_max":685,"o":"m 207 967 l 549 967 l 549 879 l 207 879 l 207 967 m 367 -18 q 143 83 218 -17 q 68 340 68 183 q 150 592 69 493 q 381 692 231 690 q 609 590 533 692 q 685 332 685 489 q 600 80 683 178 q 367 -18 517 -18 m 575 332 q 531 522 575 447 q 383 597 488 597 q 231 526 281 597 q 181 342 182 454 q 222 150 181 224 q 368 76 264 76 q 523 146 472 76 q 575 332 574 215 z "},"ő":{"ha":754,"x_min":68,"x_max":685,"o":"m 497 1035 l 613 1035 l 490 818 l 414 818 l 497 1035 m 303 1035 l 418 1035 l 296 818 l 219 818 l 303 1035 m 367 -18 q 143 83 218 -17 q 68 340 68 183 q 150 592 69 493 q 381 692 231 690 q 609 590 533 692 q 685 332 685 489 q 600 80 683 178 q 367 -18 517 -18 m 575 332 q 531 522 575 447 q 383 597 488 597 q 231 526 281 597 q 181 342 182 454 q 222 150 181 224 q 368 76 264 76 q 523 146 472 76 q 575 332 574 215 z "},"ŕ":{"ha":458,"x_min":108,"x_max":444,"o":"m 263 1033 l 383 1033 l 263 818 l 179 818 l 263 1033 m 108 0 l 108 674 l 175 674 l 208 579 q 305 642 246 611 q 418 674 364 674 q 431 630 424 651 q 444 586 438 608 q 324 553 385 586 q 218 476 263 521 l 218 0 l 108 0 z "},"ř":{"ha":458,"x_min":22,"x_max":444,"o":"m 22 1033 l 128 1033 q 178 967 153 1000 q 229 899 204 933 l 329 1033 l 435 1033 l 271 818 l 185 818 l 22 1033 m 108 0 l 108 674 l 175 674 l 208 579 q 305 642 246 611 q 418 674 364 674 q 431 630 424 651 q 444 586 438 608 q 324 553 385 586 q 218 476 263 521 l 218 0 l 108 0 z "},"ś":{"ha":619,"x_min":65,"x_max":554,"o":"m 321 1035 l 440 1035 l 319 818 l 238 818 l 321 1035 m 492 551 q 415 583 458 568 q 313 599 372 599 q 215 574 251 599 q 178 506 178 549 q 220 440 178 467 q 329 390 263 413 q 483 311 411 361 q 554 178 554 261 q 485 34 554 86 q 285 -18 417 -18 q 176 -3 242 -18 q 69 39 111 11 l 103 122 q 190 89 142 103 q 286 75 238 75 q 403 99 361 75 q 444 171 444 122 q 399 247 444 214 q 285 301 353 279 q 135 374 206 328 q 65 500 65 421 q 133 641 65 590 q 315 692 200 692 q 422 676 358 692 q 525 632 486 660 l 492 551 z "},"š":{"ha":619,"x_min":65,"x_max":554,"o":"m 107 1035 l 214 1035 l 315 899 l 417 1035 l 519 1035 l 357 818 l 271 818 l 107 1035 m 492 551 q 415 583 458 568 q 313 599 372 599 q 215 574 251 599 q 178 506 178 549 q 220 440 178 467 q 329 390 263 413 q 483 311 411 361 q 554 178 554 261 q 485 34 554 86 q 285 -18 417 -18 q 176 -3 242 -18 q 69 39 111 11 l 103 122 q 190 89 142 103 q 286 75 238 75 q 403 99 361 75 q 444 171 444 122 q 399 247 444 214 q 285 301 353 279 q 135 374 206 328 q 65 500 65 421 q 133 641 65 590 q 315 692 200 692 q 422 676 358 692 q 525 632 486 660 l 492 551 z "},"ť":{"ha":638,"x_min":24,"x_max":628,"o":"m 553 989 q 606 965 583 989 q 628 900 628 940 q 588 769 628 835 q 486 672 547 703 l 458 724 q 515 774 492 749 q 542 839 538 800 q 496 863 515 840 q 476 913 476 885 q 499 966 476 943 q 553 989 522 989 m 414 3 q 370 -12 399 -4 q 311 -21 342 -21 q 173 29 225 -21 q 121 175 121 79 l 121 579 l 25 579 l 24 663 l 121 663 l 121 833 l 232 865 l 232 663 l 354 663 l 390 579 l 232 579 l 232 190 q 254 106 232 139 q 328 74 276 74 q 361 78 343 74 q 389 88 379 83 l 414 3 z "},"ù":{"ha":753,"x_min":101,"x_max":644,"o":"m 242 1035 l 361 1035 l 446 818 l 363 818 l 242 1035 m 544 74 q 442 7 500 33 q 329 -19 383 -19 q 156 48 211 -19 q 101 218 101 115 l 101 674 l 211 674 l 211 231 q 244 118 211 163 q 346 74 278 74 q 438 96 385 74 q 535 158 490 118 l 535 674 l 644 674 l 644 0 l 576 0 l 544 74 z "},"ú":{"ha":753,"x_min":101,"x_max":644,"o":"m 378 1035 l 500 1035 l 376 818 l 296 818 l 378 1035 m 544 74 q 442 7 500 33 q 329 -19 383 -19 q 156 48 211 -19 q 101 218 101 115 l 101 674 l 211 674 l 211 231 q 244 118 211 163 q 346 74 278 74 q 438 96 385 74 q 535 158 490 118 l 535 674 l 644 674 l 644 0 l 576 0 l 544 74 z "},"û":{"ha":753,"x_min":101,"x_max":644,"o":"m 274 818 l 167 818 l 331 1035 l 415 1035 l 579 818 l 475 818 l 374 954 l 274 818 m 544 74 q 442 7 500 33 q 329 -19 383 -19 q 156 48 211 -19 q 101 218 101 115 l 101 674 l 211 674 l 211 231 q 244 118 211 163 q 346 74 278 74 q 438 96 385 74 q 535 158 490 118 l 535 674 l 644 674 l 644 0 l 576 0 l 544 74 z "},"ü":{"ha":753,"x_min":101,"x_max":644,"o":"m 261 988 q 308 967 289 988 q 328 921 328 947 q 308 872 328 892 q 261 853 289 853 q 211 872 232 853 q 190 921 190 892 q 211 967 190 947 q 261 988 232 988 m 489 988 q 538 967 518 988 q 557 921 557 947 q 538 872 557 892 q 489 853 518 853 q 442 872 463 853 q 421 921 421 892 q 442 967 421 947 q 489 988 463 988 m 544 74 q 442 7 500 33 q 329 -19 383 -19 q 156 48 211 -19 q 101 218 101 115 l 101 674 l 211 674 l 211 231 q 244 118 211 163 q 346 74 278 74 q 438 96 385 74 q 535 158 490 118 l 535 674 l 644 674 l 644 0 l 576 0 l 544 74 z "},"ū":{"ha":753,"x_min":101,"x_max":644,"o":"m 201 967 l 546 967 l 546 879 l 201 879 l 201 967 m 544 74 q 442 7 500 33 q 329 -19 383 -19 q 156 48 211 -19 q 101 218 101 115 l 101 674 l 211 674 l 211 231 q 244 118 211 163 q 346 74 278 74 q 438 96 385 74 q 535 158 490 118 l 535 674 l 644 674 l 644 0 l 576 0 l 544 74 z "},"ů":{"ha":753,"x_min":101,"x_max":644,"o":"m 374 1065 q 465 1030 425 1065 q 504 943 504 994 q 465 858 504 892 q 374 825 425 825 q 282 858 321 825 q 243 943 243 892 q 282 1030 243 994 q 374 1065 321 1065 m 374 886 q 417 903 400 886 q 433 943 433 919 q 417 985 433 968 q 374 1003 400 1003 q 333 985 350 1003 q 315 943 315 968 q 333 903 315 919 q 374 886 350 886 m 544 74 q 442 7 500 33 q 329 -19 383 -19 q 156 48 211 -19 q 101 218 101 115 l 101 674 l 211 674 l 211 231 q 244 118 211 163 q 346 74 278 74 q 438 96 385 74 q 535 158 490 118 l 535 674 l 644 674 l 644 0 l 576 0 l 544 74 z "},"ű":{"ha":753,"x_min":101,"x_max":644,"o":"m 492 1035 l 607 1035 l 485 818 l 407 818 l 492 1035 m 299 1035 l 413 1035 l 290 818 l 214 818 l 299 1035 m 544 74 q 442 7 500 33 q 329 -19 383 -19 q 156 48 211 -19 q 101 218 101 115 l 101 674 l 211 674 l 211 231 q 244 118 211 163 q 346 74 278 74 q 438 96 385 74 q 535 158 490 118 l 535 674 l 644 674 l 644 0 l 576 0 l 544 74 z "},"ų":{"ha":753,"x_min":101,"x_max":733,"o":"m 544 74 q 442 7 500 33 q 329 -19 383 -19 q 156 48 211 -19 q 101 218 101 115 l 101 674 l 211 674 l 211 231 q 244 118 211 163 q 346 74 278 74 q 438 96 385 74 q 535 158 490 118 l 535 674 l 644 674 l 644 0 q 589 -62 617 -22 q 561 -140 561 -103 q 581 -190 561 -175 q 626 -206 600 -206 q 662 -199 644 -206 q 694 -178 679 -192 l 733 -244 q 680 -276 711 -265 q 613 -287 649 -287 q 506 -249 549 -287 q 464 -149 464 -210 q 495 -49 464 -97 q 561 29 526 0 l 544 74 z "},"ý":{"ha":663,"x_min":24,"x_max":639,"o":"m 343 1035 l 464 1035 l 342 818 l 258 818 l 343 1035 m 243 -110 l 283 4 l 24 657 l 132 674 l 336 153 l 529 674 l 639 674 l 433 122 l 342 -139 q 262 -247 319 -203 q 133 -306 204 -290 l 100 -226 q 188 -181 150 -204 q 243 -110 225 -157 z "},"ÿ":{"ha":663,"x_min":24,"x_max":639,"o":"m 456 988 q 501 967 482 988 q 521 921 521 947 q 501 872 521 892 q 456 853 482 853 q 406 872 425 853 q 386 921 386 892 q 406 967 386 947 q 456 988 425 988 m 224 988 q 272 967 253 988 q 292 921 292 947 q 272 872 292 892 q 224 853 253 853 q 176 872 196 853 q 157 921 157 892 q 176 967 157 947 q 224 988 196 988 m 243 -110 l 283 4 l 24 657 l 132 674 l 336 153 l 529 674 l 639 674 l 433 122 l 342 -139 q 262 -247 319 -203 q 133 -306 204 -290 l 100 -226 q 188 -181 150 -204 q 243 -110 225 -157 z "},"ź":{"ha":647,"x_min":49,"x_max":593,"o":"m 368 1035 l 488 1035 l 367 818 l 283 818 l 368 1035 m 593 618 l 193 86 l 576 86 l 590 0 l 64 0 l 49 56 l 443 589 l 108 589 l 83 678 l 588 678 l 593 618 z "},"ż":{"ha":647,"x_min":49,"x_max":593,"o":"m 357 1001 q 410 978 389 1001 q 432 925 432 956 q 410 872 432 893 q 357 850 389 850 q 303 872 325 850 q 282 925 282 893 q 303 978 282 956 q 357 1001 325 1001 m 593 618 l 193 86 l 576 86 l 590 0 l 64 0 l 49 56 l 443 589 l 108 589 l 83 678 l 588 678 l 593 618 z "},"ž":{"ha":647,"x_min":49,"x_max":593,"o":"m 144 1035 l 251 1035 l 353 899 l 453 1035 l 558 1035 l 394 818 l 310 818 l 144 1035 m 593 618 l 193 86 l 576 86 l 590 0 l 64 0 l 49 56 l 443 589 l 108 589 l 83 678 l 588 678 l 593 618 z "},"ş":{"ha":619,"x_min":65,"x_max":554,"o":"m 492 551 q 415 583 458 568 q 313 599 372 599 q 215 574 251 599 q 178 506 178 549 q 220 440 178 467 q 329 390 263 413 q 483 311 411 361 q 554 178 554 261 q 496 43 554 94 q 326 -17 438 -8 l 307 -67 q 382 -109 350 -75 q 414 -179 414 -143 q 365 -276 414 -244 q 254 -307 317 -307 q 194 -299 228 -307 q 143 -278 161 -290 l 171 -207 q 209 -222 185 -214 q 254 -229 233 -229 q 302 -217 279 -229 q 325 -182 325 -206 q 290 -136 325 -156 q 203 -111 254 -117 l 240 -14 q 149 4 197 -8 q 69 39 100 17 l 103 122 q 190 89 142 103 q 286 75 238 75 q 403 99 361 75 q 444 171 444 122 q 399 247 444 214 q 285 301 353 279 q 135 374 206 328 q 65 500 65 421 q 133 641 65 590 q 315 692 200 692 q 422 676 358 692 q 525 632 486 660 l 492 551 z "},"ķ":{"ha":685,"x_min":111,"x_max":665,"o":"m 221 253 l 221 0 l 111 0 l 111 965 l 221 981 l 221 383 l 526 692 l 593 621 l 388 417 q 526 208 456 313 q 665 0 597 104 l 536 0 q 425 173 481 86 q 314 346 369 260 l 221 253 m 360 -29 q 415 -53 392 -29 q 438 -117 438 -76 q 396 -244 438 -182 q 300 -332 354 -306 l 269 -281 q 322 -237 300 -262 q 350 -178 344 -212 q 304 -154 324 -176 q 285 -104 285 -132 q 307 -51 285 -74 q 360 -29 329 -29 z "},"ļ":{"ha":332,"x_min":78,"x_max":242,"o":"m 111 0 l 111 965 l 221 981 l 221 0 l 111 0 m 168 -29 q 220 -53 199 -29 q 242 -117 242 -76 q 202 -244 242 -182 q 107 -332 163 -306 l 78 -281 q 130 -237 108 -262 q 156 -178 151 -212 q 110 -154 129 -176 q 92 -104 92 -132 q 114 -51 92 -74 q 168 -29 136 -29 z "},"ņ":{"ha":776,"x_min":108,"x_max":675,"o":"m 210 576 q 321 659 253 625 q 449 693 389 693 q 619 626 564 693 q 675 457 675 558 l 675 1 l 565 1 l 565 442 q 532 554 565 510 q 429 600 499 599 q 324 571 386 600 q 218 490 263 542 l 218 0 l 108 0 l 108 674 l 175 674 l 210 576 m 388 -29 q 440 -53 418 -29 q 463 -117 463 -76 q 422 -244 463 -183 q 326 -333 382 -306 l 299 -281 q 349 -238 328 -262 q 376 -179 371 -214 q 331 -155 350 -178 q 311 -106 311 -132 q 333 -52 311 -75 q 388 -29 356 -29 z "},"ŗ":{"ha":458,"x_min":78,"x_max":444,"o":"m 108 0 l 108 674 l 175 674 l 208 579 q 305 642 246 611 q 418 674 364 674 q 431 630 424 651 q 444 586 438 608 q 324 553 385 586 q 218 476 263 521 l 218 0 l 108 0 m 167 -29 q 219 -53 197 -29 q 242 -117 242 -76 q 201 -244 242 -182 q 104 -332 161 -306 l 78 -281 q 128 -237 106 -262 q 156 -178 150 -212 q 110 -154 129 -176 q 92 -104 92 -132 q 113 -51 92 -74 q 167 -29 135 -29 z "},"ţ":{"ha":451,"x_min":24,"x_max":418,"o":"m 389 88 l 414 3 q 377 -10 400 -3 q 328 -19 354 -18 l 310 -67 q 387 -109 356 -75 q 418 -179 418 -143 q 369 -276 418 -244 q 258 -307 321 -307 q 199 -299 232 -307 q 147 -278 167 -290 l 175 -207 q 212 -222 188 -214 q 258 -229 236 -229 q 305 -217 282 -229 q 328 -182 328 -206 q 293 -136 328 -156 q 206 -111 258 -117 l 244 -12 q 154 51 188 3 q 121 175 121 99 l 121 579 l 25 579 l 24 663 l 121 663 l 121 833 l 232 865 l 232 663 l 354 663 l 390 579 l 232 579 l 232 190 q 254 106 232 139 q 328 74 276 74 q 361 78 343 74 q 389 88 379 83 z "},"ș":{"ha":619,"x_min":65,"x_max":554,"o":"m 492 551 q 415 583 458 568 q 313 599 372 599 q 215 574 251 599 q 178 506 178 549 q 220 440 178 467 q 329 390 263 413 q 483 311 411 361 q 554 178 554 261 q 485 34 554 86 q 285 -18 417 -18 q 176 -3 242 -18 q 69 39 111 11 l 103 122 q 190 89 142 103 q 286 75 238 75 q 403 99 361 75 q 444 171 444 122 q 399 247 444 214 q 285 301 353 279 q 135 374 206 328 q 65 500 65 421 q 133 641 65 590 q 315 692 200 692 q 422 676 358 692 q 525 632 486 660 l 492 551 m 304 -29 q 358 -53 336 -29 q 381 -117 381 -76 q 340 -244 381 -183 q 244 -333 300 -306 l 215 -281 q 267 -238 244 -262 q 293 -179 289 -214 q 247 -155 267 -178 q 228 -106 228 -132 q 251 -52 228 -75 q 304 -29 274 -29 z "},"ț":{"ha":451,"x_min":24,"x_max":414,"o":"m 414 3 q 370 -12 399 -4 q 311 -21 342 -21 q 173 29 225 -21 q 121 175 121 79 l 121 579 l 25 579 l 24 663 l 121 663 l 121 833 l 232 865 l 232 663 l 354 663 l 390 579 l 232 579 l 232 190 q 254 106 232 139 q 328 74 276 74 q 361 78 343 74 q 389 88 379 83 l 414 3 m 288 -29 q 342 -53 319 -29 q 364 -117 364 -76 q 324 -244 364 -183 q 228 -333 283 -306 l 199 -281 q 250 -238 228 -262 q 276 -179 272 -214 q 231 -155 250 -178 q 213 -106 213 -132 q 235 -52 213 -75 q 288 -29 257 -29 z "},"­":{"ha":182,"x_min":0,"x_max":0,"o":""},"µ":{"ha":761,"x_min":111,"x_max":653,"o":"m 554 74 q 451 7 511 33 q 338 -19 390 -19 q 273 -12 303 -19 q 221 8 243 -6 l 221 -289 l 111 -304 l 111 674 l 221 674 l 221 231 q 254 118 221 163 q 356 74 288 74 q 447 96 394 74 q 542 158 499 118 l 542 674 l 653 674 l 653 0 l 586 0 l 554 74 z "},"ˉ":{"ha":385,"x_min":22,"x_max":364,"o":"m 22 967 l 364 967 l 364 879 l 22 879 l 22 967 z "},"ℓ":{"ha":550,"x_min":40,"x_max":493,"o":"m 67 246 q 53 290 60 268 q 40 335 47 313 q 87 370 63 351 q 135 410 111 389 l 135 779 q 188 924 135 872 q 321 975 242 975 q 444 926 396 975 q 493 790 493 876 q 420 583 493 694 q 246 379 347 471 l 246 228 q 261 121 246 164 q 340 78 276 78 q 381 83 358 78 q 432 103 404 89 l 469 35 q 403 -3 440 8 q 329 -15 367 -15 q 175 48 215 -15 q 135 214 135 111 l 135 292 q 102 267 119 278 q 67 246 85 256 m 383 786 q 365 860 383 840 q 319 881 346 881 q 269 858 292 879 q 246 778 246 838 l 246 514 q 343 648 303 578 q 383 786 383 718 z "},"Ω":{"ha":1063,"x_min":94,"x_max":969,"o":"m 851 471 q 762 758 851 647 q 532 869 672 869 q 301 758 392 869 q 211 471 211 647 q 258 245 211 358 q 385 89 306 132 l 389 0 l 101 0 l 94 89 l 247 89 q 136 254 176 147 q 96 472 96 361 q 211 822 96 682 q 532 967 326 963 q 852 822 736 963 q 968 472 968 682 q 927 254 968 361 q 814 89 886 147 l 969 89 l 961 0 l 672 0 l 678 89 q 804 245 757 132 q 851 471 851 358 z "},"∆":{"ha":835,"x_min":8,"x_max":826,"o":"m 464 944 l 826 17 l 717 0 l 8 0 l 357 944 l 464 944 m 410 799 l 147 88 l 683 88 l 410 799 z "},"∕":{"ha":547,"x_min":8,"x_max":539,"o":"m 539 981 l 114 -6 l 8 0 l 432 986 l 539 981 z "},"∙":{"ha":311,"x_min":32,"x_max":279,"o":"m 156 332 q 68 368 104 332 q 32 454 32 404 q 68 542 32 506 q 156 578 104 578 q 243 542 207 578 q 279 454 279 506 q 243 368 279 404 q 156 332 207 332 z "},"₺":{"ha":736,"x_min":29,"x_max":692,"o":"m 507 699 l 522 617 q 390 571 457 594 q 258 524 324 547 l 258 96 q 478 203 378 96 q 579 454 579 310 l 692 454 q 554 128 692 256 q 243 0 417 0 l 149 0 l 149 485 q 96 467 122 476 q 43 449 69 457 l 29 529 l 149 572 l 149 642 q 96 624 122 633 q 43 606 69 615 l 29 688 l 149 729 l 149 965 l 258 981 l 258 768 q 382 813 319 790 q 507 856 444 835 l 522 775 l 258 682 l 258 611 q 382 654 319 632 q 507 699 444 676 z "},"₽":{"ha":835,"x_min":60,"x_max":765,"o":"m 651 204 l 271 204 l 271 0 l 160 0 l 160 204 l 69 204 l 60 288 l 160 288 l 160 368 l 61 368 l 61 460 l 160 460 l 160 944 l 417 944 q 666 881 567 944 q 765 660 765 817 q 658 437 764 506 q 404 368 551 368 l 271 368 l 271 288 l 642 288 l 651 204 m 418 851 l 271 851 l 271 460 l 407 460 q 581 504 511 460 q 654 657 650 549 q 590 812 654 772 q 418 851 526 851 z "},"¢":{"ha":651,"x_min":68,"x_max":592,"o":"m 433 842 l 433 686 q 517 666 472 681 q 592 631 561 651 l 558 551 q 484 584 519 569 q 382 599 449 599 q 231 524 279 599 q 181 340 182 450 q 226 151 181 226 q 376 75 272 75 q 479 89 444 75 q 553 122 514 103 l 586 42 q 515 7 557 21 q 433 -12 474 -7 l 433 -156 l 340 -149 l 340 -15 q 138 94 207 -4 q 68 339 68 193 q 140 578 69 482 q 340 688 210 674 l 340 842 l 433 842 z "},"£":{"ha":633,"x_min":72,"x_max":610,"o":"m 285 736 l 285 526 l 468 526 q 486 485 476 507 q 506 444 496 464 l 285 444 l 285 303 q 278 177 285 232 q 242 86 271 122 l 596 86 q 603 43 600 64 q 610 0 607 22 l 86 0 q 83 43 85 22 q 81 86 82 64 l 86 86 q 153 120 133 88 q 174 203 174 153 l 174 444 l 74 444 q 72 485 72 464 q 72 526 72 507 l 174 526 l 174 707 q 218 883 174 817 q 363 950 263 950 q 421 942 392 950 q 465 925 450 933 l 440 838 q 412 848 431 843 q 379 853 393 853 q 306 820 328 853 q 285 736 285 788 z "},"¤":{"ha":932,"x_min":39,"x_max":892,"o":"m 679 58 q 579 2 636 22 q 458 -18 522 -18 q 343 3 396 -17 q 249 57 290 22 l 103 -92 l 39 -15 l 181 129 q 139 226 154 172 q 124 339 124 279 q 140 447 124 396 q 183 539 156 499 l 39 686 l 103 763 l 251 614 q 351 669 296 649 q 471 692 407 690 q 587 671 533 692 q 683 615 640 650 l 828 763 l 892 686 l 750 542 q 794 447 779 500 q 810 333 810 393 q 792 224 808 275 q 750 131 776 174 l 892 -15 l 828 -92 l 679 58 m 699 333 q 636 518 697 443 q 471 593 575 593 q 303 520 371 592 q 235 340 236 449 q 297 155 236 229 q 460 81 358 81 q 628 152 560 81 q 699 333 697 224 z "},"¥":{"ha":779,"x_min":8,"x_max":772,"o":"m 331 0 l 331 104 l 92 104 l 81 188 l 332 188 l 332 344 l 92 344 l 81 431 l 303 431 q 156 678 231 554 q 8 926 81 803 q 65 935 36 932 q 122 944 93 939 l 386 488 l 656 944 l 772 944 l 469 431 l 682 431 l 694 344 l 443 344 l 443 188 l 682 188 l 694 104 l 442 104 l 442 0 l 331 0 z "},"€":{"ha":826,"x_min":47,"x_max":786,"o":"m 661 303 l 307 303 q 390 139 331 203 q 561 75 450 75 q 663 88 621 75 q 744 118 706 100 l 786 35 q 686 -3 743 13 q 565 -19 629 -19 q 308 73 394 -19 q 196 303 222 165 l 60 303 l 47 388 l 185 388 q 181 426 182 406 q 179 467 179 446 q 181 511 179 489 q 186 553 183 533 l 60 553 l 47 638 l 199 638 q 320 872 229 781 q 572 964 411 964 q 683 951 626 964 q 785 910 740 939 l 750 829 q 670 858 703 847 q 575 869 638 869 q 404 806 471 869 q 311 638 338 743 l 650 638 l 661 553 l 294 553 q 291 512 293 533 q 289 468 289 490 q 290 427 289 449 q 293 388 292 406 l 650 388 l 661 303 z "},"$":{"ha":747,"x_min":69,"x_max":678,"o":"m 488 1114 l 488 950 q 555 931 524 943 q 613 908 586 919 q 594 865 604 886 q 575 822 585 844 q 491 856 538 840 q 374 872 444 872 q 230 835 283 872 q 176 731 176 797 q 427 507 176 576 q 678 231 678 438 q 628 90 678 151 q 488 0 578 28 l 488 -160 q 447 -156 467 -158 q 407 -153 428 -154 l 407 -14 q 377 -17 393 -15 q 344 -18 361 -18 l 318 -18 l 318 -160 l 239 -160 l 239 -6 q 145 18 189 4 q 85 46 101 32 q 97 88 90 67 q 111 132 104 110 q 212 94 149 114 q 343 75 275 75 q 511 117 453 75 q 569 228 569 160 q 319 445 569 376 q 69 728 69 514 q 115 860 69 801 q 239 944 160 918 l 239 1114 l 318 1108 l 318 961 q 346 965 332 963 q 371 967 360 967 q 390 966 381 967 q 407 964 399 965 l 407 1114 l 488 1114 z "},",":{"ha":211,"x_min":19,"x_max":190,"o":"m 114 149 q 168 125 146 149 q 190 63 190 101 q 149 -71 190 -6 q 49 -167 108 -136 l 19 -114 q 76 -64 54 -90 q 103 1 99 -37 q 58 25 78 3 q 39 75 39 47 q 61 126 39 104 q 114 149 83 149 z "},".":{"ha":190,"x_min":19,"x_max":169,"o":"m 96 149 q 148 127 126 149 q 169 75 169 106 q 148 22 169 43 q 96 0 126 0 q 42 22 64 0 q 19 75 19 43 q 42 127 19 106 q 96 149 64 149 z "},"!":{"ha":318,"x_min":82,"x_max":233,"o":"m 221 975 l 199 272 l 119 310 l 96 975 l 221 975 m 158 149 q 212 127 190 149 q 233 75 233 106 q 212 22 233 43 q 158 0 190 0 q 105 22 128 0 q 82 75 82 43 q 105 127 82 106 q 158 149 128 149 z "},"¡":{"ha":318,"x_min":82,"x_max":233,"o":"m 158 822 q 105 845 128 822 q 82 899 82 868 q 105 952 82 929 q 158 975 128 975 q 211 952 189 975 q 233 899 233 929 q 211 845 233 868 q 158 822 189 822 m 96 0 l 118 701 q 159 683 139 692 q 199 664 179 674 l 221 0 l 96 0 z "},":":{"ha":190,"x_min":19,"x_max":169,"o":"m 94 635 q 148 612 126 635 q 169 558 169 589 q 148 506 169 528 q 94 483 126 483 q 42 506 64 483 q 19 558 19 528 q 42 612 19 589 q 94 635 64 635 m 94 188 q 148 166 126 188 q 169 113 169 144 q 148 59 169 81 q 94 38 126 38 q 42 59 64 38 q 19 113 19 81 q 42 166 19 144 q 94 188 64 188 z "},";":{"ha":214,"x_min":19,"x_max":192,"o":"m 117 635 q 169 612 147 635 q 192 558 192 589 q 169 506 192 528 q 117 483 147 483 q 63 506 85 483 q 40 558 40 528 q 63 612 40 589 q 117 635 85 635 m 114 188 q 168 163 146 188 q 190 99 190 139 q 149 -33 190 33 q 49 -129 108 -99 l 19 -76 q 76 -26 54 -53 q 103 39 99 0 q 58 62 78 40 q 39 113 39 83 q 61 165 39 143 q 114 188 83 188 z "},"?":{"ha":556,"x_min":18,"x_max":535,"o":"m 269 975 q 471 910 407 975 q 535 742 535 844 q 467 585 535 664 q 289 456 400 507 l 275 207 l 194 239 l 183 511 q 358 606 289 546 q 426 740 426 665 q 385 847 426 814 q 267 881 344 881 q 144 858 199 881 q 33 794 90 836 l 18 892 q 132 951 75 928 q 269 975 189 975 m 232 149 q 285 127 263 149 q 307 75 307 106 q 285 22 307 43 q 232 0 263 0 q 178 22 200 0 q 157 75 157 43 q 178 127 157 106 q 232 149 200 149 z "},"¿":{"ha":588,"x_min":47,"x_max":563,"o":"m 350 726 q 297 749 319 726 q 275 803 275 772 q 297 856 275 833 q 350 878 319 878 q 403 856 382 878 q 425 803 425 833 q 403 749 425 772 q 350 726 382 726 m 311 -96 q 110 -31 174 -96 q 47 135 47 33 q 115 293 47 214 q 293 424 182 372 l 307 671 l 386 639 l 397 367 q 224 272 292 332 q 157 138 157 211 q 197 31 157 64 q 315 -3 238 -3 q 437 19 383 -3 q 549 83 490 42 l 563 -15 q 449 -74 507 -51 q 311 -96 392 -96 z "},"*":{"ha":475,"x_min":8,"x_max":468,"o":"m 282 918 l 444 953 l 468 881 l 306 849 l 418 686 l 356 638 l 239 794 l 122 638 l 57 686 l 171 849 q 90 865 163 850 q 8 881 18 879 l 31 953 l 193 918 q 194 994 193 926 q 194 1072 194 1063 l 281 1072 l 282 918 z "},"\"":{"ha":404,"x_min":8,"x_max":394,"o":"m 319 989 q 372 965 350 989 q 394 900 394 940 q 353 769 394 835 q 254 672 313 703 l 225 724 q 281 774 260 749 q 308 839 303 800 q 263 863 282 840 q 244 913 244 885 q 266 966 244 943 q 319 989 288 989 m 103 989 q 156 965 133 989 q 178 900 178 940 q 137 769 178 835 q 36 672 96 703 l 8 724 q 63 774 42 749 q 90 839 85 800 q 45 863 64 840 q 26 913 26 885 q 49 966 26 943 q 103 989 71 989 z "},"'":{"ha":188,"x_min":8,"x_max":178,"o":"m 103 989 q 156 965 133 989 q 178 900 178 940 q 137 769 178 835 q 36 672 96 703 l 8 724 q 63 774 42 749 q 90 839 85 800 q 45 863 64 840 q 26 913 26 885 q 49 966 26 943 q 103 989 71 989 z "},"‘":{"ha":188,"x_min":10,"x_max":181,"o":"m 85 672 q 31 697 51 672 q 10 760 10 721 q 51 892 10 826 q 150 989 92 958 l 181 936 q 123 887 146 913 q 94 822 100 861 q 141 798 122 821 q 160 747 160 775 q 138 695 160 718 q 85 672 117 672 z "},"’":{"ha":188,"x_min":8,"x_max":178,"o":"m 103 989 q 156 965 133 989 q 178 900 178 940 q 137 769 178 835 q 36 672 96 703 l 8 724 q 63 774 42 749 q 90 839 85 800 q 45 863 64 840 q 26 913 26 885 q 49 966 26 943 q 103 989 71 989 z "},"‚":{"ha":188,"x_min":8,"x_max":178,"o":"m 103 149 q 156 125 133 149 q 178 63 178 101 q 137 -71 178 -6 q 36 -167 96 -136 l 8 -114 q 63 -64 42 -90 q 90 1 85 -37 q 45 25 64 3 q 26 75 26 47 q 49 126 26 104 q 103 149 71 149 z "},"“":{"ha":404,"x_min":10,"x_max":396,"o":"m 85 672 q 31 697 51 672 q 10 760 10 721 q 51 892 10 826 q 150 989 92 958 l 181 936 q 123 887 146 913 q 94 822 100 861 q 141 798 122 821 q 160 747 160 775 q 138 695 160 718 q 85 672 117 672 m 301 672 q 249 697 271 672 q 226 760 226 721 q 267 892 226 826 q 368 989 308 958 l 396 936 q 340 887 363 913 q 314 822 317 861 q 359 798 340 821 q 378 747 378 775 q 355 695 378 718 q 301 672 332 672 z "},"”":{"ha":404,"x_min":8,"x_max":394,"o":"m 319 989 q 372 965 350 989 q 394 900 394 940 q 353 769 394 835 q 254 672 313 703 l 225 724 q 281 774 260 749 q 308 839 303 800 q 263 863 282 840 q 244 913 244 885 q 266 966 244 943 q 319 989 288 989 m 103 989 q 156 965 133 989 q 178 900 178 940 q 137 769 178 835 q 36 672 96 703 l 8 724 q 63 774 42 749 q 90 839 85 800 q 45 863 64 840 q 26 913 26 885 q 49 966 26 943 q 103 989 71 989 z "},"„":{"ha":404,"x_min":8,"x_max":394,"o":"m 103 150 q 156 126 133 150 q 178 63 178 101 q 137 -70 178 -4 q 36 -167 96 -136 l 8 -114 q 63 -64 42 -90 q 90 1 85 -37 q 45 25 64 3 q 26 75 26 47 q 49 128 26 106 q 103 150 71 150 m 319 149 q 372 125 350 149 q 394 63 394 101 q 353 -71 394 -6 q 254 -167 313 -136 l 225 -114 q 281 -64 260 -90 q 308 1 303 -37 q 263 25 282 3 q 244 75 244 47 q 266 126 244 104 q 319 149 288 149 z "},"·":{"ha":190,"x_min":19,"x_max":169,"o":"m 96 438 q 148 417 126 438 q 169 364 169 396 q 148 311 169 333 q 96 289 126 289 q 42 311 64 289 q 19 364 19 333 q 42 417 19 396 q 96 438 64 438 z "},"(":{"ha":349,"x_min":68,"x_max":326,"o":"m 236 -53 q 110 193 151 58 q 68 444 68 328 q 109 694 68 561 q 236 940 150 826 l 326 908 q 221 692 265 839 q 176 446 176 546 q 221 194 176 343 q 325 -21 265 46 l 236 -53 z "},")":{"ha":349,"x_min":22,"x_max":279,"o":"m 111 940 q 237 695 194 829 q 279 444 279 561 q 238 194 279 328 q 111 -53 196 61 l 22 -21 q 126 195 82 47 q 171 443 171 343 q 126 693 171 546 q 22 907 82 840 l 111 940 z "},"[":{"ha":376,"x_min":111,"x_max":368,"o":"m 111 967 l 368 967 l 353 883 l 215 883 l 215 -40 l 353 -40 l 368 -122 l 111 -122 l 111 967 z "},"]":{"ha":376,"x_min":8,"x_max":264,"o":"m 264 -122 l 8 -122 q 15 -81 11 -101 q 22 -40 18 -61 l 160 -40 l 160 883 l 22 883 q 15 925 18 904 q 8 967 11 946 l 264 967 l 264 -122 z "},"{":{"ha":383,"x_min":43,"x_max":365,"o":"m 233 771 q 259 676 233 736 q 285 578 285 617 q 266 484 285 519 q 206 431 247 449 q 265 372 244 411 q 285 279 285 333 q 259 180 285 240 q 233 86 233 119 q 256 42 233 63 q 321 22 278 22 l 356 22 q 360 -17 357 4 q 365 -58 363 -37 l 328 -58 q 185 -18 231 -58 q 139 96 139 22 q 164 195 139 138 q 189 292 189 253 q 158 364 189 336 q 93 392 128 392 l 43 392 l 43 463 l 93 463 q 156 494 128 463 q 183 572 183 525 q 163 674 183 618 q 142 772 142 729 q 190 878 142 840 q 328 915 238 915 l 365 915 q 360 874 363 894 q 356 833 357 853 l 321 833 q 253 812 274 833 q 233 771 233 790 z "},"}":{"ha":383,"x_min":18,"x_max":339,"o":"m 149 89 q 123 183 149 126 q 97 279 97 239 q 116 372 97 336 q 178 425 135 407 q 118 485 139 446 q 97 578 97 524 q 123 671 97 613 q 149 768 149 729 q 127 812 149 790 q 61 833 106 833 l 28 833 q 23 874 25 853 q 18 915 21 894 l 54 915 q 197 875 150 915 q 244 761 244 835 q 219 663 244 719 q 193 564 193 607 q 223 493 193 522 q 289 464 253 464 l 339 464 l 339 394 l 289 394 q 225 366 253 394 q 197 289 197 338 q 219 191 197 246 q 240 90 240 136 q 193 -19 240 19 q 54 -58 146 -58 l 18 -58 q 23 -17 21 -37 q 28 22 25 4 l 61 22 q 126 44 104 22 q 149 89 149 65 z "},"/":{"ha":547,"x_min":8,"x_max":539,"o":"m 539 981 l 114 -6 l 8 0 l 432 986 l 539 981 z "},"\\":{"ha":547,"x_min":8,"x_max":539,"o":"m 432 -6 l 8 981 l 114 986 l 539 0 l 432 -6 z "},"|":{"ha":375,"x_min":133,"x_max":243,"o":"m 243 979 l 243 -8 l 133 0 l 133 988 l 243 979 z "},"¦":{"ha":375,"x_min":133,"x_max":243,"o":"m 243 979 l 243 564 l 133 572 l 133 988 l 243 979 m 243 400 l 243 -8 l 133 0 l 133 407 l 243 400 z "},"«":{"ha":504,"x_min":39,"x_max":488,"o":"m 256 371 l 458 564 l 488 492 l 340 340 q 413 264 376 301 q 488 189 450 226 l 458 115 l 256 308 l 256 371 m 39 308 l 39 371 q 140 467 90 418 q 240 564 190 517 q 255 528 247 546 q 271 492 263 510 q 197 415 235 453 q 124 340 160 378 q 197 264 160 301 q 271 189 235 226 l 240 115 q 140 212 190 163 q 39 308 90 261 z "},"»":{"ha":504,"x_min":14,"x_max":464,"o":"m 46 564 l 247 371 l 247 308 l 46 117 l 14 189 l 161 340 l 14 492 l 46 564 m 263 564 l 464 371 l 464 308 l 263 117 l 231 189 l 379 340 l 231 492 l 263 564 z "},"π":{"ha":854,"x_min":29,"x_max":826,"o":"m 165 0 l 165 586 l 29 586 l 29 674 l 826 674 l 826 586 l 689 586 l 689 0 l 578 0 l 578 586 l 275 586 l 275 0 l 165 0 z "},"†":{"ha":507,"x_min":24,"x_max":483,"o":"m 314 1083 l 314 868 l 457 868 q 470 821 463 844 q 483 775 478 797 l 314 775 l 299 -6 l 210 0 l 196 775 l 50 775 q 37 821 44 797 q 24 868 29 844 l 196 868 l 196 1088 l 314 1083 z "},"‡":{"ha":554,"x_min":43,"x_max":510,"o":"m 214 -8 l 221 247 l 69 247 l 43 340 l 217 340 l 221 731 l 69 731 l 43 825 l 224 825 l 217 1088 l 340 1083 l 333 825 l 485 825 l 510 731 l 336 731 l 333 340 l 485 340 l 510 247 l 331 247 l 338 1 l 214 -8 z "},"•":{"ha":311,"x_min":32,"x_max":279,"o":"m 156 332 q 68 368 104 332 q 32 454 32 404 q 68 542 32 506 q 156 578 104 578 q 243 542 207 578 q 279 454 279 506 q 243 368 279 404 q 156 332 207 332 z "},"…":{"ha":601,"x_min":19,"x_max":581,"o":"m 511 140 q 560 120 540 140 q 581 69 581 100 q 560 20 581 40 q 511 0 540 0 q 461 20 482 0 q 440 69 440 40 q 461 120 440 100 q 511 140 482 140 m 304 140 q 353 120 333 140 q 374 69 374 100 q 353 20 374 40 q 304 0 333 0 q 253 20 274 0 q 232 69 232 40 q 253 120 232 100 q 304 140 274 140 m 90 140 q 141 120 121 140 q 161 69 161 100 q 141 20 161 40 q 90 0 121 0 q 40 20 61 0 q 19 69 19 40 q 40 120 19 100 q 90 140 61 140 z "},"‹":{"ha":289,"x_min":39,"x_max":271,"o":"m 39 307 l 39 374 q 140 470 90 421 q 240 567 190 519 q 255 527 247 547 q 271 488 263 507 l 129 340 q 200 266 164 303 q 271 192 236 229 q 255 153 263 174 q 240 115 247 133 l 39 307 z "},"›":{"ha":289,"x_min":15,"x_max":249,"o":"m 47 567 l 249 374 l 249 307 l 47 115 l 15 193 l 160 340 l 15 488 l 47 567 z "},"-":{"ha":406,"x_min":22,"x_max":383,"o":"m 383 336 l 35 336 l 22 424 l 371 424 l 383 336 z "},"_":{"ha":572,"x_min":22,"x_max":550,"o":"m 550 0 l 35 0 l 22 88 l 538 88 l 550 0 z "},"–":{"ha":572,"x_min":22,"x_max":550,"o":"m 550 336 l 35 336 l 22 424 l 538 424 l 550 336 z "},"—":{"ha":707,"x_min":22,"x_max":686,"o":"m 686 336 l 35 336 l 22 424 l 674 424 l 686 336 z "},"#":{"ha":696,"x_min":29,"x_max":667,"o":"m 614 703 l 572 528 l 656 528 l 667 443 l 551 443 l 510 267 l 656 267 l 667 182 l 490 182 l 446 -4 l 357 3 l 399 182 l 214 182 l 171 -4 l 81 3 l 122 182 l 42 182 l 29 267 l 143 267 l 183 443 l 42 443 l 29 528 l 206 528 l 246 703 l 338 703 l 296 528 l 481 528 l 521 703 l 614 703 m 276 443 l 235 267 l 418 267 l 460 443 l 276 443 z "},"%":{"ha":1194,"x_min":43,"x_max":1150,"o":"m 861 981 l 436 -6 l 331 0 l 754 986 l 861 981 m 43 739 q 108 911 43 847 q 263 975 172 975 q 421 913 358 975 q 483 739 483 851 q 419 567 483 631 q 264 504 354 504 q 106 565 168 504 q 43 739 43 626 m 146 739 q 181 625 146 661 q 264 589 217 589 q 343 624 306 589 q 381 739 381 658 q 345 853 381 818 q 263 889 310 889 q 183 854 221 889 q 146 739 146 819 m 711 235 q 776 406 711 343 q 932 469 840 469 q 1088 408 1026 469 q 1150 235 1150 346 q 1086 63 1150 126 q 932 0 1022 0 q 774 61 836 0 q 711 235 711 122 m 815 235 q 850 120 815 156 q 932 85 885 85 q 1010 120 974 85 q 1047 235 1047 156 q 1013 349 1047 313 q 932 385 978 385 q 852 350 889 385 q 815 235 815 315 z "},"+":{"ha":714,"x_min":28,"x_max":688,"o":"m 688 336 l 410 336 l 410 6 l 307 11 l 307 336 l 39 336 l 28 422 l 307 422 l 307 742 l 410 738 l 410 422 l 674 422 l 688 336 z "},"÷":{"ha":667,"x_min":28,"x_max":639,"o":"m 332 500 q 270 525 294 500 q 246 585 246 550 q 270 645 246 621 q 332 669 294 669 q 392 645 367 669 q 417 585 417 621 q 392 525 417 550 q 332 500 367 500 m 639 336 l 39 336 l 28 424 l 628 424 l 639 336 m 333 68 q 274 94 299 68 q 249 154 249 119 q 274 214 249 189 q 333 239 299 239 q 394 214 368 239 q 419 154 419 189 q 394 94 419 119 q 333 68 368 68 z "},"×":{"ha":679,"x_min":29,"x_max":651,"o":"m 29 58 l 268 350 l 39 635 l 142 651 l 336 410 q 438 530 386 469 q 539 651 489 590 l 651 651 q 522 494 588 574 q 393 338 457 415 l 629 42 l 517 42 l 325 278 q 274 217 299 247 q 226 158 250 188 l 129 40 l 29 58 z "},"±":{"ha":651,"x_min":29,"x_max":621,"o":"m 621 418 l 374 418 l 374 161 l 276 168 l 276 418 l 40 418 l 29 499 l 276 499 l 276 742 l 374 738 l 374 499 l 610 499 l 621 418 m 621 1 l 40 1 l 31 81 l 611 81 l 621 1 z "},"<":{"ha":446,"x_min":15,"x_max":403,"o":"m 371 26 l 15 306 l 15 375 l 371 653 l 403 569 l 119 340 l 403 111 l 371 26 z "},"=":{"ha":672,"x_min":29,"x_max":643,"o":"m 643 443 l 42 443 l 29 528 l 632 528 l 643 443 m 643 182 l 42 182 l 29 267 l 632 267 l 643 182 z "},">":{"ha":446,"x_min":43,"x_max":431,"o":"m 431 304 l 75 26 l 43 110 l 326 340 q 185 454 256 396 q 43 569 114 513 l 75 653 l 431 375 l 431 304 z "},"°":{"ha":342,"x_min":18,"x_max":324,"o":"m 171 982 q 278 940 233 982 q 324 836 324 897 q 278 732 324 772 q 171 692 233 692 q 63 732 108 692 q 18 836 18 772 q 63 940 18 897 q 171 982 108 982 m 249 835 q 226 889 249 867 q 171 911 203 911 q 116 889 138 911 q 94 836 94 867 q 116 781 94 804 q 171 757 138 757 q 226 780 203 757 q 249 835 249 803 z "},"¹":{"ha":469,"x_min":86,"x_max":397,"o":"m 397 467 l 97 467 l 86 542 l 197 542 l 197 949 q 163 925 181 938 q 128 903 146 913 l 88 969 l 232 1061 l 296 1061 l 296 542 l 386 542 q 391 504 388 524 q 397 467 394 485 z "},"²":{"ha":546,"x_min":43,"x_max":476,"o":"m 249 1071 q 410 1013 363 1071 q 457 894 457 954 q 420 782 457 835 q 307 664 383 729 l 164 543 l 465 543 l 476 467 l 43 467 l 43 540 l 253 721 q 336 817 314 776 q 358 894 358 858 q 331 960 358 929 q 243 990 304 990 q 152 965 194 990 q 108 938 110 939 l 71 1013 q 128 1044 79 1018 q 249 1071 176 1071 z "},"³":{"ha":572,"x_min":39,"x_max":485,"o":"m 261 1071 q 420 1019 368 1071 q 472 900 472 968 q 439 803 472 844 q 363 747 406 763 q 449 691 414 736 q 485 582 485 646 q 420 442 485 499 q 246 386 356 386 q 133 404 188 386 q 39 444 78 422 l 82 513 q 155 478 119 490 q 244 467 190 467 q 344 496 303 467 q 386 581 386 525 q 346 675 386 642 q 210 708 306 708 l 183 708 l 172 786 l 217 786 q 335 817 296 786 q 374 899 374 847 q 344 965 374 938 q 254 992 314 992 q 159 974 199 992 q 93 939 119 957 l 54 1006 q 147 1052 97 1033 q 261 1071 197 1071 z "},"¼":{"ha":1089,"x_min":86,"x_max":1044,"o":"m 397 467 l 97 467 l 86 542 l 197 542 l 197 949 q 163 925 181 938 q 128 903 146 913 l 88 969 l 232 1061 l 296 1061 l 296 542 l 386 542 q 391 504 388 524 q 397 467 394 485 m 354 -6 l 247 0 q 448 348 347 174 q 649 696 549 522 l 756 692 q 555 343 656 518 q 354 -6 454 168 m 1036 -106 l 932 -106 l 932 -226 l 838 -226 l 838 -106 l 525 -106 l 519 -51 q 517 -39 518 -46 q 517 -26 517 -32 l 526 -15 q 697 215 610 99 q 867 446 783 331 l 932 446 l 932 -26 l 1044 -26 l 1036 -106 m 618 -26 l 838 -26 l 838 271 l 618 -26 z "},"½":{"ha":1142,"x_min":86,"x_max":1072,"o":"m 397 467 l 97 467 l 86 542 l 197 542 l 197 949 q 163 925 181 938 q 128 903 146 913 l 88 969 l 232 1061 l 296 1061 l 296 542 l 386 542 q 391 504 388 524 q 397 467 394 485 m 744 692 l 342 -6 l 238 0 q 438 348 338 174 q 639 696 539 522 l 744 692 m 844 451 q 1005 393 957 451 q 1053 275 1053 335 q 975 114 1053 192 q 761 -76 897 36 l 1061 -76 l 1072 -153 l 640 -153 l 640 -79 l 849 103 q 931 197 908 156 q 954 275 954 239 q 929 339 954 306 q 840 372 904 372 q 749 347 792 372 q 706 319 707 321 l 668 394 q 725 426 676 400 q 844 451 774 451 z "},"¾":{"ha":1158,"x_min":39,"x_max":1115,"o":"m 422 -6 l 317 0 q 517 348 417 174 q 718 696 618 522 l 825 692 l 422 -6 m 261 1071 q 419 1019 367 1071 q 472 900 472 968 q 439 803 472 844 q 363 747 406 761 q 449 691 414 736 q 485 581 485 646 q 420 442 485 499 q 244 386 356 386 q 132 404 186 386 q 39 444 78 422 l 82 513 q 155 478 119 490 q 244 465 190 465 q 344 494 303 465 q 386 579 386 524 q 345 675 386 642 q 208 708 304 708 l 183 708 q 178 747 182 728 q 172 785 174 767 l 215 785 q 336 819 299 785 q 374 899 374 853 q 344 962 374 933 q 254 990 315 990 q 159 973 199 990 q 93 938 119 956 q 74 972 83 956 q 54 1006 64 989 q 147 1052 97 1033 q 261 1071 197 1071 m 1107 -106 l 1003 -106 l 1003 -226 l 907 -226 l 907 -106 l 596 -106 q 588 -67 592 -87 q 585 -26 585 -46 q 590 -20 588 -24 q 596 -15 593 -17 q 767 215 681 99 q 936 446 853 331 l 1003 446 l 1003 -26 l 1115 -26 l 1107 -106 m 689 -26 l 907 -26 l 907 271 l 689 -26 z "},"℮":{"ha":724,"x_min":61,"x_max":663,"o":"m 663 319 l 175 319 q 232 142 179 213 q 399 72 285 72 q 508 87 465 72 q 590 119 551 101 l 625 39 q 512 -3 582 10 q 401 -17 442 -17 q 147 83 233 -17 q 61 339 61 182 q 144 592 61 492 q 375 692 226 692 q 597 582 532 692 q 663 319 663 472 m 554 394 q 501 542 544 485 q 371 599 458 599 q 235 542 283 599 q 176 394 188 485 l 554 394 z "},"∂":{"ha":757,"x_min":65,"x_max":672,"o":"m 672 376 q 578 94 672 188 q 347 0 485 0 q 144 88 222 0 q 65 288 65 176 q 142 481 65 396 q 350 565 218 565 q 460 542 410 565 q 549 485 511 518 q 439 697 522 601 q 235 821 356 793 l 283 889 q 567 691 461 853 q 672 376 672 529 m 564 347 q 481 433 538 396 q 350 471 425 471 q 219 413 267 471 q 171 279 171 356 q 219 149 171 206 q 351 92 268 92 q 506 161 454 92 q 564 347 558 231 z "},"∏":{"ha":828,"x_min":111,"x_max":717,"o":"m 111 944 l 717 944 l 717 0 l 611 0 l 611 863 l 215 863 l 215 0 l 111 0 l 111 944 z "},"∑":{"ha":656,"x_min":50,"x_max":608,"o":"m 569 861 l 167 861 l 417 501 l 417 456 l 165 86 l 596 86 q 601 43 599 64 q 608 0 604 22 l 50 0 l 50 86 l 322 478 q 188 669 256 574 q 51 861 119 765 l 51 944 l 557 944 l 569 861 z "},"−":{"ha":624,"x_min":22,"x_max":601,"o":"m 601 336 l 33 336 l 22 424 l 588 424 l 601 336 z "},"√":{"ha":764,"x_min":8,"x_max":756,"o":"m 756 981 l 351 -6 l 239 0 l 8 440 l 118 446 l 296 111 l 653 986 l 756 981 z "},"∞":{"ha":1196,"x_min":75,"x_max":1119,"o":"m 1018 361 q 970 492 1018 436 q 836 547 922 547 q 710 479 757 547 q 644 340 664 411 q 636 317 640 331 q 629 294 632 304 q 715 195 663 235 q 835 154 767 156 q 970 216 922 154 q 1018 361 1018 278 m 178 340 q 226 210 178 265 q 358 154 275 154 q 485 222 438 154 q 551 361 532 290 l 567 407 q 481 506 535 467 q 360 546 428 544 q 226 485 275 547 q 178 340 178 424 m 356 639 q 498 599 435 639 q 608 496 561 558 q 702 598 647 556 q 836 640 757 640 q 1042 562 964 640 q 1119 358 1119 483 q 1042 148 1119 233 q 839 63 964 63 q 697 101 761 63 q 583 208 633 140 q 492 105 547 149 q 358 61 438 61 q 153 139 232 61 q 75 342 75 217 q 153 553 75 467 q 356 639 231 639 z "},"∫":{"ha":489,"x_min":13,"x_max":478,"o":"m 300 -42 q 250 -192 300 -136 q 113 -249 200 -249 q 56 -241 85 -249 q 13 -225 28 -233 l 38 -137 q 66 -147 49 -143 q 97 -150 83 -150 q 169 -118 149 -150 q 190 -36 190 -86 l 190 882 q 240 1033 190 978 q 375 1088 289 1088 q 434 1081 406 1088 q 478 1064 463 1074 l 451 978 q 423 988 440 982 q 392 993 406 993 q 320 960 340 993 q 300 875 300 926 l 300 -42 z "},"≈":{"ha":668,"x_min":25,"x_max":643,"o":"m 560 553 l 643 532 q 583 428 643 451 q 469 404 522 404 q 335 435 419 404 q 186 465 250 465 q 139 453 169 465 q 106 408 108 442 l 25 428 q 87 533 25 511 q 201 556 149 556 q 344 525 257 556 q 486 494 431 494 q 531 507 504 496 q 560 553 558 518 m 560 303 l 643 282 q 583 178 643 200 q 469 156 522 156 q 335 186 419 156 q 186 217 250 217 q 139 204 169 217 q 106 160 108 192 l 25 178 q 87 284 25 261 q 201 307 149 307 q 344 276 257 307 q 486 244 431 244 q 531 257 504 246 q 560 303 558 268 z "},"≠":{"ha":661,"x_min":24,"x_max":638,"o":"m 536 718 l 453 528 l 626 528 l 638 443 l 415 443 l 336 267 l 626 267 l 638 182 l 299 182 l 208 -21 l 113 -14 l 200 182 l 36 182 l 24 267 l 238 267 l 315 443 l 36 443 l 24 528 l 354 528 l 440 722 l 536 718 z "},"≤":{"ha":450,"x_min":18,"x_max":411,"o":"m 381 146 l 18 368 l 18 446 l 381 668 l 411 583 l 126 408 l 411 231 l 381 146 m 407 0 l 29 0 l 18 83 l 399 83 l 407 0 z "},"≥":{"ha":450,"x_min":38,"x_max":433,"o":"m 433 368 l 69 146 l 38 231 l 322 408 l 38 583 l 69 668 l 433 446 l 433 368 m 428 0 l 50 0 l 38 83 l 417 83 l 428 0 z "},"‰":{"ha":1715,"x_min":43,"x_max":1672,"o":"m 863 981 l 436 -6 l 331 0 l 754 986 l 863 981 m 43 739 q 108 911 43 847 q 263 975 172 975 q 421 913 358 975 q 483 739 483 851 q 419 567 483 631 q 264 504 354 504 q 106 565 168 504 q 43 739 43 626 m 146 739 q 181 625 146 661 q 264 589 217 589 q 343 624 306 589 q 381 739 381 658 q 345 853 381 818 q 263 889 310 889 q 183 854 221 889 q 146 739 146 819 m 1233 235 q 1297 406 1233 343 q 1453 469 1361 469 q 1610 408 1549 469 q 1672 235 1672 346 q 1608 63 1672 126 q 1453 0 1543 0 q 1295 61 1357 0 q 1233 235 1233 122 m 711 235 q 776 406 711 343 q 932 469 840 469 q 1088 408 1026 469 q 1150 235 1150 346 q 1086 63 1150 126 q 932 0 1022 0 q 774 61 836 0 q 711 235 711 122 m 1335 235 q 1370 120 1335 156 q 1453 85 1406 85 q 1533 120 1496 85 q 1569 235 1569 156 q 1534 349 1569 313 q 1453 385 1499 385 q 1373 350 1411 385 q 1335 235 1335 315 m 815 235 q 850 120 815 156 q 932 85 885 85 q 1010 120 974 85 q 1047 235 1047 156 q 1013 349 1047 313 q 932 385 978 385 q 852 350 889 385 q 815 235 815 315 z "},"⁄":{"ha":547,"x_min":8,"x_max":539,"o":"m 539 981 l 114 -6 l 8 0 l 432 986 l 539 981 z "},"◊":{"ha":739,"x_min":39,"x_max":700,"o":"m 349 0 l 39 400 l 39 431 l 349 832 l 392 832 l 700 431 l 700 400 l 392 0 l 349 0 m 146 415 l 368 121 l 594 415 l 368 711 l 146 415 z "},"©":{"ha":1179,"x_min":79,"x_max":1099,"o":"m 1099 467 q 961 110 1099 257 q 589 -37 824 -37 q 217 110 354 -37 q 79 467 79 257 q 217 825 79 678 q 589 972 354 972 q 961 825 824 972 q 1099 467 1099 678 m 169 468 q 282 163 169 286 q 589 40 394 40 q 897 163 783 40 q 1010 468 1010 286 q 897 773 1010 650 q 589 896 783 896 q 282 773 394 896 q 169 468 169 650 m 613 703 q 466 638 514 703 q 418 475 418 572 q 463 300 418 363 q 608 238 507 238 q 708 251 674 238 q 781 283 742 265 l 813 206 q 712 160 772 175 q 608 146 651 146 q 383 238 460 146 q 307 474 307 329 q 388 705 307 614 q 614 796 469 796 q 717 781 656 796 q 818 738 778 767 l 785 657 q 713 689 747 675 q 613 703 679 703 z "},"®":{"ha":1028,"x_min":64,"x_max":963,"o":"m 963 676 q 842 362 963 490 q 514 233 721 233 q 185 362 307 233 q 64 676 64 490 q 185 992 64 863 q 514 1122 307 1122 q 842 992 721 1122 q 963 676 963 863 m 147 678 q 244 414 147 519 q 514 307 342 308 q 781 414 683 308 q 879 678 879 519 q 781 944 879 839 q 514 1049 683 1049 q 244 944 342 1049 q 147 678 147 839 m 481 876 l 435 876 l 435 703 l 476 703 q 571 718 531 703 q 611 789 611 733 q 574 863 611 850 q 481 876 538 876 m 739 422 l 643 422 q 585 529 614 475 q 528 638 556 583 q 508 637 518 638 q 488 636 497 636 l 435 636 l 435 422 l 350 422 l 350 944 l 504 944 q 641 909 586 944 q 696 792 696 874 q 670 706 696 739 q 607 656 644 672 q 673 539 639 597 q 739 422 707 481 z "},"™":{"ha":1033,"x_min":21,"x_max":961,"o":"m 431 874 l 268 874 l 268 424 l 181 424 l 181 874 l 21 874 l 21 944 l 424 944 q 427 909 425 926 q 431 874 429 892 m 749 567 q 738 565 743 565 q 726 563 732 564 q 658 658 692 610 q 590 753 624 706 l 590 424 l 503 424 l 503 944 l 540 944 l 736 682 l 924 944 l 961 944 l 961 424 l 876 424 l 876 750 l 749 567 z "},"&":{"ha":947,"x_min":79,"x_max":903,"o":"m 192 294 q 267 130 192 182 q 436 78 343 78 q 563 101 507 78 q 657 168 618 125 l 371 428 q 328 467 351 447 q 292 501 306 488 q 219 417 244 471 q 192 294 193 363 m 632 824 q 556 858 594 842 q 449 874 518 874 q 336 827 378 874 q 294 725 294 781 q 331 613 294 658 q 435 503 367 567 l 710 246 q 749 356 735 296 q 768 488 764 417 l 857 451 q 836 302 853 372 q 789 175 819 232 l 903 71 l 846 -6 l 732 97 q 610 13 683 43 q 436 -18 536 -18 q 183 61 288 -17 q 79 292 79 139 q 122 457 81 382 q 229 575 164 532 q 198 639 208 604 q 188 717 188 674 q 256 892 188 817 q 449 967 324 967 q 572 949 518 967 q 671 908 625 931 l 632 824 z "},"@":{"ha":1113,"x_min":72,"x_max":1043,"o":"m 746 576 l 781 535 q 751 286 756 325 q 747 246 747 247 q 770 188 747 203 q 815 172 793 172 q 910 237 872 172 q 949 414 949 301 q 856 649 949 557 q 610 742 764 742 q 308 622 439 742 q 176 300 176 503 q 281 40 176 135 q 535 -54 386 -54 q 653 -42 590 -54 q 763 -6 715 -31 l 790 -87 q 658 -132 728 -119 q 519 -144 588 -144 q 210 -23 349 -144 q 72 300 72 99 q 217 671 72 514 q 613 828 361 828 q 922 713 801 828 q 1043 422 1043 597 q 978 172 1043 256 q 806 88 913 88 q 743 99 772 88 q 693 133 714 111 q 633 103 668 117 q 563 89 599 89 q 389 147 446 89 q 332 297 332 206 q 428 501 332 425 q 644 576 524 576 l 746 576 m 561 172 q 619 185 593 172 q 658 218 644 197 q 656 232 657 224 q 656 247 656 240 q 667 367 656 306 q 688 499 678 429 l 629 499 q 493 442 551 496 q 435 297 435 388 q 463 213 435 253 q 561 172 492 172 z "},"^":{"ha":599,"x_min":19,"x_max":578,"o":"m 129 199 l 19 199 l 254 542 l 343 542 l 578 199 l 469 199 l 300 447 l 129 199 z "},"~":{"ha":532,"x_min":25,"x_max":506,"o":"m 506 422 q 464 302 506 336 q 364 268 422 268 q 256 298 308 268 q 169 328 204 328 q 131 316 147 328 q 113 272 115 304 l 25 272 l 25 282 q 68 393 25 361 q 167 425 111 425 q 274 394 229 425 q 357 364 319 364 q 397 376 378 364 q 417 422 415 388 l 506 422 z "},"§":{"ha":831,"x_min":69,"x_max":758,"o":"m 589 256 q 635 303 619 275 q 651 365 651 332 q 496 529 651 476 q 236 669 340 582 q 192 624 207 651 q 176 561 176 596 q 329 395 176 449 q 589 256 482 342 m 111 -14 q 212 -52 149 -32 q 343 -72 275 -72 q 511 -29 453 -72 q 569 82 569 14 q 319 288 569 231 q 69 557 69 344 q 98 665 69 617 q 175 746 126 714 q 158 793 164 768 q 151 847 151 818 q 233 1015 151 947 q 456 1083 315 1083 q 587 1066 524 1083 q 693 1026 650 1049 l 657 940 q 572 974 618 958 q 456 990 526 990 q 312 953 365 990 q 258 849 258 915 q 508 635 258 693 q 758 371 758 576 q 731 260 758 310 q 651 178 703 211 q 671 132 664 156 q 678 79 678 108 q 590 -95 678 -25 q 344 -165 501 -165 q 198 -144 285 -165 q 85 -99 111 -122 q 97 -56 90 -78 q 111 -14 104 -35 z "},"ª":{"ha":476,"x_min":50,"x_max":419,"o":"m 142 647 q 160 603 142 622 q 213 583 178 583 q 277 603 247 583 q 328 649 307 622 l 328 713 l 233 713 q 168 695 194 713 q 142 647 142 678 m 79 935 q 152 964 106 953 q 226 975 199 975 q 367 924 314 975 q 419 806 419 874 l 419 515 l 358 515 l 339 563 q 284 523 318 542 q 211 504 250 504 q 94 544 139 504 q 50 644 50 583 q 99 745 50 708 q 218 782 147 782 l 326 782 q 306 856 326 819 q 228 892 286 892 q 155 882 185 892 q 100 863 125 872 l 79 935 z "},"¬":{"ha":710,"x_min":22,"x_max":681,"o":"m 681 494 l 681 156 l 582 163 l 582 476 l 33 476 l 22 564 l 669 564 l 681 494 z "},"¶":{"ha":1186,"x_min":68,"x_max":1140,"o":"m 479 0 l 479 357 l 432 357 q 176 428 283 357 q 68 654 69 500 q 168 878 68 811 q 417 944 268 944 l 1140 944 l 1140 857 l 1006 857 l 1006 0 l 894 0 l 894 857 l 589 857 l 589 0 l 479 0 z "},"º":{"ha":543,"x_min":51,"x_max":492,"o":"m 268 504 q 110 566 169 504 q 51 739 51 628 q 113 911 51 847 q 271 975 175 975 q 431 912 371 975 q 492 739 492 849 q 428 567 492 631 q 268 504 364 504 m 389 738 q 355 854 389 817 q 271 892 321 892 q 190 856 228 892 q 151 739 151 821 q 187 624 151 661 q 269 586 222 586 q 351 622 314 586 q 389 738 389 657 z "},"":{"ha":0,"x_min":24,"x_max":610,"o":"m 610 1201 l 528 1149 q 433 1263 488 1228 q 317 1299 379 1299 q 197 1262 253 1299 q 104 1149 142 1225 q 63 1175 83 1161 q 24 1201 43 1189 q 148 1343 72 1299 q 317 1388 224 1388 q 483 1343 408 1388 q 610 1201 558 1299 m 318 1063 q 260 1086 283 1063 q 236 1144 236 1110 q 260 1203 236 1179 q 318 1226 283 1226 q 376 1203 351 1226 q 400 1144 400 1179 q 376 1086 400 1110 q 318 1063 351 1063 z "},"ँ":{"ha":0,"x_min":24,"x_max":610,"o":"m 318 1226 q 260 1250 283 1226 q 238 1307 238 1274 q 260 1364 238 1340 q 318 1388 283 1388 q 376 1364 353 1388 q 400 1307 400 1340 q 376 1250 400 1274 q 318 1226 353 1226 m 528 1301 l 610 1251 q 483 1108 558 1153 q 317 1063 408 1063 q 149 1108 224 1063 q 24 1251 74 1153 l 104 1301 q 197 1189 142 1226 q 317 1151 253 1151 q 433 1188 379 1151 q 528 1301 488 1225 z "},"ं":{"ha":0,"x_min":24,"x_max":186,"o":"m 104 1047 q 47 1071 71 1047 q 24 1128 24 1094 q 47 1186 24 1163 q 104 1210 71 1210 q 163 1186 139 1210 q 186 1128 186 1163 q 163 1071 186 1094 q 104 1047 139 1047 z "},"ः":{"ha":218,"x_min":28,"x_max":190,"o":"m 108 569 q 51 593 74 569 q 28 650 28 617 q 51 708 28 685 q 108 732 74 732 q 167 708 143 732 q 190 650 190 685 q 167 593 190 617 q 108 569 143 569 m 108 89 q 51 113 74 89 q 28 171 28 136 q 51 228 28 204 q 108 251 74 251 q 167 228 143 251 q 190 171 190 204 q 167 113 190 136 q 108 89 143 89 z "},"ऄ":{"ha":1235,"x_min":93,"x_max":1250,"o":"m 694 254 q 610 58 694 136 q 367 -21 525 -21 q 212 2 283 -21 q 93 57 140 25 l 114 157 q 231 98 167 119 q 367 76 296 76 q 510 120 449 76 q 572 251 572 164 q 517 392 572 340 q 314 443 463 443 l 215 443 q 201 485 208 464 q 188 529 194 507 l 324 529 q 496 581 440 529 q 551 710 551 633 q 510 820 551 774 q 382 867 469 867 q 248 842 311 867 q 125 774 185 817 q 118 824 122 799 q 110 875 114 850 q 234 940 161 914 q 389 965 307 965 q 608 889 542 965 q 675 713 675 813 q 644 609 675 657 q 567 531 614 561 l 951 531 l 951 849 l 796 849 l 772 944 l 954 944 l 954 963 q 923 1044 954 1013 q 828 1076 892 1076 l 785 1076 q 608 1131 675 1076 q 540 1272 540 1186 l 540 1303 q 595 1292 567 1297 q 650 1281 624 1286 q 687 1203 650 1231 q 781 1176 724 1176 l 825 1176 q 1001 1117 932 1176 q 1071 975 1071 1058 l 1071 944 l 1228 944 l 1250 849 l 1071 849 l 1071 -22 l 951 0 l 951 440 l 586 440 q 666 363 638 410 q 694 254 694 315 z "},"अ":{"ha":1235,"x_min":93,"x_max":1250,"o":"m 694 254 q 610 58 694 136 q 367 -21 525 -21 q 212 2 283 -21 q 93 57 140 25 l 114 157 q 231 98 167 119 q 367 76 296 76 q 513 120 453 76 q 572 251 572 164 q 517 392 572 340 q 314 443 463 443 l 215 443 q 201 485 208 464 q 188 529 194 507 l 324 529 q 496 581 440 529 q 551 710 551 633 q 510 820 551 774 q 382 867 469 867 q 248 842 311 867 q 125 774 185 817 q 118 824 122 799 q 110 875 114 850 q 234 940 161 914 q 389 965 307 965 q 608 889 542 965 q 675 713 675 813 q 644 609 675 657 q 567 531 614 561 l 951 531 l 951 849 l 796 849 l 772 944 l 1228 944 l 1250 849 l 1071 849 l 1071 -22 l 951 0 l 951 440 l 586 440 q 666 363 638 410 q 694 254 694 315 z "},"आ":{"ha":1638,"x_min":93,"x_max":1653,"o":"m 694 254 q 610 58 694 136 q 367 -21 525 -21 q 212 2 283 -21 q 93 57 140 25 l 114 157 q 231 98 167 119 q 367 76 296 76 q 513 120 453 76 q 572 251 572 164 q 517 392 572 340 q 314 443 463 443 l 215 443 q 201 485 208 464 q 188 529 194 507 l 324 529 q 496 581 440 529 q 551 710 551 633 q 510 820 551 774 q 382 867 469 867 q 248 842 311 867 q 125 774 185 817 q 118 824 122 799 q 110 875 114 850 q 234 940 161 914 q 389 965 307 965 q 608 889 542 965 q 675 713 675 813 q 644 609 675 657 q 567 531 614 561 l 951 531 l 951 849 l 796 849 l 772 944 l 1632 944 q 1642 897 1638 921 q 1653 849 1647 872 l 1475 849 l 1475 -22 l 1354 0 l 1354 849 l 1071 849 l 1071 -22 l 951 0 l 951 440 l 586 440 q 666 363 638 410 q 694 254 694 315 z "},"इ":{"ha":749,"x_min":-15,"x_max":763,"o":"m 271 88 q 326 77 297 81 q 382 72 354 74 q 522 111 476 72 q 567 206 567 150 q 528 300 567 263 q 424 338 489 338 l 293 338 q 140 391 210 338 q 71 528 71 444 q 135 667 71 617 q 290 718 199 718 l 490 718 l 490 849 l 3 849 q -6 897 -1 872 q -15 944 -10 921 l 743 944 l 763 849 l 610 849 l 610 618 l 292 618 q 218 592 249 618 q 188 528 188 565 q 217 463 188 489 q 294 436 247 436 l 411 436 q 613 378 539 436 q 688 204 688 319 q 608 44 688 113 q 385 -24 529 -24 q 349 -22 367 -24 q 313 -18 331 -19 l 364 -86 l 442 -181 l 363 -237 q 275 -122 319 -179 q 186 -8 231 -65 q 106 48 146 10 q 65 138 65 86 q 83 180 65 164 q 129 196 101 196 q 218 164 179 196 q 271 88 257 132 z "},"ई":{"ha":747,"x_min":-15,"x_max":763,"o":"m 271 88 q 326 77 297 81 q 382 72 354 74 q 522 108 472 74 q 571 206 571 142 q 529 299 571 261 q 424 338 488 338 l 293 338 q 140 391 210 338 q 71 528 71 444 q 135 667 71 617 q 290 718 199 718 l 490 718 l 490 849 l 3 849 q -6 897 -1 872 q -15 944 -10 921 l 472 944 q 415 1030 439 975 q 392 1131 392 1085 q 442 1269 392 1207 q 579 1331 492 1331 q 680 1313 639 1331 q 740 1278 721 1294 l 696 1201 q 651 1226 674 1214 q 593 1238 628 1238 q 524 1200 549 1238 q 499 1121 499 1163 q 528 1020 499 1069 q 589 944 558 971 l 743 944 l 763 849 l 610 849 l 610 618 l 292 618 q 217 591 246 618 q 188 528 188 564 q 217 463 188 489 q 294 436 247 436 l 411 436 q 613 378 539 436 q 688 204 688 319 q 609 45 688 114 q 386 -24 531 -24 q 349 -22 368 -24 q 313 -18 331 -21 l 442 -181 l 363 -237 q 275 -123 319 -181 q 186 -8 231 -65 q 106 48 146 10 q 67 138 67 86 q 84 180 67 164 q 129 196 101 196 q 218 164 179 196 q 271 88 257 132 z "},"उ":{"ha":779,"x_min":-15,"x_max":793,"o":"m 690 254 q 605 58 690 136 q 363 -21 519 -21 q 208 2 279 -21 q 88 57 136 25 l 110 157 q 228 98 164 119 q 363 76 292 76 q 507 120 447 76 q 567 251 567 164 q 510 391 567 339 q 308 443 454 443 l 210 443 l 183 529 l 319 529 q 490 581 435 529 q 546 710 546 633 q 524 792 546 754 q 460 849 503 831 l 4 849 q -5 897 0 872 q -15 944 -10 921 l 772 944 l 793 849 l 622 849 q 658 785 644 822 q 671 713 671 749 q 631 582 671 650 q 506 488 590 514 q 649 392 607 461 q 690 254 690 322 z "},"ऊ":{"ha":1193,"x_min":-15,"x_max":1208,"o":"m 622 850 q 658 786 644 824 q 671 714 671 749 q 631 583 671 651 q 506 488 590 514 q 570 465 542 478 q 618 432 599 451 q 716 503 653 468 q 864 538 779 538 q 1083 456 1004 538 q 1163 253 1163 375 q 1074 47 1163 122 q 868 -28 985 -28 l 847 71 q 984 122 931 71 q 1038 256 1038 174 q 988 388 1038 336 q 864 439 939 439 q 747 410 793 439 q 674 346 701 381 q 687 299 683 324 q 690 254 690 275 q 605 57 690 136 q 363 -22 519 -22 q 208 1 279 -22 q 88 57 136 25 l 110 157 q 228 99 164 119 q 363 76 292 78 q 507 120 447 75 q 567 251 567 165 q 512 392 567 340 q 308 443 457 443 l 210 443 l 183 529 l 319 529 q 491 581 435 529 q 547 710 547 633 q 525 794 547 756 q 460 850 503 832 l 6 850 l -15 944 l 1188 944 l 1208 850 l 622 850 z "},"ऋ":{"ha":1250,"x_min":-15,"x_max":1265,"o":"m 822 150 q 878 136 857 139 q 933 133 899 133 q 1016 169 978 133 q 1054 283 1054 204 q 1031 389 1054 339 q 965 494 1008 439 q 847 409 931 443 q 651 375 763 375 l 651 -22 l 531 0 l 531 321 l 183 129 l 121 215 l 501 426 q 360 544 419 519 q 247 569 301 569 q 180 557 218 569 q 106 529 142 544 l 60 626 q 151 658 94 644 q 233 671 208 671 q 374 652 297 671 q 531 535 450 633 l 531 849 l 4 849 q -5 897 0 872 q -15 944 -10 921 l 1243 944 l 1265 849 l 651 849 l 651 471 q 824 506 764 471 q 906 575 883 540 q 882 610 893 588 q 871 664 871 633 q 891 711 871 696 q 942 726 911 726 q 1028 701 985 726 q 1071 625 1071 675 q 1064 592 1071 608 q 1039 557 1057 575 q 1134 409 1104 493 q 1164 274 1164 325 q 1105 103 1164 172 q 935 35 1046 35 q 863 40 894 35 q 796 57 831 44 q 808 103 801 79 q 822 150 815 128 z "},"ऌ":{"ha":1206,"x_min":-15,"x_max":1221,"o":"m 849 0 q 881 -77 849 -47 q 968 -107 913 -107 q 1008 -103 989 -107 q 1053 -92 1026 -100 l 1072 -183 q 1013 -196 1042 -192 q 953 -200 983 -200 q 808 -147 874 -200 q 742 0 742 -93 q 799 137 742 86 q 924 197 856 188 l 924 396 q 885 524 921 475 q 782 574 850 574 q 678 519 714 574 q 643 379 643 465 l 643 208 l 528 233 l 526 379 q 490 517 526 465 q 371 571 453 569 q 265 526 308 571 q 222 426 222 482 q 262 240 222 328 q 372 6 301 153 l 275 -28 q 158 213 207 106 q 108 436 108 319 q 186 601 108 529 q 371 675 264 674 q 493 647 439 674 q 582 574 547 621 q 667 649 615 622 q 783 675 719 675 q 860 663 824 675 q 924 629 897 651 l 924 850 l 6 850 l -15 944 l 1200 944 l 1221 850 l 1044 850 l 1044 107 l 968 107 q 881 77 913 107 q 849 0 849 47 z "},"ऍ":{"ha":960,"x_min":-15,"x_max":975,"o":"m 704 1301 l 786 1251 q 660 1108 735 1153 q 493 1064 585 1064 q 325 1109 400 1064 q 201 1251 250 1154 l 281 1301 q 374 1190 318 1226 q 493 1153 429 1153 q 610 1189 556 1153 q 704 1301 664 1225 m 685 375 l 685 850 l 288 850 l 288 203 q 302 124 288 164 q 356 58 317 85 l 717 -167 l 656 -256 l 304 -47 q 203 47 239 -10 q 168 194 168 103 l 168 850 l 6 850 l -15 944 l 956 944 l 975 850 l 806 850 l 806 344 q 753 193 806 249 q 586 100 701 138 l 538 190 q 651 255 617 218 q 685 375 685 292 z "},"ऎ":{"ha":960,"x_min":-15,"x_max":975,"o":"m 394 1176 l 554 1176 q 731 1117 661 1176 q 800 975 800 1058 l 800 944 l 954 944 l 975 849 l 806 849 l 806 343 q 753 192 806 247 q 586 100 701 136 q 561 145 574 122 q 538 190 549 168 q 650 255 615 218 q 685 375 685 292 l 685 849 l 288 849 l 288 203 q 302 123 288 164 q 356 58 317 82 l 717 -165 l 656 -256 l 321 -57 q 208 41 247 -14 q 168 194 168 96 l 168 849 l 4 849 q -5 897 0 872 q -15 944 -10 921 l 683 944 l 683 963 q 651 1043 683 1010 q 557 1076 618 1076 l 399 1076 q 222 1131 289 1076 q 154 1272 154 1186 l 154 1303 q 209 1292 181 1297 q 264 1281 238 1286 q 301 1203 264 1231 q 394 1176 338 1176 z "},"ए":{"ha":960,"x_min":-15,"x_max":975,"o":"m 685 375 l 685 850 l 288 850 l 288 203 q 302 124 288 164 q 356 58 317 85 l 717 -167 l 656 -256 l 304 -47 q 203 47 239 -10 q 168 194 168 103 l 168 850 l 6 850 l -15 944 l 956 944 l 975 850 l 806 850 l 806 344 q 753 193 806 249 q 586 100 701 138 l 538 190 q 651 255 617 218 q 685 375 685 292 z "},"ऐ":{"ha":960,"x_min":-15,"x_max":975,"o":"m 685 375 l 685 850 l 288 850 l 288 203 q 302 124 288 164 q 356 58 317 85 l 717 -167 l 656 -256 l 304 -47 q 203 47 239 -10 q 168 194 168 103 l 168 850 l 6 850 l -15 944 l 642 944 l 311 1249 l 406 1315 l 779 944 l 956 944 l 975 850 l 806 850 l 806 344 q 753 193 806 249 q 586 100 701 138 l 538 190 q 651 255 617 218 q 685 375 685 292 z "},"ऑ":{"ha":1638,"x_min":93,"x_max":1653,"o":"m 1426 1301 l 1508 1251 q 1383 1108 1457 1153 q 1217 1064 1308 1064 q 1047 1108 1122 1064 q 922 1251 972 1153 l 1003 1301 q 1097 1190 1042 1226 q 1217 1153 1153 1153 q 1330 1188 1274 1153 q 1426 1301 1386 1224 m 694 254 q 610 58 694 136 q 367 -21 525 -21 q 212 2 283 -21 q 93 57 140 25 l 114 157 q 231 98 167 119 q 367 76 296 76 q 513 120 453 76 q 572 251 572 164 q 517 392 572 340 q 314 443 463 443 l 215 443 q 201 485 208 464 q 188 529 194 507 l 324 529 q 496 581 440 529 q 551 710 551 633 q 510 820 551 774 q 382 867 469 867 q 248 842 311 867 q 125 774 185 817 q 118 824 122 799 q 110 875 114 850 q 234 940 161 914 q 389 965 307 965 q 608 889 542 965 q 675 713 675 813 q 644 609 675 657 q 567 531 614 561 l 951 531 l 951 849 l 796 849 l 772 944 l 1632 944 q 1642 897 1638 921 q 1653 849 1647 872 l 1475 849 l 1475 -22 l 1354 0 l 1354 849 l 1071 849 l 1071 -22 l 951 0 l 951 440 l 586 440 q 666 363 638 410 q 694 254 694 315 z "},"ऒ":{"ha":1638,"x_min":93,"x_max":1653,"o":"m 1115 1176 l 1228 1176 q 1403 1117 1333 1176 q 1472 975 1472 1058 l 1472 944 l 1632 944 q 1642 897 1638 921 q 1653 849 1647 872 l 1475 849 l 1475 -22 l 1354 0 l 1354 849 l 1071 849 l 1071 -22 l 951 0 l 951 440 l 586 440 q 666 359 638 410 q 694 247 694 308 q 610 55 694 131 q 367 -21 525 -21 q 212 2 283 -21 q 93 57 140 25 l 114 157 q 231 98 167 119 q 367 76 296 76 q 513 118 453 76 q 572 246 572 160 q 517 389 572 335 q 314 443 463 443 l 215 443 q 201 485 208 464 q 188 529 194 507 l 324 529 q 496 578 440 529 q 551 706 551 628 q 510 817 551 768 q 382 867 469 867 q 248 842 311 867 q 125 774 185 817 q 118 824 122 799 q 110 875 114 850 q 234 940 161 914 q 389 965 307 965 q 608 886 542 965 q 675 708 675 807 q 644 607 675 653 q 567 531 614 561 l 951 531 l 951 849 l 796 849 l 772 944 l 1356 944 l 1356 963 q 1324 1044 1356 1013 q 1229 1076 1293 1076 l 1119 1076 q 942 1131 1010 1076 q 874 1272 874 1186 l 874 1303 q 928 1292 900 1297 q 985 1281 957 1286 q 1022 1203 985 1231 q 1115 1176 1058 1176 z "},"ओ":{"ha":1638,"x_min":93,"x_max":1653,"o":"m 772 944 l 1315 944 q 1149 1096 1232 1019 q 985 1249 1067 1172 q 1032 1281 1008 1264 q 1079 1315 1056 1299 l 1454 944 l 1632 944 q 1642 897 1638 921 q 1653 849 1647 872 l 1475 849 l 1475 -22 l 1354 0 l 1354 849 l 1071 849 l 1071 -22 l 951 0 l 951 440 l 586 440 q 666 363 638 410 q 694 254 694 315 q 610 58 694 136 q 367 -21 525 -21 q 212 2 283 -21 q 93 57 140 25 l 114 157 q 231 98 167 119 q 367 76 296 76 q 513 120 453 76 q 572 251 572 164 q 517 392 572 340 q 314 443 463 443 l 215 443 q 201 485 208 464 q 188 529 194 507 l 324 529 q 496 583 444 529 q 547 717 547 638 q 506 822 547 778 q 382 867 465 867 q 248 842 311 867 q 125 774 185 817 q 118 824 122 799 q 110 875 114 850 q 234 940 161 914 q 389 965 307 965 q 604 890 536 965 q 672 719 672 815 q 644 613 672 663 q 567 531 617 563 l 951 531 l 951 849 l 796 849 l 772 944 z "},"औ":{"ha":1638,"x_min":93,"x_max":1653,"o":"m 1458 944 l 1632 944 q 1642 897 1638 921 q 1653 849 1647 872 l 1475 849 l 1475 -22 l 1354 0 l 1354 849 l 1071 849 l 1071 -22 l 951 0 l 951 440 l 586 440 q 666 363 638 410 q 694 254 694 315 q 610 58 694 136 q 367 -21 525 -21 q 212 2 283 -21 q 93 57 140 25 l 114 157 q 231 98 167 119 q 367 76 296 76 q 513 120 453 76 q 572 251 572 164 q 517 392 572 340 q 314 443 463 443 l 215 443 q 201 485 208 464 q 188 529 194 507 l 324 529 q 496 581 440 529 q 551 710 551 633 q 510 820 551 774 q 382 867 469 867 q 248 842 311 867 q 125 774 185 817 q 118 824 122 799 q 110 875 114 850 q 234 940 161 914 q 389 965 307 965 q 608 889 542 965 q 675 713 675 813 q 644 609 675 657 q 567 531 614 561 l 951 531 l 951 849 l 796 849 l 772 944 l 1347 944 l 1290 1003 q 1184 1081 1231 1065 q 1081 1094 1138 1096 l 957 1094 l 933 1199 l 1075 1199 q 1201 1182 1143 1199 q 1325 1090 1260 1165 q 1278 1233 1303 1161 q 1231 1375 1254 1304 l 1344 1413 q 1402 1178 1374 1296 q 1458 944 1431 1061 z "},"क":{"ha":1261,"x_min":-15,"x_max":1276,"o":"m 382 126 q 161 206 251 126 q 71 414 71 285 q 156 620 71 536 q 382 704 242 704 q 493 680 443 704 q 574 625 543 656 l 574 850 l 6 850 l -15 944 l 1257 944 l 1276 850 l 694 850 l 694 619 q 774 677 724 650 q 892 704 825 704 q 1117 620 1032 704 q 1201 414 1201 536 q 1110 203 1201 281 q 901 126 1018 126 l 881 225 q 1021 278 965 225 q 1076 415 1076 332 q 1022 551 1076 499 q 894 604 968 604 q 763 559 810 604 q 694 479 717 514 l 694 -22 l 574 0 l 574 204 q 493 151 543 175 q 382 126 443 126 m 196 415 q 249 278 196 332 q 382 225 303 225 q 503 265 458 225 q 574 342 547 304 l 574 488 q 503 565 547 525 q 382 604 458 604 q 253 551 308 604 q 196 415 197 499 z "},"ख":{"ha":1274,"x_min":-15,"x_max":1289,"o":"m 561 469 q 638 650 561 578 q 838 722 715 722 q 922 711 882 722 q 992 678 961 700 l 992 849 l 426 849 q 475 755 458 810 q 492 647 492 700 q 431 469 492 547 q 271 364 371 390 q 375 174 281 272 q 618 76 469 76 q 823 132 738 76 q 942 260 908 188 q 881 234 914 243 q 814 225 849 225 q 636 294 711 225 q 561 469 561 363 m 685 471 q 729 356 685 397 q 838 315 774 315 q 947 357 903 315 q 992 469 992 399 l 992 475 q 946 585 990 544 q 838 626 901 626 q 731 584 776 626 q 685 471 685 542 m 1113 -22 l 992 0 l 992 133 q 833 22 929 65 q 618 -22 736 -22 q 291 98 410 -22 q 160 353 172 218 l 110 353 q 71 368 85 353 q 57 404 57 383 q 101 503 57 453 q 204 553 146 553 q 238 525 229 553 q 249 464 246 497 q 340 528 303 481 q 376 647 376 576 q 350 765 376 707 q 281 849 324 822 l 4 849 q -5 897 0 872 q -15 944 -10 921 l 1269 944 l 1289 849 l 1113 849 l 1113 -22 z "},"ग":{"ha":878,"x_min":-15,"x_max":893,"o":"m 597 0 l 597 849 l 293 849 l 293 308 q 281 257 293 276 q 243 238 268 238 q 127 291 176 238 q 78 394 78 344 q 107 441 78 432 q 172 450 136 450 l 172 849 l 4 849 q -5 897 0 872 q -15 944 -10 921 l 872 944 l 893 849 l 717 849 l 717 -22 l 597 0 z "},"घ":{"ha":978,"x_min":-15,"x_max":994,"o":"m 697 0 l 697 268 q 579 159 653 204 q 393 114 506 114 q 180 187 258 114 q 101 360 101 260 q 133 485 101 428 q 224 561 164 542 q 146 633 175 583 q 117 743 117 683 q 128 799 117 769 q 158 850 140 828 l 6 850 l -15 944 l 972 944 l 994 850 l 817 850 l 817 -22 l 697 0 m 224 357 q 274 259 224 299 q 397 219 324 219 q 608 309 522 219 q 697 590 693 399 l 697 850 l 310 850 q 254 806 272 836 q 236 742 236 776 q 280 642 236 681 q 411 603 324 603 l 465 603 l 494 515 l 421 515 q 267 468 310 515 q 224 357 224 421 z "},"ङ":{"ha":833,"x_min":-15,"x_max":849,"o":"m 763 432 q 706 456 729 432 q 682 511 682 479 q 706 570 682 546 q 763 594 729 594 q 821 570 797 594 q 844 511 844 546 q 821 456 844 479 q 763 432 797 432 m 106 153 q 232 94 160 115 q 376 72 304 74 q 519 110 472 72 q 565 200 565 149 q 531 297 565 256 q 421 338 496 338 l 292 338 q 139 391 208 338 q 69 528 69 444 q 133 667 69 617 q 289 718 197 718 l 490 718 l 490 849 l 4 849 q -5 897 0 872 q -15 944 -10 921 l 828 944 l 849 849 l 607 849 l 607 618 l 290 618 q 217 592 247 618 q 186 528 186 565 q 219 460 186 483 q 306 436 253 436 l 418 436 q 609 381 533 436 q 685 204 685 325 q 605 44 685 113 q 379 -25 525 -25 q 213 -2 296 -25 q 85 51 131 21 l 106 153 z "},"च":{"ha":985,"x_min":-15,"x_max":1000,"o":"m 703 0 l 703 189 q 616 147 667 161 q 508 132 565 132 q 290 200 379 132 q 201 399 201 268 q 219 492 201 450 q 267 564 238 533 l 75 564 l 54 664 l 569 664 l 593 565 l 528 564 q 369 518 421 563 q 317 399 317 474 q 371 276 317 321 q 508 232 425 232 q 640 271 586 232 q 703 378 693 310 l 703 850 l 6 850 l -15 944 l 979 944 l 1000 850 l 822 850 l 822 -22 l 703 0 z "},"छ":{"ha":1132,"x_min":-15,"x_max":1147,"o":"m 1054 553 q 906 185 1054 392 q 476 -21 757 -21 q 206 50 314 -21 q 99 257 99 121 q 141 397 99 325 q 283 493 183 469 q 158 587 199 519 q 118 715 118 654 q 131 788 118 753 q 165 849 144 822 l 7 849 q -4 897 1 872 q -15 944 -10 921 l 1125 944 l 1147 849 l 914 849 l 914 760 q 1019 678 985 738 q 1054 553 1054 618 m 222 257 q 303 121 222 165 q 481 76 385 76 q 723 154 618 76 q 864 328 828 232 q 709 397 781 332 q 638 553 638 461 q 688 699 638 640 q 814 768 739 758 l 814 849 l 328 849 q 263 794 285 831 q 242 714 242 758 q 298 586 242 636 q 471 536 354 536 l 507 536 l 533 450 l 481 450 q 284 398 346 450 q 222 257 222 346 m 913 406 q 939 473 929 436 q 949 547 949 510 q 924 634 949 594 q 843 674 900 674 q 769 638 796 674 q 743 553 743 603 q 798 449 743 489 q 913 406 853 408 z "},"ज":{"ha":1061,"x_min":-15,"x_max":1076,"o":"m 781 543 l 540 543 q 583 471 567 513 q 599 378 599 429 q 507 173 599 240 q 289 106 415 106 q 134 131 204 106 q 17 189 64 157 l 39 293 q 155 229 92 254 q 286 204 218 204 q 425 252 369 204 q 481 376 481 300 q 431 499 481 454 q 293 543 381 543 l 217 543 q 205 592 211 568 q 193 642 199 617 l 781 642 l 781 849 l 4 849 q -5 897 0 872 q -15 944 -10 921 l 1056 944 l 1076 849 l 899 849 l 899 -22 l 781 0 l 781 543 z "},"झ":{"ha":1192,"x_min":-15,"x_max":1207,"o":"m 910 849 l 610 849 l 610 618 l 292 618 q 216 592 244 618 q 188 528 188 565 q 217 463 188 489 q 294 436 247 436 l 411 436 q 540 416 482 436 q 632 361 597 396 q 771 362 701 361 q 910 363 840 363 l 910 849 m 271 88 q 326 77 297 81 q 382 72 354 74 q 517 103 468 72 q 567 206 567 135 q 528 300 567 263 q 424 338 489 338 l 293 338 q 140 391 210 338 q 71 528 71 444 q 135 667 71 617 q 290 718 199 718 l 490 718 l 490 849 l 4 849 q -5 897 0 872 q -15 944 -10 921 l 1186 944 q 1197 897 1192 921 q 1207 849 1201 872 l 1029 849 l 1029 -22 l 910 0 l 910 269 l 678 269 q 685 239 683 256 q 688 204 688 222 q 608 44 688 113 q 385 -24 529 -24 q 349 -22 367 -24 q 313 -18 331 -19 l 442 -181 l 363 -237 q 275 -122 319 -179 q 186 -8 231 -65 q 106 48 146 10 q 65 138 65 86 q 83 180 65 164 q 129 196 101 196 q 218 164 179 196 q 271 88 257 132 z "},"ञ":{"ha":1056,"x_min":-15,"x_max":1071,"o":"m 39 308 q 153 244 89 268 q 288 219 217 219 q 424 271 371 219 q 476 414 476 322 q 424 558 476 506 q 288 610 371 610 q 215 603 253 610 q 144 588 178 597 l 118 681 q 202 701 158 694 q 289 708 246 708 q 491 646 407 708 q 589 457 575 583 l 775 457 l 775 850 l 6 850 l -15 944 l 1050 944 l 1071 850 l 894 850 l 894 -22 l 775 0 l 775 363 l 589 363 q 490 181 574 242 q 289 119 406 119 q 135 144 206 119 q 17 203 64 169 l 39 308 z "},"ट":{"ha":876,"x_min":-15,"x_max":892,"o":"m 200 319 q 291 128 200 179 q 501 78 382 78 q 644 97 575 78 q 782 165 714 117 l 796 56 q 663 -5 740 15 q 501 -25 585 -25 q 210 50 340 -25 q 81 319 81 125 q 209 581 81 493 q 518 668 338 668 l 578 668 l 578 849 l 4 849 q -5 897 0 872 q -15 944 -10 921 l 871 944 l 892 849 l 699 849 l 699 565 l 518 565 q 291 503 382 565 q 200 319 200 440 z "},"ठ":{"ha":994,"x_min":-15,"x_max":1010,"o":"m 500 -25 q 211 50 340 -25 q 82 319 82 125 q 186 561 82 476 q 436 663 290 646 l 436 850 l 6 850 l -15 944 l 989 944 l 1010 850 l 557 850 l 557 663 q 809 576 700 651 q 918 322 918 500 q 793 60 918 146 q 500 -25 668 -25 m 800 322 q 710 513 800 463 q 500 564 621 564 q 290 502 378 564 q 201 319 201 440 q 291 128 201 179 q 500 78 381 78 q 713 139 625 78 q 800 322 800 200 z "},"ड":{"ha":739,"x_min":-15,"x_max":753,"o":"m 106 153 q 232 94 160 115 q 376 72 304 74 q 515 111 467 72 q 563 206 563 150 q 524 300 563 263 q 421 338 485 338 l 292 338 q 139 391 208 338 q 69 528 69 444 q 133 667 69 617 q 289 718 197 718 l 490 718 l 490 849 l 4 849 q -5 897 0 872 q -15 944 -10 921 l 732 944 q 742 897 738 921 q 753 849 747 872 l 607 849 l 607 618 l 290 618 q 217 592 247 618 q 186 528 186 565 q 216 463 186 489 q 293 436 246 436 l 408 436 q 610 378 535 436 q 685 204 685 319 q 605 44 685 113 q 379 -25 525 -25 q 213 -2 296 -25 q 85 51 131 21 l 106 153 z "},"ढ":{"ha":874,"x_min":-15,"x_max":890,"o":"m 699 849 l 699 592 l 518 592 q 291 524 382 592 q 200 333 200 457 q 277 146 200 206 q 458 78 354 86 q 415 135 432 100 q 397 206 397 171 q 454 349 397 289 q 603 410 511 410 q 755 358 697 410 q 813 218 813 306 q 726 46 813 117 q 501 -25 639 -25 q 213 55 344 -25 q 81 333 81 135 q 209 600 81 506 q 518 694 338 694 l 578 694 l 578 849 l 4 849 q -5 897 0 872 q -15 944 -10 921 l 868 944 l 890 849 l 699 849 m 610 306 q 538 280 568 306 q 507 206 507 254 q 527 135 507 167 q 585 85 547 103 q 677 136 647 99 q 707 215 707 174 q 681 280 707 254 q 610 306 654 306 z "},"ण":{"ha":1222,"x_min":-15,"x_max":1239,"o":"m 676 525 q 602 309 676 386 q 407 232 528 232 q 212 310 286 233 q 138 525 138 386 l 138 849 l 4 849 q -5 897 0 872 q -15 944 -10 921 l 1217 944 q 1228 897 1222 921 q 1239 849 1233 872 l 1061 849 l 1061 -22 l 942 0 l 942 849 l 676 849 l 676 525 m 256 849 l 256 525 q 292 386 256 438 q 408 333 328 335 q 522 386 486 335 q 557 525 557 438 l 557 849 l 256 849 z "},"त":{"ha":942,"x_min":-15,"x_max":957,"o":"m 661 0 l 661 535 l 386 535 q 256 501 299 535 q 213 403 213 468 q 278 215 213 324 q 408 7 343 107 l 306 -26 q 164 191 235 74 q 93 408 93 308 q 157 567 93 503 q 335 631 221 631 l 661 631 l 661 850 l 6 850 l -15 944 l 936 944 l 957 850 l 781 850 l 781 -22 l 661 0 z "},"थ":{"ha":942,"x_min":63,"x_max":957,"o":"m 343 742 q 294 695 329 715 q 218 675 260 675 q 110 713 158 675 q 63 813 63 750 q 110 922 63 878 q 232 965 157 965 q 378 897 311 965 q 446 728 446 829 q 388 551 446 603 q 265 465 329 499 q 336 378 282 414 q 465 339 390 342 q 610 394 560 339 q 660 546 660 449 l 660 849 l 574 849 l 553 944 l 936 944 q 947 897 942 921 q 957 849 951 872 l 781 849 l 781 -22 l 660 0 l 660 303 q 576 255 625 272 q 463 238 528 238 q 244 318 339 238 q 150 503 150 399 q 161 516 156 510 q 172 529 167 522 q 304 617 269 568 q 343 742 339 665 m 307 829 q 274 864 294 850 q 228 878 253 878 q 180 862 201 878 q 158 814 158 846 q 178 772 158 788 q 224 757 199 757 q 280 779 260 757 q 307 829 300 801 z "},"द":{"ha":836,"x_min":-15,"x_max":850,"o":"m 765 -12 l 672 -60 q 625 30 649 -15 q 576 118 601 75 l 560 115 q 513 109 538 111 q 467 107 489 107 q 195 185 314 107 q 76 428 76 263 q 193 661 76 581 q 483 742 310 742 l 531 742 l 531 849 l 4 849 q -5 897 0 872 q -15 944 -10 921 l 829 944 l 850 849 l 651 849 l 651 642 l 500 642 q 283 587 369 642 q 196 428 196 532 q 275 266 196 321 q 467 211 354 211 q 498 213 482 211 q 531 215 514 214 q 527 237 529 225 q 525 263 525 249 q 548 303 525 282 q 610 324 571 324 q 675 305 631 324 q 719 240 719 286 q 707 196 719 219 q 669 151 694 172 l 765 -12 z "},"ध":{"ha":1021,"x_min":103,"x_max":1036,"o":"m 369 861 q 279 828 319 861 q 239 739 239 794 q 282 641 239 679 q 414 603 325 603 l 463 603 q 479 559 471 581 q 497 515 488 538 l 421 515 q 268 468 313 515 q 224 357 224 421 q 281 256 224 294 q 419 218 339 218 q 648 318 557 218 q 739 625 739 418 l 739 849 l 639 849 l 618 944 l 1015 944 l 1036 849 l 860 849 l 860 -22 l 739 0 l 739 269 q 616 158 697 204 q 415 111 535 111 q 186 182 269 111 q 103 358 103 253 q 136 485 103 428 q 231 561 169 543 q 149 632 179 581 q 118 743 118 683 q 185 897 118 831 q 364 964 251 964 q 481 938 431 964 q 549 889 531 913 l 494 815 q 441 849 472 838 q 369 861 410 861 z "},"न":{"ha":851,"x_min":-15,"x_max":867,"o":"m 569 438 l 258 438 q 246 357 258 394 q 215 319 233 319 q 101 367 153 319 q 49 471 49 415 q 64 513 49 497 q 110 529 79 529 l 569 529 l 569 849 l 4 849 q -5 897 0 872 q -15 944 -10 921 l 847 944 l 867 849 l 690 849 l 690 -22 l 569 0 l 569 438 z "},"ऩ":{"ha":851,"x_min":-15,"x_max":867,"o":"m 569 438 l 258 438 q 246 357 258 394 q 215 319 233 319 q 101 367 153 319 q 49 471 49 415 q 64 513 49 497 q 110 529 79 529 l 569 529 l 569 849 l 4 849 q -5 897 0 872 q -15 944 -10 921 l 847 944 l 867 849 l 690 849 l 690 -22 l 569 0 l 569 438 m 215 -46 q 158 -22 182 -46 q 133 33 133 1 q 158 92 133 68 q 215 115 182 115 q 272 92 249 115 q 296 33 296 68 q 272 -22 296 1 q 215 -46 249 -46 z "},"प":{"ha":913,"x_min":-15,"x_max":928,"o":"m 632 0 l 632 303 q 544 255 597 272 q 435 238 492 238 q 217 316 301 238 q 133 533 133 394 l 133 850 l 6 850 l -15 944 l 907 944 l 928 850 l 751 850 l 751 -22 l 632 0 m 253 533 q 300 392 253 444 q 442 339 347 339 q 579 389 529 339 q 632 526 629 439 l 632 850 l 253 850 l 253 533 z "},"फ":{"ha":1315,"x_min":-15,"x_max":1332,"o":"m 631 526 l 631 849 l 251 849 l 251 532 q 299 391 251 443 q 440 339 347 339 q 578 389 528 339 q 631 526 628 439 m 936 207 q 1076 260 1021 207 q 1132 397 1132 314 q 1077 533 1131 481 q 950 585 1024 585 q 820 542 865 585 q 751 463 775 499 l 751 -22 l 631 0 l 631 303 q 544 255 596 272 q 433 238 492 238 q 216 315 300 238 q 132 532 132 393 l 132 849 l 4 849 q -5 897 0 872 q -15 944 -10 921 l 1311 944 l 1332 849 l 751 849 l 751 606 q 833 660 782 635 q 947 686 883 686 q 1172 602 1086 686 q 1257 396 1257 518 q 1165 185 1257 263 q 956 108 1072 108 l 936 207 z "},"ब":{"ha":858,"x_min":-15,"x_max":872,"o":"m 575 0 l 575 200 q 494 149 543 172 q 383 125 444 125 q 162 204 253 125 q 71 414 71 283 q 157 620 71 536 q 383 704 243 704 q 494 681 444 704 q 575 629 543 658 l 575 849 l 4 849 q -5 897 0 872 q -15 944 -10 921 l 851 944 l 872 849 l 696 849 l 696 -22 l 575 0 m 575 488 q 504 565 549 524 q 379 606 460 606 q 333 599 356 606 q 290 579 310 592 q 414 437 351 508 q 538 294 476 365 q 558 318 549 306 q 575 342 568 331 l 575 488 m 233 532 q 206 479 215 508 q 196 415 196 450 q 249 278 196 332 q 379 224 301 224 q 435 231 410 224 q 482 249 461 239 l 233 532 z "},"भ":{"ha":1015,"x_min":50,"x_max":1031,"o":"m 733 0 l 733 354 l 403 354 q 392 269 403 301 q 358 238 382 238 q 243 287 293 238 q 193 390 193 336 q 219 427 193 407 q 289 447 246 447 l 289 672 q 250 658 271 663 q 215 653 229 653 q 95 699 140 653 q 50 813 50 744 q 101 923 50 881 q 219 965 151 965 q 357 903 307 965 q 407 736 407 840 l 407 447 l 733 447 l 733 849 l 564 849 l 542 944 l 1010 944 l 1031 849 l 854 849 l 854 -22 l 733 0 m 154 803 q 174 757 154 774 q 221 740 194 740 q 257 748 238 740 q 290 768 276 756 q 271 841 289 814 q 218 868 253 868 q 173 851 192 868 q 154 803 154 833 z "},"म":{"ha":917,"x_min":-15,"x_max":933,"o":"m 636 354 l 285 354 q 272 264 285 290 q 236 238 258 238 q 121 286 171 238 q 71 389 71 335 q 103 431 71 415 q 167 447 135 447 l 167 849 l 4 849 q -5 897 0 872 q -15 944 -10 921 l 911 944 q 922 897 917 921 q 933 849 928 872 l 756 849 l 756 -22 l 636 0 l 636 354 m 636 849 l 285 849 l 285 447 l 636 447 l 636 849 z "},"य":{"ha":876,"x_min":-15,"x_max":893,"o":"m 107 526 q 180 588 147 539 q 213 708 213 638 q 185 797 213 760 q 113 849 158 835 l 4 849 q -5 897 0 872 q -15 944 -10 921 l 872 944 l 893 849 l 715 849 l 715 -22 l 594 0 l 594 301 q 511 255 560 272 q 399 238 463 238 q 180 318 274 238 q 86 503 86 399 l 107 526 m 594 849 l 271 849 q 308 788 293 826 q 324 700 324 750 q 294 572 324 635 q 201 474 264 508 q 270 382 215 422 q 400 339 325 342 q 540 389 488 339 q 594 526 593 439 l 594 849 z "},"र":{"ha":615,"x_min":-15,"x_max":631,"o":"m 179 353 l 125 353 q 87 369 101 353 q 72 407 72 385 q 110 503 72 454 q 199 553 149 553 q 239 521 221 553 q 267 464 257 489 q 360 528 324 481 q 396 647 396 576 q 369 765 396 707 q 300 849 343 822 l 4 849 q -5 897 0 872 q -15 944 -10 921 l 608 944 l 631 849 l 450 849 q 499 755 482 810 q 515 647 515 700 q 453 467 515 546 q 289 363 390 389 l 514 4 l 396 -25 q 288 163 342 68 q 179 353 235 258 z "},"ऱ":{"ha":615,"x_min":-15,"x_max":631,"o":"m 179 353 l 125 353 q 87 369 101 353 q 72 407 72 385 q 110 503 72 454 q 199 553 149 553 q 239 521 221 553 q 267 464 257 489 q 360 528 324 481 q 396 647 396 576 q 369 765 396 707 q 300 849 343 822 l 4 849 q -5 897 0 872 q -15 944 -10 921 l 608 944 l 631 849 l 450 849 q 499 755 482 810 q 515 647 515 700 q 453 467 515 546 q 289 363 390 389 l 514 4 l 396 -25 q 288 163 342 68 q 179 353 235 258 m 126 -46 q 69 -22 93 -46 q 46 33 46 1 q 69 92 46 68 q 126 115 93 115 q 185 92 161 115 q 208 33 208 68 q 185 -22 208 1 q 126 -46 161 -46 z "},"ल":{"ha":1206,"x_min":-15,"x_max":1221,"o":"m 924 0 l 924 396 q 885 524 921 475 q 782 574 850 574 q 678 519 714 574 q 643 379 643 465 l 643 208 l 528 233 l 526 379 q 490 517 526 465 q 371 571 453 569 q 265 526 308 571 q 222 426 222 482 q 262 240 222 328 q 372 6 301 153 l 275 -28 q 158 213 207 106 q 108 436 108 319 q 186 601 108 529 q 371 675 264 674 q 493 647 439 674 q 582 574 547 621 q 667 649 615 622 q 783 675 719 675 q 860 663 824 675 q 924 629 897 651 l 924 850 l 6 850 l -15 944 l 1200 944 l 1221 850 l 1044 850 l 1044 -22 l 924 0 z "},"ळ":{"ha":1253,"x_min":-15,"x_max":1268,"o":"m 1088 393 q 1038 536 1088 475 q 894 597 988 597 q 763 523 807 597 q 693 369 719 449 l 675 321 q 771 208 710 253 q 894 164 832 164 q 1035 233 982 164 q 1088 393 1088 301 m 186 369 q 240 227 186 288 q 385 167 293 167 q 522 241 471 167 q 594 392 572 315 q 600 417 596 401 q 610 442 604 432 q 517 550 574 507 q 385 594 460 593 q 239 527 292 594 q 186 369 186 460 m 382 694 q 535 652 465 694 q 656 542 604 610 q 730 634 685 593 q 839 689 775 675 l 839 850 l 6 850 l -15 944 l 1249 944 l 1268 850 l 958 850 l 958 690 q 1133 590 1065 671 q 1200 389 1200 508 q 1110 162 1200 256 q 894 68 1021 68 q 745 110 814 68 q 629 226 676 151 q 530 114 589 161 q 385 67 471 67 q 161 151 247 67 q 75 372 75 236 q 160 600 75 506 q 382 694 246 694 z "},"ऴ":{"ha":1253,"x_min":-15,"x_max":1268,"o":"m 1088 393 q 1038 536 1088 475 q 894 597 988 597 q 763 523 807 597 q 693 369 719 449 l 675 321 q 771 208 710 253 q 894 164 832 164 q 1035 233 982 164 q 1088 393 1088 301 m 186 369 q 240 227 186 288 q 385 167 293 167 q 522 241 471 167 q 594 392 572 315 q 600 417 596 401 q 610 442 604 432 q 517 550 574 507 q 385 594 460 593 q 239 527 292 594 q 186 369 186 460 m 382 694 q 535 652 465 694 q 656 542 604 610 q 730 634 685 593 q 839 689 775 675 l 839 850 l 6 850 l -15 944 l 1249 944 l 1268 850 l 958 850 l 958 690 q 1133 590 1065 671 q 1200 389 1200 508 q 1110 162 1200 256 q 894 68 1021 68 q 745 110 814 68 q 629 226 676 151 q 530 114 589 161 q 385 67 471 67 q 161 151 247 67 q 75 372 75 236 q 160 600 75 506 q 382 694 246 694 m 628 -144 q 570 -122 593 -144 q 547 -65 547 -99 q 570 -6 547 -31 q 628 18 593 18 q 685 -6 663 18 q 708 -65 708 -31 q 685 -122 708 -99 q 628 -144 663 -144 z "},"व":{"ha":854,"x_min":-15,"x_max":871,"o":"m 382 126 q 161 206 251 126 q 71 414 71 285 q 156 620 71 536 q 382 704 242 704 q 493 680 443 704 q 574 625 543 656 l 574 850 l 6 850 l -15 944 l 850 944 l 871 850 l 694 850 l 694 -22 l 574 0 l 574 204 q 493 151 543 175 q 382 126 443 126 m 196 415 q 249 278 196 332 q 382 225 303 225 q 503 265 458 225 q 574 342 547 304 l 574 488 q 503 565 547 525 q 382 604 458 604 q 253 551 308 604 q 196 415 197 499 z "},"श":{"ha":1085,"x_min":75,"x_max":1100,"o":"m 803 0 l 803 849 l 646 849 l 625 944 l 1078 944 l 1100 849 l 924 849 l 924 -22 l 803 0 m 178 801 q 197 760 178 774 q 243 746 217 746 q 323 783 294 746 q 357 858 351 819 q 318 874 339 868 q 272 879 297 879 q 205 856 232 879 q 178 801 178 832 m 190 351 l 138 351 q 99 367 114 351 q 85 406 85 382 q 123 503 85 453 q 211 553 161 553 q 253 518 236 553 q 278 454 271 483 q 406 512 349 460 q 463 653 463 564 q 452 728 463 688 q 415 799 442 768 q 355 706 404 749 q 236 664 306 664 q 124 702 172 664 q 75 803 75 740 q 135 918 75 871 q 283 965 196 965 q 499 872 421 965 q 578 653 578 778 q 499 461 578 536 q 317 369 421 386 q 309 366 314 368 q 301 363 304 364 l 551 4 l 431 -25 l 190 351 z "},"ष":{"ha":917,"x_min":-15,"x_max":933,"o":"m 635 0 l 635 303 q 546 255 600 272 q 433 238 492 238 q 217 315 300 238 q 133 532 133 393 l 133 849 l 4 849 q -5 897 0 872 q -15 944 -10 921 l 911 944 q 922 897 917 921 q 933 849 928 872 l 756 849 l 756 -22 l 635 0 m 635 531 l 635 849 l 321 849 l 631 486 q 634 507 633 496 q 635 531 635 518 m 253 532 q 300 391 253 443 q 440 339 347 339 q 531 356 492 339 q 594 404 571 374 l 253 808 l 253 532 z "},"स":{"ha":1075,"x_min":-15,"x_max":1090,"o":"m 793 849 l 450 849 q 499 755 482 810 q 515 647 515 700 q 504 565 515 604 q 471 494 493 526 l 793 494 l 793 849 m 179 353 l 125 353 q 87 369 101 353 q 72 407 72 385 q 110 503 72 454 q 199 553 149 553 q 239 521 221 553 q 267 464 257 489 q 360 528 324 481 q 396 647 396 576 q 369 765 396 707 q 300 849 343 822 l 4 849 q -5 897 0 872 q -15 944 -10 921 l 1069 944 l 1090 849 l 914 849 l 914 -22 l 793 0 l 793 403 l 383 403 q 340 378 364 389 q 289 363 315 368 l 514 4 l 396 -25 q 288 163 342 68 q 179 353 235 258 z "},"ह":{"ha":751,"x_min":-15,"x_max":767,"o":"m 571 329 q 524 410 571 375 q 401 444 478 444 q 275 398 325 444 q 225 286 225 351 q 326 133 225 183 q 526 75 426 82 l 500 -22 q 231 67 349 -14 q 113 286 113 147 q 133 391 113 344 q 189 468 153 438 q 141 522 158 490 q 124 596 124 553 q 177 717 125 675 q 318 758 229 758 l 494 758 l 494 850 l 4 850 l -15 944 l 744 944 l 767 850 l 617 850 l 617 663 l 325 663 q 263 645 285 663 q 240 597 240 628 q 255 556 240 575 q 293 526 269 536 q 346 539 318 535 q 404 543 374 543 q 607 481 531 543 q 683 335 683 419 q 664 240 683 288 q 606 167 644 193 l 519 226 q 559 274 547 250 q 571 329 571 299 z "},"ॸ":{"ha":863,"x_min":-15,"x_max":878,"o":"m 285 849 l 285 488 l 457 488 q 674 411 590 488 q 758 196 758 335 l 758 -22 q 699 -11 740 -18 q 639 0 657 -4 l 639 196 q 592 337 639 285 q 450 389 544 389 l 285 389 q 271 304 285 331 q 236 278 257 278 q 121 326 171 278 q 71 429 71 375 q 97 468 71 449 q 167 488 124 488 l 167 849 l 4 849 q -5 897 0 872 q -15 944 -10 921 l 856 944 q 867 897 861 921 q 878 849 872 872 l 285 849 z "},"ऺ":{"ha":0,"x_min":-151,"x_max":-39,"o":"m -39 1225 l -39 944 l -151 944 l -151 1247 l -39 1225 z "},"ऻ":{"ha":444,"x_min":-15,"x_max":460,"o":"m 278 1225 l 278 944 l 436 944 q 448 897 442 921 q 460 849 454 872 l 282 849 l 282 -22 l 161 0 l 161 849 l 4 849 q -5 897 0 872 q -15 944 -10 921 l 165 944 l 165 1247 l 278 1225 z "},"़":{"ha":0,"x_min":24,"x_max":186,"o":"m 104 -233 q 47 -210 71 -233 q 24 -154 24 -187 q 47 -96 24 -119 q 104 -72 71 -72 q 163 -96 139 -72 q 186 -154 186 -119 q 163 -210 186 -187 q 104 -233 139 -233 z "},"ऽ":{"ha":750,"x_min":56,"x_max":667,"o":"m 107 154 q 229 96 158 117 q 368 75 300 75 q 495 115 444 75 q 546 228 546 154 q 473 417 546 310 q 322 613 400 525 l 104 860 l 104 944 l 647 944 l 667 854 l 239 854 l 389 686 q 565 466 471 592 q 660 228 660 340 q 580 47 660 119 q 349 -26 500 -26 q 207 -6 289 -26 q 56 57 125 15 l 107 154 z "},"ा":{"ha":444,"x_min":-15,"x_max":460,"o":"m 161 0 l 161 850 l 6 850 l -15 944 l 438 944 l 460 850 l 282 850 l 282 -22 l 161 0 z "},"ि":{"ha":444,"x_min":-15,"x_max":1083,"o":"m 1038 988 q 750 1136 928 1060 q 417 1213 572 1213 q 273 1169 325 1213 q 221 1063 221 1125 q 240 988 221 1017 q 269 944 258 958 l 438 944 l 460 850 l 282 850 l 282 -22 l 161 0 l 161 850 l 6 850 l -15 944 l 142 944 q 119 991 132 963 q 106 1067 106 1019 q 188 1241 106 1172 q 408 1310 271 1310 q 794 1219 593 1310 q 1083 1063 996 1128 l 1038 988 z "},"ी":{"ha":444,"x_min":-304,"x_max":456,"o":"m -160 1022 q -210 1005 -185 1013 q -258 989 -235 997 q -290 1051 -276 1017 q -304 1126 -304 1085 q -245 1257 -304 1204 q -99 1310 -186 1310 q 139 1181 49 1310 q 264 944 229 1053 l 432 944 q 444 897 438 921 q 456 849 450 872 l 278 849 l 278 -22 l 158 0 l 158 849 l 0 849 q -9 897 -4 872 q -19 944 -14 921 l 143 944 q 66 1108 125 1006 q -97 1211 7 1211 q -169 1183 -144 1211 q -193 1122 -193 1154 q -184 1073 -193 1096 q -160 1022 -175 1050 z "},"ु":{"ha":0,"x_min":-549,"x_max":17,"o":"m -476 -144 q -343 -281 -404 -231 q -203 -332 -282 -332 q -115 -302 -146 -332 q -85 -225 -85 -272 q -117 -149 -85 -178 q -203 -119 -150 -119 l -279 -119 l -279 -25 l -189 -25 q -47 -78 -111 -25 q 17 -225 17 -132 q -49 -372 17 -318 q -204 -425 -114 -425 q -390 -363 -300 -425 q -549 -193 -479 -301 l -476 -144 z "},"ू":{"ha":0,"x_min":-426,"x_max":139,"o":"m 67 -308 q -67 -170 -7 -221 q -207 -119 -128 -119 q -294 -149 -264 -119 q -324 -224 -324 -179 q -292 -302 -324 -271 q -207 -333 -261 -333 l -129 -333 l -129 -425 l -221 -425 q -361 -372 -296 -425 q -426 -224 -426 -319 q -361 -78 -426 -132 q -204 -25 -296 -25 q -18 -87 -107 -25 q 139 -258 71 -150 l 67 -308 z "},"ृ":{"ha":0,"x_min":-454,"x_max":-131,"o":"m -353 -225 q -321 -303 -353 -272 q -235 -333 -289 -333 q -194 -328 -214 -333 q -150 -317 -174 -324 l -131 -408 q -190 -421 -158 -417 q -249 -425 -221 -425 q -392 -372 -329 -425 q -454 -225 -454 -318 q -389 -78 -454 -131 q -249 -25 -324 -25 l -158 -25 l -158 -118 l -235 -118 q -319 -148 -286 -118 q -353 -225 -353 -178 z "},"ॄ":{"ha":0,"x_min":-371,"x_max":-162,"o":"m -321 -221 q -354 -192 -337 -214 q -371 -146 -371 -169 q -324 -51 -371 -78 q -226 -25 -278 -25 l -162 -25 l -162 -100 l -200 -100 q -247 -111 -224 -100 q -269 -146 -269 -122 q -247 -176 -269 -165 q -200 -186 -224 -186 l -164 -186 l -196 -257 q -253 -267 -229 -257 q -276 -300 -276 -278 q -258 -333 -276 -322 q -200 -343 -239 -343 l -162 -343 l -194 -417 l -226 -417 q -324 -391 -278 -417 q -371 -300 -371 -365 q -356 -253 -371 -275 q -321 -221 -340 -232 z "},"ॅ":{"ha":0,"x_min":24,"x_max":610,"o":"m 528 1301 l 610 1251 q 483 1108 558 1153 q 317 1064 408 1064 q 149 1109 224 1064 q 24 1251 74 1154 l 104 1301 q 197 1190 142 1226 q 317 1153 253 1153 q 433 1189 379 1153 q 528 1301 488 1225 z "},"ॆ":{"ha":0,"x_min":-654,"x_max":-151,"o":"m -543 1281 q -500 1201 -543 1226 q -397 1176 -457 1176 q -214 1110 -276 1175 q -151 951 -151 1044 l -151 897 l -268 897 l -268 963 q -304 1049 -268 1021 q -408 1076 -340 1076 q -590 1133 -525 1076 q -654 1279 -654 1190 l -654 1303 q -599 1292 -626 1297 q -543 1281 -571 1286 z "},"े":{"ha":0,"x_min":-646,"x_max":-121,"o":"m -121 889 l -256 889 l -646 1249 l -551 1315 l -121 889 z "},"ै":{"ha":0,"x_min":-685,"x_max":-172,"o":"m -172 942 l -282 942 l -336 999 q -446 1078 -399 1063 q -551 1094 -493 1094 l -660 1094 l -685 1199 l -556 1199 q -431 1183 -487 1199 q -306 1090 -374 1167 q -353 1233 -329 1161 q -400 1375 -378 1304 l -287 1413 l -172 942 z "},"ॉ":{"ha":444,"x_min":-71,"x_max":514,"o":"m 433 1301 l 514 1251 q 388 1108 463 1153 q 221 1064 313 1064 q 54 1109 129 1064 q -71 1251 -21 1154 l 10 1301 q 103 1190 49 1226 q 221 1153 157 1153 q 340 1189 285 1153 q 433 1301 394 1225 m 161 0 l 161 850 l 6 850 l -15 944 l 438 944 l 460 850 l 282 850 l 282 -22 l 161 0 z "},"ॊ":{"ha":444,"x_min":-226,"x_max":460,"o":"m -117 1281 q -81 1203 -117 1231 q 13 1176 -44 1176 q 202 1121 125 1176 q 279 975 279 1065 l 279 944 l 436 944 q 448 897 442 921 q 460 849 454 872 l 282 849 l 282 -22 l 161 0 l 161 849 l 4 849 q -5 897 0 872 q -15 944 -10 921 l 164 944 l 164 963 q 127 1047 164 1018 q 19 1076 90 1076 q -159 1131 -92 1076 q -226 1272 -226 1186 l -226 1303 q -172 1292 -200 1297 q -117 1281 -143 1286 z "},"ो":{"ha":444,"x_min":-196,"x_max":460,"o":"m -15 944 l 135 944 l -196 1249 q -148 1281 -172 1264 q -100 1315 -124 1299 l 274 944 l 436 944 q 448 897 442 921 q 460 849 454 872 l 282 849 l 282 -22 l 161 0 l 161 849 l 4 849 q -5 897 0 872 q -15 944 -10 921 z "},"ौ":{"ha":444,"x_min":-239,"x_max":460,"o":"m 271 944 l 436 944 q 448 897 442 921 q 460 849 454 872 l 282 849 l 282 -22 l 161 0 l 161 849 l 4 849 q -5 897 0 872 q -15 944 -10 921 l 160 944 l 103 1003 q -3 1080 42 1065 q -107 1094 -49 1094 l -217 1094 l -239 1199 l -122 1199 q 10 1183 -49 1199 q 138 1090 68 1167 q 90 1233 114 1161 q 44 1375 67 1304 l 157 1413 q 213 1178 185 1296 q 271 944 242 1061 z "},"ॏ":{"ha":444,"x_min":-282,"x_max":460,"o":"m -46 1099 l 68 1099 q 117 1096 94 1097 q 157 1092 139 1094 q 131 1129 147 1114 q 83 1147 114 1144 q -37 1203 -6 1156 q -68 1328 -68 1250 l -68 1356 l 32 1333 q 53 1250 32 1282 q 117 1215 75 1218 q 245 1151 210 1210 q 281 1010 281 1093 l 281 944 l 438 944 l 460 850 l 282 850 l 282 -22 l 161 0 l 161 850 l 6 850 l -15 944 l 174 944 q 158 994 172 982 q 92 1007 144 1007 l -39 1007 q -216 1062 -150 1007 q -282 1201 -282 1117 l -282 1228 l -183 1207 q -144 1127 -183 1156 q -46 1099 -104 1099 z "},"्":{"ha":0,"x_min":-367,"x_max":-1,"o":"m -74 -437 l -367 -174 l -279 -93 l -1 -374 l -74 -437 z "},"ॖ":{"ha":0,"x_min":24,"x_max":610,"o":"m 528 -58 l 610 -108 q 483 -250 558 -206 q 317 -294 408 -294 q 149 -250 224 -294 q 24 -108 74 -206 l 104 -58 q 197 -171 142 -133 q 317 -208 253 -208 q 433 -171 379 -208 q 528 -58 488 -133 z "},"ॗ":{"ha":0,"x_min":24,"x_max":746,"o":"m 596 -58 l 676 -107 q 538 -235 625 -203 q 389 -268 450 -268 q 239 -235 325 -268 q 101 -107 153 -203 l 182 -58 q 281 -158 217 -132 q 389 -183 346 -183 q 494 -158 432 -183 q 596 -58 557 -133 m 667 -196 l 746 -246 q 584 -377 682 -342 q 389 -412 486 -412 q 192 -375 292 -412 q 24 -246 93 -337 l 104 -196 q 233 -294 153 -261 q 389 -326 314 -326 q 539 -297 461 -326 q 667 -196 617 -267 z "},"ॎ":{"ha":439,"x_min":158,"x_max":456,"o":"m 158 0 l 158 944 l 433 944 l 456 850 l 278 850 l 278 -22 l 158 0 z "},"ॵ":{"ha":1638,"x_min":93,"x_max":1653,"o":"m 1143 1099 l 1257 1099 q 1306 1096 1283 1097 q 1346 1092 1328 1094 q 1319 1129 1336 1114 q 1272 1147 1303 1144 q 1152 1203 1183 1156 q 1121 1328 1121 1250 l 1121 1356 l 1221 1333 q 1242 1250 1221 1282 q 1306 1215 1264 1218 q 1434 1151 1399 1210 q 1469 1010 1469 1093 l 1469 944 l 1632 944 q 1642 897 1638 921 q 1653 849 1647 872 l 1475 849 l 1475 -22 l 1354 0 l 1354 849 l 1071 849 l 1071 -22 l 951 0 l 951 440 l 586 440 q 666 363 638 410 q 694 254 694 315 q 610 58 694 136 q 367 -21 525 -21 q 212 2 283 -21 q 93 57 140 25 l 114 157 q 231 98 167 119 q 367 76 296 76 q 513 120 453 76 q 572 251 572 164 q 517 392 572 340 q 314 443 463 443 l 215 443 q 201 485 208 464 q 188 529 194 507 l 324 529 q 495 582 439 529 q 551 710 551 635 q 510 820 551 774 q 382 867 469 867 q 248 842 311 867 q 125 774 185 817 q 118 824 122 799 q 110 875 114 850 q 234 940 161 914 q 389 965 307 965 q 608 889 542 965 q 675 713 675 813 q 644 609 675 657 q 567 531 614 561 l 951 531 l 951 849 l 796 849 l 772 944 l 1363 944 q 1347 994 1361 982 q 1281 1007 1333 1007 l 1150 1007 q 973 1062 1039 1007 q 907 1201 907 1117 l 907 1228 l 1006 1207 q 1045 1127 1006 1156 q 1143 1099 1085 1099 z "},"ॐ":{"ha":1199,"x_min":93,"x_max":1168,"o":"m 853 1121 q 795 1144 818 1121 q 772 1201 772 1168 q 795 1258 772 1235 q 853 1282 818 1282 q 911 1258 888 1282 q 935 1201 935 1235 q 911 1144 935 1168 q 853 1121 888 1121 m 1063 1196 l 1144 1146 q 1018 1002 1093 1047 q 851 957 943 957 q 683 1002 758 957 q 558 1146 608 1047 l 639 1196 q 732 1083 676 1121 q 851 1046 788 1046 q 968 1083 914 1046 q 1063 1196 1022 1119 m 389 965 q 608 889 542 965 q 675 713 675 813 q 635 582 675 650 q 511 488 596 514 q 575 465 546 478 q 622 432 604 451 q 720 503 657 468 q 869 538 783 538 q 1088 457 1008 538 q 1168 254 1168 376 q 1078 47 1168 121 q 872 -28 989 -28 l 851 71 q 990 122 936 71 q 1043 256 1043 172 q 992 387 1043 336 q 869 438 942 438 q 752 408 800 438 q 678 346 704 379 q 691 299 688 324 q 694 254 694 275 q 610 58 694 136 q 367 -21 525 -21 l 350 -21 q 204 3 271 -19 q 93 57 138 26 l 114 157 q 231 98 167 119 q 367 76 296 76 q 513 120 453 76 q 572 251 572 164 q 517 392 572 340 q 314 443 463 443 l 215 443 q 201 485 208 464 q 188 529 194 507 l 324 529 q 496 581 440 529 q 551 710 551 633 q 510 820 551 774 q 382 867 469 867 q 248 842 311 867 q 125 774 185 817 q 118 824 122 799 q 110 875 114 850 q 234 940 161 914 q 389 965 307 965 z "},"॑":{"ha":0,"x_min":24,"x_max":139,"o":"m 121 1049 l 40 1049 l 24 1308 l 139 1308 l 121 1049 z "},"॒":{"ha":0,"x_min":24,"x_max":786,"o":"m 786 -208 l 44 -208 l 24 -115 l 767 -115 l 786 -208 z "},"॓":{"ha":0,"x_min":24,"x_max":243,"o":"m 243 1049 l 167 1049 l 24 1308 l 151 1308 l 243 1049 z "},"॔":{"ha":0,"x_min":24,"x_max":243,"o":"m 243 1308 l 99 1049 l 24 1049 l 117 1308 l 243 1308 z "},"ॕ":{"ha":0,"x_min":26,"x_max":626,"o":"m 532 1374 l 613 1326 q 488 1185 563 1228 q 321 1142 413 1142 q 153 1185 229 1142 q 28 1326 76 1229 q 67 1350 47 1338 q 108 1374 88 1363 q 201 1264 146 1300 q 321 1228 257 1228 q 435 1263 378 1228 q 532 1374 492 1297 m 626 1015 l 44 1015 l 26 1096 l 608 1096 q 617 1056 614 1076 q 626 1015 621 1036 z "},"ॶ":{"ha":1235,"x_min":93,"x_max":1250,"o":"m 694 254 q 610 58 694 136 q 367 -21 525 -21 q 212 2 283 -21 q 93 57 140 25 l 114 157 q 231 98 167 119 q 367 76 296 76 q 513 120 453 76 q 572 251 572 164 q 517 392 572 340 q 314 443 463 443 l 215 443 q 201 485 208 464 q 188 529 194 507 l 324 529 q 496 581 440 529 q 551 710 551 633 q 510 820 551 774 q 382 867 469 867 q 248 842 311 867 q 125 774 185 817 q 118 824 122 799 q 110 875 114 850 q 234 940 161 914 q 389 965 307 965 q 608 889 542 965 q 675 713 675 813 q 644 609 675 657 q 567 531 614 561 l 951 531 l 951 849 l 796 849 l 772 944 l 1228 944 l 1250 849 l 1071 849 l 1071 -22 l 951 0 l 951 440 l 586 440 q 666 363 638 410 q 694 254 694 315 m 922 -58 l 1004 -108 q 878 -250 953 -206 q 711 -294 803 -294 q 542 -250 618 -294 q 417 -108 467 -206 l 499 -58 q 592 -170 536 -133 q 711 -207 647 -207 q 824 -171 768 -207 q 922 -58 881 -135 z "},"ॷ":{"ha":1235,"x_min":93,"x_max":1250,"o":"m 694 254 q 610 58 694 136 q 367 -21 525 -21 q 212 2 283 -21 q 93 57 140 25 l 114 157 q 231 98 167 119 q 367 76 296 76 q 513 120 453 76 q 572 251 572 164 q 517 392 572 340 q 314 443 463 443 l 215 443 q 201 485 208 464 q 188 529 194 507 l 324 529 q 496 581 440 529 q 551 710 551 633 q 510 820 551 774 q 382 867 469 867 q 248 842 311 867 q 125 774 185 817 q 118 824 122 799 q 110 875 114 850 q 234 940 161 914 q 389 965 307 965 q 608 889 542 965 q 675 713 675 813 q 644 609 675 657 q 567 531 614 561 l 951 531 l 951 849 l 796 849 l 772 944 l 1228 944 l 1250 849 l 1071 849 l 1071 -22 l 951 0 l 951 440 l 586 440 q 666 363 638 410 q 694 254 694 315 m 894 -57 l 975 -106 q 836 -234 924 -201 q 688 -267 749 -267 q 538 -234 624 -267 q 400 -106 451 -201 q 441 -82 421 -94 q 481 -57 461 -69 q 580 -156 515 -131 q 688 -182 644 -182 q 792 -157 729 -182 q 894 -57 856 -132 m 965 -194 l 1044 -244 q 883 -376 981 -340 q 688 -412 785 -412 q 491 -375 590 -412 q 322 -246 392 -337 q 362 -220 342 -233 q 403 -196 382 -207 q 532 -293 451 -260 q 688 -326 613 -326 q 838 -296 760 -326 q 965 -194 915 -265 z "},"क़":{"ha":1261,"x_min":-15,"x_max":1276,"o":"m 379 604 q 251 551 306 604 q 196 415 197 499 q 249 278 196 332 q 379 225 301 225 q 505 265 463 225 q 574 343 547 306 l 574 486 q 505 563 547 522 q 379 604 463 604 m 881 225 q 1021 278 965 225 q 1076 415 1076 332 q 1021 551 1075 499 q 893 604 967 604 q 763 559 810 604 q 693 479 717 514 l 693 -22 l 574 0 l 574 201 q 492 150 542 174 q 382 126 443 126 q 160 205 250 126 q 71 414 71 283 q 156 620 71 536 q 382 704 242 704 q 492 681 443 704 q 574 628 542 657 l 574 849 l 4 849 q -5 897 0 872 q -15 944 -10 921 l 1257 944 l 1276 849 l 693 849 l 693 621 q 776 678 725 651 q 892 704 826 704 q 1116 620 1031 704 q 1201 414 1201 536 q 1110 203 1201 281 q 901 126 1018 126 l 881 225 m 256 -144 q 197 -121 221 -144 q 174 -64 174 -97 q 197 -7 174 -31 q 256 17 221 17 q 313 -7 290 17 q 336 -64 336 -31 q 313 -121 336 -97 q 256 -144 290 -144 z "},"ख़":{"ha":1274,"x_min":-15,"x_max":1289,"o":"m 561 469 q 638 650 561 578 q 838 722 715 722 q 922 711 882 722 q 992 678 961 700 l 992 849 l 426 849 q 475 755 458 810 q 492 647 492 700 q 431 469 492 547 q 271 364 371 390 q 375 174 281 272 q 618 76 469 76 q 823 132 738 76 q 942 260 908 188 q 881 234 914 243 q 814 225 849 225 q 636 294 711 225 q 561 469 561 363 m 685 471 q 729 356 685 397 q 838 315 774 315 q 947 357 903 315 q 992 469 992 399 q 947 584 992 542 q 838 626 903 626 q 731 584 776 626 q 685 471 685 542 m 1113 -22 l 992 0 l 992 133 q 833 22 929 65 q 618 -22 736 -22 q 291 98 410 -22 q 160 353 172 218 l 110 353 q 71 368 85 353 q 57 404 57 383 q 101 503 57 453 q 204 553 146 553 q 238 525 229 553 q 249 464 246 497 q 340 528 303 481 q 376 647 376 576 q 350 765 376 707 q 281 849 324 822 l 4 849 q -5 897 0 872 q -15 944 -10 921 l 1269 944 l 1289 849 l 1113 849 l 1113 -22 m 135 -46 q 78 -22 101 -46 q 54 33 54 1 q 78 92 54 68 q 135 115 101 115 q 193 92 169 115 q 217 33 217 68 q 193 -22 217 1 q 135 -46 169 -46 z "},"ग़":{"ha":878,"x_min":-15,"x_max":893,"o":"m 597 0 l 597 849 l 293 849 l 293 308 q 281 257 293 276 q 243 238 268 238 q 127 291 176 238 q 78 394 78 344 q 107 441 78 432 q 172 450 136 450 l 172 849 l 4 849 q -5 897 0 872 q -15 944 -10 921 l 872 944 l 893 849 l 717 849 l 717 -22 l 597 0 m 247 -46 q 190 -22 213 -46 q 167 33 167 1 q 190 92 167 68 q 247 115 213 115 q 305 92 281 115 q 329 33 329 68 q 305 -22 329 1 q 247 -46 281 -46 z "},"ज़":{"ha":1061,"x_min":-15,"x_max":1076,"o":"m 781 543 l 540 543 q 583 471 567 513 q 599 378 599 429 q 507 173 599 240 q 289 106 415 106 q 134 131 204 106 q 17 189 64 157 l 39 293 q 155 229 92 254 q 286 204 218 204 q 425 252 369 204 q 481 376 481 300 q 431 499 481 454 q 293 543 381 543 l 217 543 q 205 592 211 568 q 193 642 199 617 l 781 642 l 781 849 l 4 849 q -5 897 0 872 q -15 944 -10 921 l 1056 944 l 1076 849 l 899 849 l 899 -22 l 781 0 l 781 543 m 292 -144 q 234 -121 258 -144 q 210 -64 210 -97 q 234 -7 210 -31 q 292 17 258 17 q 350 -7 326 17 q 374 -64 374 -31 q 350 -121 374 -97 q 292 -144 326 -144 z "},"ड़":{"ha":739,"x_min":-15,"x_max":753,"o":"m 106 153 q 232 94 160 115 q 376 72 304 74 q 513 105 463 72 q 563 206 563 138 q 524 300 563 263 q 421 338 485 338 l 292 338 q 139 391 208 338 q 69 528 69 444 q 133 667 69 617 q 289 718 197 718 l 490 718 l 490 849 l 4 849 q -5 897 0 872 q -15 944 -10 921 l 732 944 q 742 897 738 921 q 753 849 747 872 l 607 849 l 607 618 l 290 618 q 217 592 247 618 q 186 528 186 565 q 216 463 186 489 q 293 436 246 436 l 408 436 q 610 378 535 436 q 685 204 685 319 q 605 44 685 113 q 379 -25 525 -25 q 213 -2 296 -25 q 85 51 131 21 l 106 153 m 386 -254 q 328 -231 353 -254 q 304 -172 304 -207 q 328 -115 304 -139 q 386 -90 353 -90 q 443 -115 419 -90 q 467 -172 467 -139 q 443 -231 467 -207 q 386 -254 419 -254 z "},"ढ़":{"ha":868,"x_min":-15,"x_max":890,"o":"m 699 849 l 699 592 l 518 592 q 291 524 382 592 q 200 333 200 457 q 277 146 200 206 q 458 78 354 86 q 415 135 432 100 q 397 206 397 171 q 454 349 397 289 q 603 410 511 410 q 755 358 697 410 q 813 218 813 306 q 726 46 813 117 q 501 -25 639 -25 q 213 55 344 -25 q 81 333 81 135 q 209 600 81 506 q 518 694 338 694 l 578 694 l 578 849 l 4 849 q -5 897 0 872 q -15 944 -10 921 l 868 944 l 890 849 l 699 849 m 610 306 q 538 280 568 306 q 507 206 507 254 q 527 135 507 167 q 585 85 547 103 q 677 136 647 99 q 707 215 707 174 q 681 280 707 254 q 610 306 654 306 m 501 -254 q 445 -231 468 -254 q 422 -172 422 -207 q 445 -115 422 -139 q 501 -90 468 -90 q 560 -115 536 -90 q 585 -172 585 -139 q 560 -231 585 -207 q 501 -254 536 -254 z "},"फ़":{"ha":1315,"x_min":-15,"x_max":1332,"o":"m 631 526 l 631 849 l 251 849 l 251 532 q 299 391 251 443 q 440 339 347 339 q 578 389 528 339 q 631 526 628 439 m 936 207 q 1076 260 1021 207 q 1132 397 1132 314 q 1077 533 1131 481 q 950 585 1024 585 q 820 542 865 585 q 751 463 775 499 l 751 -22 l 631 0 l 631 303 q 544 255 596 272 q 433 238 492 238 q 216 315 300 238 q 132 532 132 393 l 132 849 l 4 849 q -5 897 0 872 q -15 944 -10 921 l 1311 944 l 1332 849 l 751 849 l 751 606 q 833 660 782 635 q 947 686 883 686 q 1172 602 1086 686 q 1257 396 1257 518 q 1165 185 1257 263 q 956 108 1072 108 l 936 207 m 307 -46 q 250 -22 274 -46 q 226 33 226 1 q 250 92 226 68 q 307 115 274 115 q 365 92 342 115 q 389 33 389 68 q 365 -22 389 1 q 307 -46 342 -46 z "},"य़":{"ha":876,"x_min":-15,"x_max":893,"o":"m 107 526 q 180 588 147 539 q 213 708 213 638 q 185 797 213 760 q 113 849 158 835 l 4 849 q -5 897 0 872 q -15 944 -10 921 l 872 944 l 893 849 l 715 849 l 715 -22 l 594 0 l 594 301 q 511 255 560 272 q 399 238 463 238 q 180 318 274 238 q 86 503 86 399 l 107 526 m 594 849 l 271 849 q 308 788 293 826 q 324 700 324 750 q 294 572 324 635 q 201 474 264 508 q 270 382 215 422 q 400 339 325 342 q 540 389 488 339 q 594 526 593 439 l 594 849 m 226 -46 q 169 -22 193 -46 q 146 33 146 1 q 169 92 146 68 q 226 115 193 115 q 285 92 261 115 q 308 33 308 68 q 285 -22 308 1 q 226 -46 261 -46 z "},"ॠ":{"ha":1242,"x_min":-15,"x_max":1257,"o":"m 904 -19 q 893 6 897 -8 q 889 36 889 21 q 966 208 889 146 q 1043 321 1043 269 q 1026 394 1043 356 q 961 494 1008 432 q 843 410 926 446 q 651 375 760 375 l 651 -22 l 531 0 l 531 321 l 183 129 l 121 215 l 501 426 q 360 545 419 521 q 247 569 300 569 q 180 557 218 569 q 106 529 142 544 l 60 626 q 172 660 107 650 q 254 669 236 669 q 385 646 315 669 q 531 535 456 622 l 531 849 l 4 849 q -5 897 0 872 q -15 944 -10 921 l 1236 944 l 1257 849 l 651 849 l 651 471 l 689 474 q 831 510 779 475 q 901 575 883 546 q 877 610 888 588 q 867 664 867 633 q 887 712 867 696 q 939 728 907 728 q 1026 700 985 728 q 1067 625 1067 672 q 1058 593 1067 608 q 1032 560 1050 578 q 1125 430 1096 486 q 1154 317 1154 374 q 1078 183 1154 233 q 1001 90 1001 132 q 1024 53 1001 60 q 1069 47 1046 47 l 1104 47 l 1076 -39 l 1054 -39 q 1007 -49 1031 -39 q 983 -81 983 -58 q 1006 -114 983 -104 q 1053 -124 1029 -124 l 1092 -124 q 1076 -167 1083 -146 q 1061 -211 1068 -189 l 1028 -211 q 930 -184 979 -211 q 876 -96 881 -157 q 883 -53 876 -71 q 904 -19 890 -35 z "},"ॡ":{"ha":1206,"x_min":-15,"x_max":1221,"o":"m 888 -8 q 852 22 869 -1 q 835 71 835 46 q 862 144 835 118 q 924 181 889 171 l 924 396 q 885 524 921 475 q 782 574 850 574 q 678 519 714 574 q 643 379 643 465 l 643 208 l 528 233 l 526 379 q 490 517 526 465 q 371 571 453 569 q 265 526 308 571 q 222 426 222 482 q 262 240 222 328 q 372 6 301 153 l 275 -28 q 158 213 207 106 q 108 436 108 319 q 186 601 108 529 q 371 675 264 674 q 493 647 439 674 q 582 574 547 621 q 667 649 615 622 q 783 675 719 675 q 860 663 824 675 q 924 629 897 651 l 924 850 l 6 850 l -15 944 l 1200 944 l 1221 850 l 1044 850 l 1044 117 l 1007 117 q 961 106 985 117 q 938 71 938 94 q 961 38 938 47 q 1007 28 985 28 l 1043 28 l 1013 -42 q 955 -53 978 -42 q 932 -87 932 -65 q 950 -122 932 -110 q 1007 -133 968 -133 l 1043 -133 l 1015 -208 l 979 -208 q 882 -181 929 -208 q 835 -87 835 -153 q 851 -40 835 -62 q 888 -8 868 -18 z "},"ॢ":{"ha":0,"x_min":24,"x_max":592,"o":"m 353 -199 l 353 -300 l 261 -279 l 261 -199 q 236 -130 260 -150 q 182 -111 213 -110 q 137 -129 158 -110 q 115 -172 115 -149 q 140 -278 115 -225 q 207 -415 164 -332 l 121 -436 q 52 -297 81 -358 q 24 -167 24 -235 q 69 -69 24 -111 q 179 -25 115 -26 q 256 -48 218 -25 q 307 -103 294 -71 q 358 -49 321 -72 q 433 -25 396 -25 q 547 -68 503 -25 q 592 -167 592 -111 q 562 -258 592 -218 q 529 -333 532 -297 q 538 -354 528 -346 q 567 -362 549 -362 l 582 -362 l 563 -435 l 538 -435 q 469 -418 508 -435 q 431 -362 431 -401 q 463 -261 431 -303 q 496 -172 496 -219 q 476 -127 496 -143 q 431 -111 456 -111 q 377 -133 401 -111 q 353 -199 353 -156 z "},"ॣ":{"ha":0,"x_min":24,"x_max":590,"o":"m 531 -556 q 451 -533 489 -556 q 414 -458 414 -511 q 424 -419 414 -436 q 449 -392 433 -401 q 439 -376 442 -386 q 436 -358 436 -367 q 467 -259 436 -299 q 497 -174 497 -219 q 477 -127 497 -144 q 431 -110 457 -110 q 376 -133 400 -110 q 353 -197 353 -156 l 353 -300 l 261 -278 l 261 -197 q 235 -130 261 -150 q 181 -110 210 -110 q 139 -128 163 -110 q 115 -172 115 -146 q 140 -278 115 -225 q 207 -414 164 -331 l 119 -436 q 52 -295 81 -357 q 24 -167 24 -233 l 24 -158 q 72 -66 26 -107 q 179 -25 117 -25 q 256 -47 218 -25 q 307 -101 293 -69 q 358 -48 321 -71 q 433 -25 396 -25 l 443 -25 q 549 -70 508 -28 q 590 -167 590 -112 q 560 -261 590 -222 q 531 -339 531 -300 q 544 -354 532 -349 q 571 -360 556 -360 l 583 -360 q 574 -394 578 -376 q 564 -429 569 -411 l 544 -429 q 510 -435 526 -429 q 494 -458 494 -442 q 512 -484 494 -476 q 549 -492 529 -492 l 581 -492 q 567 -523 574 -507 q 554 -556 561 -539 l 531 -556 z "},"।":{"ha":510,"x_min":194,"x_max":315,"o":"m 315 1050 l 315 -22 l 194 0 l 194 1071 l 315 1050 z "},"॥":{"ha":947,"x_min":194,"x_max":753,"o":"m 753 1050 l 753 -22 l 632 0 l 632 1071 l 753 1050 m 314 1050 l 315 -22 l 194 0 l 194 1071 l 314 1050 z "},"०":{"ha":961,"x_min":89,"x_max":872,"o":"m 482 79 q 201 194 313 79 q 89 471 89 310 q 200 749 89 633 q 481 864 311 864 q 761 749 650 864 q 872 471 872 633 q 761 194 872 310 q 482 79 650 79 m 204 471 q 282 264 204 346 q 481 182 360 182 q 680 264 603 182 q 757 471 757 346 q 680 679 757 597 q 481 761 603 761 q 282 679 360 761 q 204 471 204 597 z "},"१":{"ha":539,"x_min":75,"x_max":476,"o":"m 75 397 q 76 418 75 407 q 76 440 76 429 q 150 499 111 471 q 224 557 189 526 l 242 572 q 142 641 190 590 q 93 763 93 692 q 146 907 93 849 q 279 965 199 965 q 423 909 369 965 q 476 772 476 853 q 444 640 476 707 q 318 504 411 574 l 189 401 q 188 399 189 400 q 188 396 188 397 l 467 4 l 344 -25 q 210 185 276 79 q 75 397 143 292 m 285 861 q 227 833 247 861 q 207 764 207 806 q 238 681 207 714 q 310 633 268 647 q 353 689 336 657 q 369 756 369 721 q 347 830 369 799 q 285 861 324 861 z "},"२":{"ha":707,"x_min":88,"x_max":629,"o":"m 238 356 l 183 356 q 149 369 161 356 q 136 407 136 383 q 170 505 136 453 q 257 557 204 557 q 299 524 282 557 q 326 460 315 490 q 453 519 397 464 q 510 664 510 574 q 463 806 510 746 q 322 867 415 867 q 197 835 251 867 q 135 796 143 803 l 88 883 q 165 928 99 892 q 326 965 232 965 q 560 863 492 965 q 629 663 629 761 q 547 463 629 542 q 347 365 464 383 l 590 4 l 475 -25 q 356 164 415 68 q 238 356 297 260 z "},"३":{"ha":722,"x_min":71,"x_max":643,"o":"m 114 882 q 228 942 163 919 q 372 965 293 965 q 559 900 493 965 q 625 747 625 835 q 593 632 625 683 q 504 563 561 581 q 608 486 572 546 q 643 354 643 426 q 565 188 643 254 q 363 114 488 122 l 319 111 l 446 -47 l 368 -104 l 192 125 q 112 181 153 143 q 71 271 71 219 q 90 313 71 297 q 135 329 108 329 q 222 297 182 329 q 276 219 263 265 q 305 215 290 217 q 333 214 319 214 q 463 254 406 214 q 519 354 519 294 q 475 469 519 418 q 315 519 431 519 l 206 519 l 186 606 l 324 606 q 460 643 415 606 q 504 744 504 681 q 464 833 504 799 q 361 867 424 867 q 236 844 293 867 q 129 783 179 822 l 114 882 z "},"४":{"ha":981,"x_min":71,"x_max":910,"o":"m 725 194 q 663 35 725 96 q 490 -25 600 -25 q 317 36 381 -25 q 254 194 254 97 q 301 356 254 269 q 419 533 349 443 q 244 717 339 625 q 71 883 150 808 l 139 971 q 319 797 228 885 q 490 618 411 708 q 660 797 569 708 q 840 971 750 885 l 910 883 q 735 717 831 808 q 560 533 640 625 q 678 356 631 443 q 725 194 725 269 m 372 194 q 408 108 372 139 q 490 76 444 76 q 572 108 536 76 q 607 194 607 139 q 574 311 607 247 q 490 443 540 375 q 406 311 439 375 q 372 194 372 247 z "},"५":{"ha":707,"x_min":111,"x_max":686,"o":"m 356 93 q 417 79 392 82 q 465 76 442 76 q 553 103 526 76 q 579 169 579 131 q 560 278 579 229 q 517 367 542 328 q 474 360 496 363 q 429 358 451 358 q 203 431 296 358 q 111 657 111 503 l 111 944 l 229 944 l 229 657 q 288 499 229 540 q 450 458 347 458 q 438 487 443 472 q 433 517 433 501 q 453 568 433 542 q 510 594 474 594 q 592 567 553 594 q 632 493 632 539 q 626 457 632 475 q 603 421 621 439 q 666 283 646 363 q 686 161 686 204 q 638 33 683 89 q 471 -22 592 -22 q 407 -18 447 -22 q 328 0 367 -14 q 342 47 335 22 q 356 93 350 71 z "},"६":{"ha":760,"x_min":92,"x_max":713,"o":"m 713 -8 l 618 -57 l 529 108 q 524 117 526 113 q 519 126 521 121 q 456 113 496 115 q 396 111 417 111 q 176 181 260 111 q 92 354 92 250 q 126 486 92 426 q 229 563 161 546 q 139 632 171 581 q 107 747 107 683 q 174 901 107 836 q 361 965 240 965 q 504 942 439 965 q 618 882 569 919 q 611 833 615 857 q 603 783 607 808 q 495 844 551 822 q 371 867 439 867 q 269 833 310 867 q 229 744 229 800 q 273 643 229 681 q 408 606 317 606 l 538 606 q 546 562 542 583 q 556 519 550 540 l 417 519 q 258 469 303 519 q 214 354 214 418 q 270 254 214 294 q 400 214 326 214 q 438 216 419 214 q 474 224 457 218 q 471 244 472 233 q 469 265 469 254 q 490 318 469 297 q 544 339 510 339 q 623 313 581 339 q 665 244 665 288 q 652 199 665 222 q 615 154 639 176 l 713 -8 z "},"७":{"ha":954,"x_min":46,"x_max":890,"o":"m 739 639 q 678 732 717 696 q 579 768 639 768 q 476 731 519 768 q 432 632 432 693 q 472 531 432 571 q 581 492 513 492 q 687 535 638 492 q 739 639 736 578 m 767 494 q 677 420 733 447 q 568 393 621 393 q 385 458 456 393 q 315 622 315 524 q 388 801 315 729 q 576 874 460 874 q 810 740 731 874 q 890 411 890 606 q 774 104 890 233 q 467 -25 658 -25 q 153 94 261 -25 q 46 422 46 213 q 106 422 76 422 q 165 421 135 421 q 246 168 165 256 q 474 81 326 81 q 687 176 603 81 q 771 436 771 271 q 769 465 771 450 q 767 494 768 479 z "},"८":{"ha":793,"x_min":76,"x_max":708,"o":"m 200 288 q 256 142 200 203 q 404 81 313 81 q 535 122 468 81 q 601 322 601 164 l 706 290 q 650 87 708 199 q 392 -25 592 -25 q 158 66 239 -25 q 76 281 76 157 q 203 648 76 456 q 472 971 329 840 l 542 882 q 294 583 389 742 q 200 288 200 425 z "},"९":{"ha":658,"x_min":88,"x_max":604,"o":"m 344 860 q 242 818 282 860 q 201 713 201 776 q 203 660 201 683 q 211 617 206 636 q 269 587 233 596 q 344 578 306 578 q 449 620 410 578 q 488 722 488 663 q 449 820 488 781 q 344 860 411 860 m 344 485 l 338 485 q 305 489 321 485 q 275 500 289 493 l 333 415 q 458 236 421 288 q 494 117 496 185 q 450 15 494 54 q 336 -36 406 -24 l 318 53 q 369 78 350 63 q 389 119 389 94 q 353 211 389 158 q 222 389 318 264 q 122 549 157 475 q 88 699 88 624 q 156 883 88 801 q 344 964 224 964 q 536 895 468 964 q 604 731 604 826 q 531 556 604 626 q 344 485 458 486 z "},"॰":{"ha":790,"x_min":74,"x_max":718,"o":"m 397 719 q 624 624 531 719 q 718 392 718 529 q 624 162 718 257 q 396 67 531 67 q 166 163 258 67 q 74 399 74 258 q 167 626 74 533 q 397 719 260 719 m 396 165 q 549 231 486 165 q 611 394 611 297 q 549 555 611 490 q 396 619 486 619 q 243 555 306 619 q 181 394 181 490 q 243 231 181 296 q 396 165 306 165 z "},"ॱ":{"ha":274,"x_min":56,"x_max":218,"o":"m 138 329 q 79 352 103 329 q 56 410 56 375 q 79 468 56 444 q 138 492 103 492 q 195 468 172 492 q 218 410 218 444 q 195 352 218 375 q 138 329 172 329 z "},"ॲ":{"ha":1235,"x_min":93,"x_max":1307,"o":"m 1225 1301 l 1307 1251 q 1181 1108 1256 1153 q 1013 1064 1106 1064 q 844 1108 919 1064 q 721 1251 769 1153 l 800 1301 q 894 1190 839 1226 q 1013 1153 950 1153 q 1128 1188 1072 1153 q 1225 1301 1185 1224 m 694 254 q 610 58 694 136 q 367 -21 525 -21 q 212 2 283 -21 q 93 57 140 25 l 114 157 q 231 98 167 119 q 367 76 296 76 q 513 120 453 76 q 572 251 572 164 q 517 392 572 340 q 314 443 463 443 l 215 443 q 201 485 208 464 q 188 529 194 507 l 324 529 q 496 581 440 529 q 551 710 551 633 q 510 820 551 774 q 382 867 469 867 q 248 842 311 867 q 125 774 185 817 q 118 824 122 799 q 110 875 114 850 q 234 940 161 914 q 389 965 307 965 q 608 889 542 965 q 675 713 675 813 q 644 609 675 657 q 567 531 614 561 l 951 531 l 951 849 l 796 849 l 772 944 l 1228 944 l 1250 849 l 1071 849 l 1071 -22 l 951 0 l 951 440 l 586 440 q 666 363 638 410 q 694 254 694 315 z "},"ॳ":{"ha":1235,"x_min":93,"x_max":1250,"o":"m 694 254 q 610 58 694 136 q 367 -21 525 -21 q 212 2 283 -21 q 93 57 140 25 l 114 157 q 231 98 167 119 q 367 76 296 76 q 513 120 453 76 q 572 251 572 164 q 517 392 572 340 q 314 443 463 443 l 215 443 q 201 485 208 464 q 188 529 194 507 l 324 529 q 495 582 439 529 q 551 710 551 635 q 510 820 551 774 q 382 867 469 867 q 248 842 311 867 q 125 774 185 817 q 118 824 122 799 q 110 875 114 850 q 234 940 161 914 q 389 965 307 965 q 608 889 542 965 q 675 713 675 813 q 644 609 675 657 q 567 531 614 561 l 951 531 l 951 849 l 796 849 l 772 944 l 954 944 l 954 1247 l 1068 1225 l 1068 944 l 1228 944 l 1250 849 l 1071 849 l 1071 -22 l 951 0 l 951 440 l 586 440 q 666 363 638 410 q 694 254 694 315 z "},"ॴ":{"ha":1638,"x_min":93,"x_max":1653,"o":"m 951 0 l 951 442 l 586 442 q 667 363 638 411 q 696 254 696 315 q 610 57 696 136 q 367 -22 525 -22 q 213 1 283 -22 q 93 57 142 25 l 114 157 q 232 99 168 119 q 367 76 296 78 q 513 120 453 75 q 572 251 572 165 q 517 392 572 340 q 314 443 463 443 l 215 443 l 189 529 l 324 529 q 496 581 440 529 q 551 710 551 633 q 510 820 551 774 q 382 867 469 867 q 248 842 311 867 q 126 774 185 818 l 110 875 q 234 940 161 914 q 390 965 307 965 q 609 889 543 965 q 675 714 675 813 q 644 610 675 658 q 567 531 614 561 l 951 531 l 951 850 l 796 850 l 774 944 l 1354 944 l 1354 1249 l 1468 1226 l 1468 944 l 1632 944 l 1653 850 l 1476 850 l 1476 -22 l 1354 0 l 1354 850 l 1071 850 l 1071 -22 l 951 0 z "},"ॹ":{"ha":1061,"x_min":-15,"x_max":1076,"o":"m 781 543 l 540 543 q 583 471 567 513 q 599 378 599 429 q 507 173 599 240 q 289 106 415 106 q 134 131 204 106 q 17 189 64 157 l 39 293 q 155 229 92 254 q 286 204 218 204 q 425 252 369 204 q 481 376 481 300 q 431 499 481 454 q 293 543 381 543 l 217 543 q 205 592 211 568 q 193 642 199 617 l 781 642 l 781 849 l 4 849 q -5 897 0 872 q -15 944 -10 921 l 1056 944 l 1076 849 l 899 849 l 899 -22 l 781 0 l 781 543 m 149 -111 q 92 -87 115 -111 q 68 -29 68 -64 q 92 28 68 4 q 149 51 115 51 q 208 28 183 51 q 232 -29 232 4 q 208 -87 232 -64 q 149 -111 183 -111 m 432 -111 q 374 -87 399 -111 q 350 -29 350 -64 q 374 28 350 4 q 432 51 399 51 q 489 28 465 51 q 513 -29 513 4 q 489 -87 513 -64 q 432 -111 465 -111 m 292 -264 q 233 -241 257 -264 q 210 -183 210 -218 q 233 -126 210 -150 q 292 -101 257 -101 q 349 -126 325 -101 q 372 -183 372 -150 q 349 -241 372 -218 q 292 -264 325 -264 z "},"ॺ":{"ha":868,"x_min":-10,"x_max":894,"o":"m 108 526 q 180 588 147 539 q 213 708 213 638 q 186 797 213 760 q 114 849 160 835 l 11 849 l -10 944 l 872 944 l 894 849 l 715 849 l 715 -22 l 596 0 l 596 301 q 513 255 561 272 q 400 238 464 238 q 181 318 275 238 q 86 503 86 399 l 108 526 m 596 849 l 306 849 q 451 681 378 765 q 594 514 524 597 q 595 533 594 524 q 596 553 596 543 l 596 849 m 201 474 q 272 382 217 422 q 401 339 326 342 q 503 361 460 339 q 569 426 546 383 l 324 717 q 297 580 324 647 q 201 474 269 513 z "},"ॻ":{"ha":878,"x_min":-15,"x_max":893,"o":"m 597 0 l 597 849 l 293 849 l 293 308 q 281 257 293 276 q 243 238 268 238 q 127 291 176 238 q 78 394 78 344 q 107 441 78 432 q 172 450 136 450 l 172 849 l 4 849 q -5 897 0 872 q -15 944 -10 921 l 872 944 l 893 849 l 717 849 l 717 -22 l 597 0 m 744 -208 l 140 -208 l 119 -115 l 724 -115 l 744 -208 z "},"ॼ":{"ha":1061,"x_min":-15,"x_max":1076,"o":"m 781 543 l 540 543 q 583 471 567 513 q 599 378 599 429 q 507 173 599 240 q 289 106 415 106 q 134 131 204 106 q 17 189 64 157 l 39 293 q 155 229 92 254 q 286 204 218 204 q 425 252 369 204 q 481 376 481 300 q 431 499 481 454 q 293 543 381 543 l 217 543 q 205 592 211 568 q 193 642 199 617 l 781 642 l 781 849 l 4 849 q -5 897 0 872 q -15 944 -10 921 l 1056 944 l 1076 849 l 899 849 l 899 -22 l 781 0 l 781 543 m 901 -208 l 89 -208 l 68 -115 l 879 -115 l 901 -208 z "},"ॽ":{"ha":765,"x_min":92,"x_max":692,"o":"m 389 965 q 616 882 540 965 q 692 689 692 799 q 621 503 692 597 q 419 361 550 408 l 419 21 l 299 58 l 299 422 q 490 530 415 458 q 565 688 565 601 q 516 816 565 771 q 383 861 467 861 q 237 834 304 861 q 107 764 169 807 l 92 874 q 224 939 151 913 q 389 965 297 965 z "},"ॾ":{"ha":739,"x_min":-15,"x_max":753,"o":"m 106 153 q 232 94 160 115 q 376 72 304 74 q 513 111 463 72 q 563 206 563 150 q 524 300 563 263 q 421 338 485 338 l 292 338 q 139 391 208 338 q 69 528 69 444 q 133 667 69 617 q 289 718 197 718 l 490 718 l 490 849 l 4 849 q -5 897 0 872 q -15 944 -10 921 l 732 944 q 742 897 738 921 q 753 849 747 872 l 607 849 l 607 618 l 290 618 q 217 592 247 618 q 186 528 186 565 q 216 463 186 489 q 293 436 246 436 l 408 436 q 610 378 535 436 q 685 204 685 319 q 605 44 685 113 q 379 -25 525 -25 q 213 -2 296 -25 q 85 51 131 21 l 106 153 m 676 -208 l 103 -208 l 81 -115 l 654 -115 l 676 -208 z "},"ॿ":{"ha":857,"x_min":-15,"x_max":872,"o":"m 575 0 l 575 200 q 494 149 543 172 q 383 125 444 125 q 162 204 253 125 q 71 414 71 283 q 157 620 71 536 q 383 704 243 704 q 494 681 444 704 q 575 629 543 658 l 575 849 l 4 849 q -5 897 0 872 q -15 944 -10 921 l 851 944 l 872 849 l 696 849 l 696 -22 l 575 0 m 575 488 q 504 565 549 524 q 379 606 460 606 q 333 599 356 606 q 290 579 310 592 q 414 437 351 508 q 538 294 476 365 q 558 318 549 306 q 575 342 568 331 l 575 488 m 233 532 q 206 479 215 508 q 196 415 196 450 q 249 278 196 332 q 379 224 301 224 q 435 231 410 224 q 482 249 461 239 l 233 532 m 735 -208 l 119 -208 q 109 -161 114 -185 q 99 -115 104 -137 l 713 -115 q 724 -161 718 -137 q 735 -208 729 -185 z "}}}
